%TF.GenerationSoftware,KiCad,Pcbnew,7.0.5-0*%
%TF.CreationDate,2023-10-21T17:04:42+08:00*%
%TF.ProjectId,Energy,456e6572-6779-42e6-9b69-6361645f7063,rev?*%
%TF.SameCoordinates,Original*%
%TF.FileFunction,Soldermask,Bot*%
%TF.FilePolarity,Negative*%
%FSLAX46Y46*%
G04 Gerber Fmt 4.6, Leading zero omitted, Abs format (unit mm)*
G04 Created by KiCad (PCBNEW 7.0.5-0) date 2023-10-21 17:04:42*
%MOMM*%
%LPD*%
G01*
G04 APERTURE LIST*
G04 Aperture macros list*
%AMRoundRect*
0 Rectangle with rounded corners*
0 $1 Rounding radius*
0 $2 $3 $4 $5 $6 $7 $8 $9 X,Y pos of 4 corners*
0 Add a 4 corners polygon primitive as box body*
4,1,4,$2,$3,$4,$5,$6,$7,$8,$9,$2,$3,0*
0 Add four circle primitives for the rounded corners*
1,1,$1+$1,$2,$3*
1,1,$1+$1,$4,$5*
1,1,$1+$1,$6,$7*
1,1,$1+$1,$8,$9*
0 Add four rect primitives between the rounded corners*
20,1,$1+$1,$2,$3,$4,$5,0*
20,1,$1+$1,$4,$5,$6,$7,0*
20,1,$1+$1,$6,$7,$8,$9,0*
20,1,$1+$1,$8,$9,$2,$3,0*%
G04 Aperture macros list end*
%ADD10C,2.000000*%
%ADD11RoundRect,0.250000X1.550000X-0.650000X1.550000X0.650000X-1.550000X0.650000X-1.550000X-0.650000X0*%
%ADD12O,3.600000X1.800000*%
%ADD13C,2.250000*%
%ADD14C,1.600000*%
%ADD15R,2.300000X2.000000*%
%ADD16C,2.300000*%
%ADD17C,1.700000*%
%ADD18O,1.700000X1.700000*%
G04 APERTURE END LIST*
D10*
%TO.C,L3*%
X109400000Y-59600000D03*
X109400000Y-66800000D03*
X125900000Y-59600000D03*
X125900000Y-66800000D03*
%TD*%
D11*
%TO.C,J2*%
X111142500Y-75687500D03*
D12*
X111142500Y-71877500D03*
%TD*%
D10*
%TO.C,F1*%
X112460000Y-38930000D03*
X117540000Y-38940000D03*
%TD*%
D13*
%TO.C,L1*%
X122700000Y-79630000D03*
X118700000Y-70130000D03*
D14*
X131700000Y-70630000D03*
X131700000Y-79130000D03*
%TD*%
D15*
%TO.C,PS1*%
X122437500Y-44430000D03*
D16*
X122437500Y-49430000D03*
X151837500Y-39230000D03*
X151837500Y-54630000D03*
%TD*%
D11*
%TO.C,J1*%
X111142500Y-48740000D03*
D12*
X111142500Y-44930000D03*
%TD*%
D14*
%TO.C,RV1*%
X118120000Y-44430000D03*
X116220000Y-49430000D03*
%TD*%
D17*
%TO.C,J3*%
X151837500Y-52005000D03*
D18*
X151837500Y-49465000D03*
X151837500Y-46925000D03*
X151837500Y-44385000D03*
X151837500Y-41845000D03*
%TD*%
G36*
X117845364Y-69807149D02*
G01*
X117887633Y-69833619D01*
X119018290Y-70912491D01*
X119053202Y-70973013D01*
X119049852Y-71042802D01*
X119020492Y-71089760D01*
X117376340Y-72738557D01*
X117315064Y-72772129D01*
X117288535Y-72775000D01*
X111299000Y-72775000D01*
X111231961Y-72755315D01*
X111186206Y-72702511D01*
X111175000Y-72651000D01*
X111175000Y-71099000D01*
X111194685Y-71031961D01*
X111247489Y-70986206D01*
X111299000Y-70975000D01*
X116575000Y-70975000D01*
X116575000Y-70974999D01*
X117714349Y-69835650D01*
X117775672Y-69802165D01*
X117845364Y-69807149D01*
G37*
G36*
X119165585Y-74809685D02*
G01*
X119186338Y-74826430D01*
X123012196Y-78661974D01*
X123045603Y-78723339D01*
X123040531Y-78793024D01*
X123011741Y-78837568D01*
X121907553Y-79933130D01*
X121846099Y-79966375D01*
X121776427Y-79961117D01*
X121732663Y-79932915D01*
X118380000Y-76590000D01*
X111254000Y-76590000D01*
X111186961Y-76570315D01*
X111141206Y-76517511D01*
X111130000Y-76466000D01*
X111130000Y-74914000D01*
X111149685Y-74846961D01*
X111202489Y-74801206D01*
X111254000Y-74790000D01*
X119098546Y-74790000D01*
X119165585Y-74809685D01*
G37*
M02*
