%TF.GenerationSoftware,KiCad,Pcbnew,7.0.5-0*%
%TF.CreationDate,2023-10-21T17:04:42+08:00*%
%TF.ProjectId,Energy,456e6572-6779-42e6-9b69-6361645f7063,rev?*%
%TF.SameCoordinates,Original*%
%TF.FileFunction,Copper,L2,Bot*%
%TF.FilePolarity,Positive*%
%FSLAX46Y46*%
G04 Gerber Fmt 4.6, Leading zero omitted, Abs format (unit mm)*
G04 Created by KiCad (PCBNEW 7.0.5-0) date 2023-10-21 17:04:42*
%MOMM*%
%LPD*%
G01*
G04 APERTURE LIST*
G04 Aperture macros list*
%AMRoundRect*
0 Rectangle with rounded corners*
0 $1 Rounding radius*
0 $2 $3 $4 $5 $6 $7 $8 $9 X,Y pos of 4 corners*
0 Add a 4 corners polygon primitive as box body*
4,1,4,$2,$3,$4,$5,$6,$7,$8,$9,$2,$3,0*
0 Add four circle primitives for the rounded corners*
1,1,$1+$1,$2,$3*
1,1,$1+$1,$4,$5*
1,1,$1+$1,$6,$7*
1,1,$1+$1,$8,$9*
0 Add four rect primitives between the rounded corners*
20,1,$1+$1,$2,$3,$4,$5,0*
20,1,$1+$1,$4,$5,$6,$7,0*
20,1,$1+$1,$6,$7,$8,$9,0*
20,1,$1+$1,$8,$9,$2,$3,0*%
G04 Aperture macros list end*
%TA.AperFunction,ComponentPad*%
%ADD10C,2.000000*%
%TD*%
%TA.AperFunction,ComponentPad*%
%ADD11RoundRect,0.250000X1.550000X-0.650000X1.550000X0.650000X-1.550000X0.650000X-1.550000X-0.650000X0*%
%TD*%
%TA.AperFunction,ComponentPad*%
%ADD12O,3.600000X1.800000*%
%TD*%
%TA.AperFunction,ComponentPad*%
%ADD13C,2.250000*%
%TD*%
%TA.AperFunction,ComponentPad*%
%ADD14C,1.600000*%
%TD*%
%TA.AperFunction,ComponentPad*%
%ADD15R,2.300000X2.000000*%
%TD*%
%TA.AperFunction,ComponentPad*%
%ADD16C,2.300000*%
%TD*%
%TA.AperFunction,ComponentPad*%
%ADD17C,1.700000*%
%TD*%
%TA.AperFunction,ComponentPad*%
%ADD18O,1.700000X1.700000*%
%TD*%
%TA.AperFunction,ViaPad*%
%ADD19C,0.800000*%
%TD*%
%TA.AperFunction,Conductor*%
%ADD20C,0.500000*%
%TD*%
%TA.AperFunction,Conductor*%
%ADD21C,1.800000*%
%TD*%
%TA.AperFunction,Conductor*%
%ADD22C,0.250000*%
%TD*%
G04 APERTURE END LIST*
D10*
%TO.P,L3,1,1*%
%TO.N,/N*%
X109400000Y-59600000D03*
%TO.P,L3,2,2*%
%TO.N,Net-(L3-Pad2)*%
X109400000Y-66800000D03*
%TO.P,L3,3,3*%
%TO.N,GND*%
X125900000Y-59600000D03*
%TO.P,L3,4,4*%
%TO.N,Net-(L3-Pad4)*%
X125900000Y-66800000D03*
%TD*%
D11*
%TO.P,J2,1,Pin_1*%
%TO.N,/CT1*%
X111142500Y-75687500D03*
D12*
%TO.P,J2,2,Pin_2*%
%TO.N,/CT2*%
X111142500Y-71877500D03*
%TD*%
D10*
%TO.P,F1,1*%
%TO.N,Net-(J1-Pin_2)*%
X112460000Y-38930000D03*
%TO.P,F1,2*%
%TO.N,/L*%
X117540000Y-38940000D03*
%TD*%
D13*
%TO.P,L1,1,1*%
%TO.N,/CT1*%
X122700000Y-79630000D03*
%TO.P,L1,2,2*%
%TO.N,/CT2*%
X118700000Y-70130000D03*
D14*
%TO.P,L1,3,3*%
%TO.N,GND*%
X131700000Y-70630000D03*
%TO.P,L1,4,4*%
%TO.N,Net-(L1-Pad4)*%
X131700000Y-79130000D03*
%TD*%
D15*
%TO.P,PS1,1,AC/L*%
%TO.N,/L*%
X122437500Y-44430000D03*
D16*
%TO.P,PS1,2,AC/N*%
%TO.N,/N*%
X122437500Y-49430000D03*
%TO.P,PS1,3,-Vout*%
%TO.N,GND*%
X151837500Y-39230000D03*
%TO.P,PS1,4,+Vout*%
%TO.N,+5V*%
X151837500Y-54630000D03*
%TD*%
D11*
%TO.P,J1,1,Pin_1*%
%TO.N,/N*%
X111142500Y-48740000D03*
D12*
%TO.P,J1,2,Pin_2*%
%TO.N,Net-(J1-Pin_2)*%
X111142500Y-44930000D03*
%TD*%
D14*
%TO.P,RV1,1*%
%TO.N,/L*%
X118120000Y-44430000D03*
%TO.P,RV1,2*%
%TO.N,/N*%
X116220000Y-49430000D03*
%TD*%
D17*
%TO.P,J3,1,Pin_1*%
%TO.N,+5V*%
X151837500Y-52005000D03*
D18*
%TO.P,J3,2,Pin_2*%
%TO.N,Net-(J3-Pin_2)*%
X151837500Y-49465000D03*
%TO.P,J3,3,Pin_3*%
%TO.N,/TX*%
X151837500Y-46925000D03*
%TO.P,J3,4,Pin_4*%
%TO.N,Net-(J3-Pin_4)*%
X151837500Y-44385000D03*
%TO.P,J3,5,Pin_5*%
%TO.N,GND*%
X151837500Y-41845000D03*
%TD*%
D19*
%TO.N,GND*%
X134000000Y-68700000D03*
X142400000Y-75400000D03*
X138800000Y-75400000D03*
%TO.N,+5V*%
X135370000Y-58460000D03*
%TO.N,GND*%
X161610000Y-39390000D03*
X134000000Y-66700000D03*
X160360000Y-54380000D03*
X160340000Y-39390000D03*
X131600000Y-60600000D03*
X140750000Y-49990000D03*
X153430000Y-74230000D03*
X139480000Y-49990000D03*
X154700000Y-75500000D03*
X139480000Y-48720000D03*
X140750000Y-48720000D03*
X131600000Y-61870000D03*
X130330000Y-61870000D03*
X141800000Y-66600000D03*
X153430000Y-75500000D03*
X130330000Y-60600000D03*
X154700000Y-74230000D03*
X159090000Y-54380000D03*
%TO.N,+3V3*%
X158000000Y-41900000D03*
X158000000Y-40950000D03*
X157000000Y-41900000D03*
X162260000Y-58590000D03*
X157000000Y-40950000D03*
%TO.N,/TX*%
X155950000Y-59630000D03*
%TO.N,Net-(J3-Pin_4)*%
X157530000Y-59630000D03*
%TD*%
D20*
%TO.N,+5V*%
X139200000Y-54630000D02*
X151837500Y-54630000D01*
X135370000Y-58460000D02*
X139200000Y-54630000D01*
%TO.N,+3V3*%
X162260000Y-43710000D02*
X160450000Y-41900000D01*
X160450000Y-41900000D02*
X158000000Y-41900000D01*
X162260000Y-58590000D02*
X162260000Y-43710000D01*
%TO.N,/N*%
X111142500Y-57857500D02*
X111142500Y-48740000D01*
X109400000Y-59600000D02*
X111142500Y-57857500D01*
D21*
X115530000Y-48740000D02*
X111142500Y-48740000D01*
X116220000Y-49430000D02*
X115530000Y-48740000D01*
X116220000Y-49430000D02*
X122437500Y-49430000D01*
%TO.N,/CT1*%
X111142500Y-75687500D02*
X118757500Y-75687500D01*
X118757500Y-75687500D02*
X122700000Y-79630000D01*
%TO.N,/CT2*%
X111142500Y-71877500D02*
X116952500Y-71877500D01*
X116952500Y-71877500D02*
X118700000Y-70130000D01*
D22*
%TO.N,/TX*%
X153488604Y-46925000D02*
X151837500Y-46925000D01*
X155950000Y-59630000D02*
X156550000Y-59030000D01*
X156550000Y-49986396D02*
X153488604Y-46925000D01*
X156550000Y-59030000D02*
X156550000Y-49986396D01*
%TO.N,Net-(J3-Pin_4)*%
X157000000Y-59100000D02*
X157000000Y-49800000D01*
X157530000Y-59630000D02*
X157000000Y-59100000D01*
X157000000Y-49800000D02*
X151837500Y-44637500D01*
X151837500Y-44637500D02*
X151837500Y-44385000D01*
%TD*%
%TA.AperFunction,Conductor*%
%TO.N,+3V3*%
G36*
X159304031Y-40500530D02*
G01*
X159395879Y-40512622D01*
X159413223Y-40514906D01*
X159444491Y-40523284D01*
X159534918Y-40560740D01*
X159562952Y-40576925D01*
X159640602Y-40636509D01*
X159663491Y-40659398D01*
X159723074Y-40737048D01*
X159739259Y-40765081D01*
X159776715Y-40855508D01*
X159785093Y-40886775D01*
X159799469Y-40995964D01*
X159800000Y-41004065D01*
X159800000Y-41695934D01*
X159799469Y-41704035D01*
X159785093Y-41813224D01*
X159776715Y-41844491D01*
X159739259Y-41934918D01*
X159723074Y-41962951D01*
X159663491Y-42040601D01*
X159640601Y-42063491D01*
X159562951Y-42123074D01*
X159534918Y-42139259D01*
X159444491Y-42176715D01*
X159413224Y-42185093D01*
X159324783Y-42196737D01*
X159304031Y-42199469D01*
X159295934Y-42200000D01*
X158600000Y-42200000D01*
X158600000Y-42700000D01*
X158600000Y-42700006D01*
X158600000Y-43695934D01*
X158599469Y-43704035D01*
X158585093Y-43813224D01*
X158576715Y-43844491D01*
X158539259Y-43934918D01*
X158523074Y-43962951D01*
X158463491Y-44040601D01*
X158440601Y-44063491D01*
X158362951Y-44123074D01*
X158334918Y-44139259D01*
X158244491Y-44176715D01*
X158213224Y-44185093D01*
X158124783Y-44196737D01*
X158104031Y-44199469D01*
X158095934Y-44200000D01*
X157054066Y-44200000D01*
X157045968Y-44199469D01*
X157022457Y-44196374D01*
X156936775Y-44185093D01*
X156905508Y-44176715D01*
X156815081Y-44139259D01*
X156787048Y-44123074D01*
X156709398Y-44063491D01*
X156686508Y-44040601D01*
X156626925Y-43962951D01*
X156610740Y-43934918D01*
X156573284Y-43844491D01*
X156564906Y-43813223D01*
X156550531Y-43704035D01*
X156550000Y-43695933D01*
X156550000Y-41004066D01*
X156550531Y-40995964D01*
X156564906Y-40886776D01*
X156573284Y-40855508D01*
X156610740Y-40765081D01*
X156626923Y-40737050D01*
X156686513Y-40659392D01*
X156709392Y-40636513D01*
X156787050Y-40576923D01*
X156815079Y-40560740D01*
X156905509Y-40523283D01*
X156936775Y-40514906D01*
X157045967Y-40500530D01*
X157054067Y-40500000D01*
X159295933Y-40500000D01*
X159304031Y-40500530D01*
G37*
%TD.AperFunction*%
%TD*%
%TA.AperFunction,Conductor*%
%TO.N,GND*%
G36*
X164942539Y-35520185D02*
G01*
X164988294Y-35572989D01*
X164999500Y-35624500D01*
X164999500Y-76686000D01*
X164979815Y-76753039D01*
X164927011Y-76798794D01*
X164875500Y-76810000D01*
X136124000Y-76810000D01*
X136056961Y-76790315D01*
X136011206Y-76737511D01*
X136000000Y-76686000D01*
X136000000Y-69300000D01*
X128524000Y-69300000D01*
X128456961Y-69280315D01*
X128411206Y-69227511D01*
X128400000Y-69176000D01*
X128400000Y-58460000D01*
X134464540Y-58460000D01*
X134484326Y-58648256D01*
X134484327Y-58648259D01*
X134542818Y-58828277D01*
X134542821Y-58828284D01*
X134637467Y-58992216D01*
X134748311Y-59115320D01*
X134764129Y-59132888D01*
X134917265Y-59244148D01*
X134917270Y-59244151D01*
X135090192Y-59321142D01*
X135090197Y-59321144D01*
X135275354Y-59360500D01*
X135275355Y-59360500D01*
X135464644Y-59360500D01*
X135464646Y-59360500D01*
X135649803Y-59321144D01*
X135822730Y-59244151D01*
X135975871Y-59132888D01*
X136102533Y-58992216D01*
X136143589Y-58921102D01*
X136146087Y-58917134D01*
X136511935Y-58382432D01*
X136526583Y-58364783D01*
X139474548Y-55416819D01*
X139535872Y-55383334D01*
X139562230Y-55380500D01*
X149535412Y-55380500D01*
X149588487Y-55392433D01*
X150264418Y-55712557D01*
X151036391Y-56078168D01*
X151036405Y-56078174D01*
X151036407Y-56078175D01*
X151051018Y-56084513D01*
X151058750Y-56088533D01*
X151085872Y-56105154D01*
X151325890Y-56204573D01*
X151578506Y-56265221D01*
X151837500Y-56285604D01*
X152096494Y-56265221D01*
X152349110Y-56204573D01*
X152589128Y-56105154D01*
X152810640Y-55969412D01*
X153008189Y-55800689D01*
X153176912Y-55603140D01*
X153312654Y-55381628D01*
X153412073Y-55141610D01*
X153472721Y-54888994D01*
X153493104Y-54630000D01*
X153472721Y-54371006D01*
X153412073Y-54118390D01*
X153319442Y-53894759D01*
X153312656Y-53878376D01*
X153310410Y-53874711D01*
X153176912Y-53656860D01*
X153008189Y-53459311D01*
X152877579Y-53347759D01*
X152810637Y-53290585D01*
X152810634Y-53290584D01*
X152728465Y-53240230D01*
X152681590Y-53188418D01*
X152670167Y-53119488D01*
X152697825Y-53055326D01*
X152705574Y-53046822D01*
X152716863Y-53035533D01*
X152875995Y-52876401D01*
X153011535Y-52682830D01*
X153111403Y-52468663D01*
X153172563Y-52240408D01*
X153193159Y-52005000D01*
X153172563Y-51769592D01*
X153111403Y-51541337D01*
X153011535Y-51327171D01*
X152875995Y-51133599D01*
X152875994Y-51133597D01*
X152708902Y-50966506D01*
X152708901Y-50966505D01*
X152523342Y-50836575D01*
X152523341Y-50836574D01*
X152479716Y-50781997D01*
X152472524Y-50712498D01*
X152504046Y-50650144D01*
X152523336Y-50633428D01*
X152708901Y-50503495D01*
X152875995Y-50336401D01*
X153011535Y-50142830D01*
X153111403Y-49928663D01*
X153172563Y-49700408D01*
X153193159Y-49465000D01*
X153172563Y-49229592D01*
X153111403Y-49001337D01*
X153011535Y-48787171D01*
X152875995Y-48593599D01*
X152875994Y-48593597D01*
X152708902Y-48426506D01*
X152708896Y-48426501D01*
X152523542Y-48296715D01*
X152479917Y-48242138D01*
X152472723Y-48172640D01*
X152504246Y-48110285D01*
X152537395Y-48085158D01*
X153263463Y-47707094D01*
X153332014Y-47693593D01*
X153396984Y-47719296D01*
X153408411Y-47729397D01*
X155888182Y-50209168D01*
X155921666Y-50270489D01*
X155924500Y-50296847D01*
X155924500Y-58568181D01*
X155904815Y-58635220D01*
X155852011Y-58680975D01*
X155851514Y-58681201D01*
X155599279Y-58795050D01*
X155558536Y-58815705D01*
X155553610Y-58818816D01*
X155553294Y-58818316D01*
X155536200Y-58828515D01*
X155497271Y-58845847D01*
X155497267Y-58845849D01*
X155344129Y-58957111D01*
X155217466Y-59097785D01*
X155122821Y-59261715D01*
X155122818Y-59261722D01*
X155086289Y-59374148D01*
X155064326Y-59441744D01*
X155044540Y-59630000D01*
X155064326Y-59818256D01*
X155064327Y-59818259D01*
X155122818Y-59998277D01*
X155122821Y-59998284D01*
X155217467Y-60162216D01*
X155252150Y-60200735D01*
X155344129Y-60302888D01*
X155497265Y-60414148D01*
X155497270Y-60414151D01*
X155670192Y-60491142D01*
X155670197Y-60491144D01*
X155855354Y-60530500D01*
X155855355Y-60530500D01*
X156044644Y-60530500D01*
X156044646Y-60530500D01*
X156229803Y-60491144D01*
X156402730Y-60414151D01*
X156555871Y-60302888D01*
X156647850Y-60200734D01*
X156707337Y-60164086D01*
X156777194Y-60165417D01*
X156832150Y-60200735D01*
X156924129Y-60302888D01*
X157077265Y-60414148D01*
X157077270Y-60414151D01*
X157250192Y-60491142D01*
X157250197Y-60491144D01*
X157435354Y-60530500D01*
X157435355Y-60530500D01*
X157624644Y-60530500D01*
X157624646Y-60530500D01*
X157809803Y-60491144D01*
X157982730Y-60414151D01*
X158135871Y-60302888D01*
X158262533Y-60162216D01*
X158357179Y-59998284D01*
X158415674Y-59818256D01*
X158435460Y-59630000D01*
X158415674Y-59441744D01*
X158357179Y-59261716D01*
X158262533Y-59097784D01*
X158135871Y-58957112D01*
X158086342Y-58921127D01*
X157982730Y-58845848D01*
X157887179Y-58803306D01*
X157882451Y-58800955D01*
X157866087Y-58791927D01*
X157850497Y-58783326D01*
X157705662Y-58728588D01*
X157649911Y-58686475D01*
X157625779Y-58620905D01*
X157625500Y-58612596D01*
X157625500Y-49882742D01*
X157627224Y-49867122D01*
X157626939Y-49867095D01*
X157627673Y-49859333D01*
X157625531Y-49791139D01*
X157625500Y-49789192D01*
X157625500Y-49760656D01*
X157625500Y-49760650D01*
X157624631Y-49753779D01*
X157624173Y-49747952D01*
X157622710Y-49701373D01*
X157617119Y-49682130D01*
X157613173Y-49663078D01*
X157610664Y-49643208D01*
X157593504Y-49599867D01*
X157591624Y-49594379D01*
X157578618Y-49549610D01*
X157568419Y-49532364D01*
X157559858Y-49514888D01*
X157552487Y-49496270D01*
X157552486Y-49496268D01*
X157525090Y-49458560D01*
X157521892Y-49453691D01*
X157498173Y-49413583D01*
X157498166Y-49413574D01*
X157484005Y-49399413D01*
X157471370Y-49384620D01*
X157459593Y-49368412D01*
X157423693Y-49338713D01*
X157419381Y-49334790D01*
X153464054Y-45379463D01*
X153430884Y-45319547D01*
X153179955Y-44227262D01*
X153178616Y-44218781D01*
X153172563Y-44149592D01*
X153113209Y-43928078D01*
X153111405Y-43921344D01*
X153111402Y-43921335D01*
X153099409Y-43895617D01*
X153076484Y-43846454D01*
X153075671Y-43844632D01*
X153069237Y-43829572D01*
X153069235Y-43829569D01*
X153067296Y-43826203D01*
X153064825Y-43821452D01*
X153042560Y-43773705D01*
X153011535Y-43707171D01*
X153009458Y-43704204D01*
X156044500Y-43704204D01*
X156045041Y-43720738D01*
X156045042Y-43720756D01*
X156045043Y-43720781D01*
X156046652Y-43745322D01*
X156046654Y-43745349D01*
X156048276Y-43761815D01*
X156048277Y-43761822D01*
X156065891Y-43895610D01*
X156072343Y-43928051D01*
X156072349Y-43928078D01*
X156089286Y-43991292D01*
X156089296Y-43991323D01*
X156099925Y-44022636D01*
X156099933Y-44022656D01*
X156150050Y-44143649D01*
X156164691Y-44173338D01*
X156197424Y-44230035D01*
X156197438Y-44230056D01*
X156215807Y-44257547D01*
X156215813Y-44257556D01*
X156295542Y-44361459D01*
X156295557Y-44361476D01*
X156317367Y-44386346D01*
X156363652Y-44432631D01*
X156388522Y-44454441D01*
X156388539Y-44454456D01*
X156492442Y-44534185D01*
X156492451Y-44534191D01*
X156519942Y-44552560D01*
X156519963Y-44552574D01*
X156519965Y-44552575D01*
X156576661Y-44585308D01*
X156606346Y-44599947D01*
X156727350Y-44650069D01*
X156727360Y-44650073D01*
X156727370Y-44650076D01*
X156758670Y-44660701D01*
X156758681Y-44660704D01*
X156758690Y-44660707D01*
X156821926Y-44677651D01*
X156854386Y-44684108D01*
X156988183Y-44701723D01*
X156988214Y-44701726D01*
X156988222Y-44701727D01*
X156998294Y-44702719D01*
X157004641Y-44703345D01*
X157011684Y-44703806D01*
X157029215Y-44704956D01*
X157029227Y-44704956D01*
X157029248Y-44704958D01*
X157045790Y-44705500D01*
X157045805Y-44705500D01*
X158104195Y-44705500D01*
X158104211Y-44705500D01*
X158120755Y-44704958D01*
X158120787Y-44704955D01*
X158120807Y-44704955D01*
X158131037Y-44704283D01*
X158145361Y-44703344D01*
X158161817Y-44701723D01*
X158295613Y-44684108D01*
X158328073Y-44677651D01*
X158391309Y-44660707D01*
X158391321Y-44660702D01*
X158391328Y-44660701D01*
X158422628Y-44650076D01*
X158422638Y-44650073D01*
X158422641Y-44650071D01*
X158422649Y-44650069D01*
X158543653Y-44599947D01*
X158573338Y-44585308D01*
X158630034Y-44552575D01*
X158657552Y-44534188D01*
X158761459Y-44454457D01*
X158786342Y-44432635D01*
X158832635Y-44386342D01*
X158854457Y-44361459D01*
X158934188Y-44257552D01*
X158952575Y-44230034D01*
X158985308Y-44173338D01*
X158999947Y-44143653D01*
X159050069Y-44022649D01*
X159050074Y-44022636D01*
X159050076Y-44022628D01*
X159060701Y-43991328D01*
X159060702Y-43991322D01*
X159060707Y-43991309D01*
X159077651Y-43928074D01*
X159084108Y-43895615D01*
X159101724Y-43761819D01*
X159103345Y-43745353D01*
X159104959Y-43720743D01*
X159105500Y-43704206D01*
X159105500Y-42829499D01*
X159125185Y-42762461D01*
X159177989Y-42716706D01*
X159229500Y-42705500D01*
X159304195Y-42705500D01*
X159304211Y-42705500D01*
X159320755Y-42704958D01*
X159320787Y-42704955D01*
X159320807Y-42704955D01*
X159331037Y-42704283D01*
X159345361Y-42703344D01*
X159361817Y-42701723D01*
X159495613Y-42684108D01*
X159528073Y-42677651D01*
X159591309Y-42660707D01*
X159601994Y-42657079D01*
X159641851Y-42650500D01*
X160087770Y-42650500D01*
X160154809Y-42670185D01*
X160175451Y-42686819D01*
X161473181Y-43984548D01*
X161506666Y-44045871D01*
X161509500Y-44072229D01*
X161509500Y-57704823D01*
X161507376Y-57727675D01*
X161390817Y-58349322D01*
X161388843Y-58357061D01*
X161374326Y-58401743D01*
X161374325Y-58401746D01*
X161366088Y-58480114D01*
X161365367Y-58485049D01*
X161363619Y-58494376D01*
X161363613Y-58494413D01*
X161360397Y-58517312D01*
X161360395Y-58517328D01*
X161359111Y-58530977D01*
X161359110Y-58530997D01*
X161359172Y-58542327D01*
X161358833Y-58549144D01*
X161356833Y-58568181D01*
X161354540Y-58590000D01*
X161374326Y-58778256D01*
X161374327Y-58778259D01*
X161432818Y-58958277D01*
X161432821Y-58958284D01*
X161527467Y-59122216D01*
X161637255Y-59244148D01*
X161654129Y-59262888D01*
X161807265Y-59374148D01*
X161807270Y-59374151D01*
X161980192Y-59451142D01*
X161980197Y-59451144D01*
X162165354Y-59490500D01*
X162165355Y-59490500D01*
X162354644Y-59490500D01*
X162354646Y-59490500D01*
X162539803Y-59451144D01*
X162712730Y-59374151D01*
X162865871Y-59262888D01*
X162992533Y-59122216D01*
X163087179Y-58958284D01*
X163145674Y-58778256D01*
X163165460Y-58590000D01*
X163155412Y-58494400D01*
X163154479Y-58485522D01*
X163154378Y-58484141D01*
X163153825Y-58479307D01*
X163145674Y-58401744D01*
X163136311Y-58372929D01*
X163131152Y-58357053D01*
X163129182Y-58349328D01*
X163012624Y-57727675D01*
X163010500Y-57704826D01*
X163010500Y-43773705D01*
X163011809Y-43755736D01*
X163015289Y-43731974D01*
X163010736Y-43679934D01*
X163010500Y-43674528D01*
X163010500Y-43666296D01*
X163010500Y-43666291D01*
X163006795Y-43634602D01*
X163006618Y-43632876D01*
X162999999Y-43557203D01*
X162999999Y-43557201D01*
X162998539Y-43550129D01*
X162998597Y-43550116D01*
X162996965Y-43542757D01*
X162996906Y-43542772D01*
X162995241Y-43535751D01*
X162995241Y-43535745D01*
X162969267Y-43464382D01*
X162968691Y-43462723D01*
X162944814Y-43390666D01*
X162944810Y-43390659D01*
X162941760Y-43384118D01*
X162941815Y-43384091D01*
X162938533Y-43377313D01*
X162938480Y-43377340D01*
X162935236Y-43370881D01*
X162893529Y-43307470D01*
X162892560Y-43305949D01*
X162852710Y-43241342D01*
X162848234Y-43235682D01*
X162848281Y-43235644D01*
X162843519Y-43229799D01*
X162843473Y-43229838D01*
X162838835Y-43224312D01*
X162838830Y-43224304D01*
X162783585Y-43172182D01*
X162782359Y-43170991D01*
X161025728Y-41414360D01*
X161013949Y-41400730D01*
X161006482Y-41390701D01*
X160999612Y-41381472D01*
X160999610Y-41381470D01*
X160959587Y-41347886D01*
X160955612Y-41344244D01*
X160952690Y-41341322D01*
X160949779Y-41338410D01*
X160924736Y-41318609D01*
X160923338Y-41317470D01*
X160865214Y-41268698D01*
X160859180Y-41264729D01*
X160859212Y-41264680D01*
X160852853Y-41260628D01*
X160852822Y-41260679D01*
X160846680Y-41256891D01*
X160846678Y-41256890D01*
X160846677Y-41256889D01*
X160777872Y-41224804D01*
X160776252Y-41224019D01*
X160736512Y-41204061D01*
X160708433Y-41189960D01*
X160708431Y-41189959D01*
X160708430Y-41189959D01*
X160701645Y-41187489D01*
X160701665Y-41187433D01*
X160694549Y-41184959D01*
X160694531Y-41185015D01*
X160687674Y-41182743D01*
X160613328Y-41167391D01*
X160611569Y-41167001D01*
X160537718Y-41149499D01*
X160530547Y-41148661D01*
X160530553Y-41148601D01*
X160523055Y-41147835D01*
X160523050Y-41147895D01*
X160515860Y-41147265D01*
X160439968Y-41149474D01*
X160438165Y-41149500D01*
X160429500Y-41149500D01*
X160362461Y-41129815D01*
X160316706Y-41077011D01*
X160305500Y-41025500D01*
X160305500Y-40995814D01*
X160305500Y-40995793D01*
X160304959Y-40979256D01*
X160303345Y-40954646D01*
X160301724Y-40938180D01*
X160284108Y-40804384D01*
X160277651Y-40771925D01*
X160260707Y-40708690D01*
X160260703Y-40708680D01*
X160260701Y-40708670D01*
X160250076Y-40677370D01*
X160250073Y-40677360D01*
X160227280Y-40622334D01*
X160199947Y-40556346D01*
X160185308Y-40526661D01*
X160152575Y-40469965D01*
X160134191Y-40442451D01*
X160134185Y-40442442D01*
X160054456Y-40338539D01*
X160054441Y-40338522D01*
X160032631Y-40313652D01*
X159986340Y-40267362D01*
X159961464Y-40245546D01*
X159857558Y-40165814D01*
X159857556Y-40165813D01*
X159830045Y-40147431D01*
X159830030Y-40147421D01*
X159773333Y-40114688D01*
X159743643Y-40100046D01*
X159622669Y-40049938D01*
X159622662Y-40049935D01*
X159622651Y-40049931D01*
X159622648Y-40049930D01*
X159616436Y-40047821D01*
X159591306Y-40039290D01*
X159528059Y-40022344D01*
X159495612Y-40015891D01*
X159361816Y-39998275D01*
X159361784Y-39998271D01*
X159345320Y-39996650D01*
X159345304Y-39996649D01*
X159320723Y-39995040D01*
X159304210Y-39994500D01*
X159304193Y-39994500D01*
X157045809Y-39994500D01*
X157045780Y-39994500D01*
X157029309Y-39995038D01*
X157004712Y-39996648D01*
X156988199Y-39998273D01*
X156988170Y-39998276D01*
X156854390Y-40015890D01*
X156821931Y-40022346D01*
X156821919Y-40022349D01*
X156758694Y-40039289D01*
X156727348Y-40049930D01*
X156727346Y-40049931D01*
X156606340Y-40100053D01*
X156576651Y-40114694D01*
X156519974Y-40147417D01*
X156492448Y-40165809D01*
X156388522Y-40245556D01*
X156363653Y-40267366D01*
X156317366Y-40313653D01*
X156295556Y-40338522D01*
X156215801Y-40442459D01*
X156197432Y-40469951D01*
X156197410Y-40469986D01*
X156164693Y-40526656D01*
X156150049Y-40556351D01*
X156099933Y-40677340D01*
X156099932Y-40677345D01*
X156089293Y-40708685D01*
X156089286Y-40708706D01*
X156072349Y-40771920D01*
X156072343Y-40771947D01*
X156065892Y-40804384D01*
X156065891Y-40804389D01*
X156048276Y-40938184D01*
X156046654Y-40954650D01*
X156046652Y-40954676D01*
X156046651Y-40954676D01*
X156045043Y-40979217D01*
X156045042Y-40979243D01*
X156045041Y-40979261D01*
X156044500Y-40995795D01*
X156044500Y-43704204D01*
X153009458Y-43704204D01*
X152875994Y-43513597D01*
X152708902Y-43346506D01*
X152708901Y-43346505D01*
X152522905Y-43216269D01*
X152479281Y-43161692D01*
X152472088Y-43092193D01*
X152503610Y-43029839D01*
X152522905Y-43013119D01*
X152708582Y-42883105D01*
X152875605Y-42716082D01*
X153011100Y-42522578D01*
X153110929Y-42308492D01*
X153110932Y-42308486D01*
X153168136Y-42095000D01*
X152271186Y-42095000D01*
X152296993Y-42054844D01*
X152337500Y-41916889D01*
X152337500Y-41773111D01*
X152296993Y-41635156D01*
X152271186Y-41595000D01*
X153168136Y-41595000D01*
X153168135Y-41594999D01*
X153110932Y-41381513D01*
X153110929Y-41381507D01*
X153011100Y-41167422D01*
X153011099Y-41167420D01*
X152875613Y-40973926D01*
X152875608Y-40973920D01*
X152710970Y-40809282D01*
X152677485Y-40747959D01*
X152682469Y-40678267D01*
X152724341Y-40622334D01*
X152733862Y-40615873D01*
X152810346Y-40569004D01*
X152817144Y-40563197D01*
X151970033Y-39716086D01*
X151979815Y-39714680D01*
X152110600Y-39654952D01*
X152219261Y-39560798D01*
X152296993Y-39439844D01*
X152320576Y-39359523D01*
X153170697Y-40209644D01*
X153176505Y-40202844D01*
X153312207Y-39981400D01*
X153312209Y-39981397D01*
X153411593Y-39741462D01*
X153411598Y-39741445D01*
X153472225Y-39488912D01*
X153492601Y-39230000D01*
X153472225Y-38971087D01*
X153411598Y-38718554D01*
X153411593Y-38718537D01*
X153312209Y-38478602D01*
X153312207Y-38478599D01*
X153176507Y-38257157D01*
X153170697Y-38250354D01*
X152320576Y-39100475D01*
X152296993Y-39020156D01*
X152219261Y-38899202D01*
X152110600Y-38805048D01*
X151979815Y-38745320D01*
X151970034Y-38743913D01*
X152817145Y-37896801D01*
X152810343Y-37890993D01*
X152810342Y-37890992D01*
X152588900Y-37755292D01*
X152588897Y-37755290D01*
X152348962Y-37655906D01*
X152348945Y-37655901D01*
X152096411Y-37595274D01*
X152096412Y-37595274D01*
X151837500Y-37574898D01*
X151578587Y-37595274D01*
X151326054Y-37655901D01*
X151326037Y-37655906D01*
X151086102Y-37755290D01*
X151086099Y-37755292D01*
X150864655Y-37890993D01*
X150857853Y-37896800D01*
X151704966Y-38743913D01*
X151695185Y-38745320D01*
X151564400Y-38805048D01*
X151455739Y-38899202D01*
X151378007Y-39020156D01*
X151354423Y-39100476D01*
X150504300Y-38250353D01*
X150498493Y-38257155D01*
X150362792Y-38478599D01*
X150362790Y-38478602D01*
X150263406Y-38718537D01*
X150263401Y-38718554D01*
X150202774Y-38971087D01*
X150182398Y-39230000D01*
X150202774Y-39488912D01*
X150263401Y-39741445D01*
X150263406Y-39741462D01*
X150362790Y-39981397D01*
X150362792Y-39981400D01*
X150498492Y-40202842D01*
X150498493Y-40202843D01*
X150504301Y-40209644D01*
X151354422Y-39359523D01*
X151378007Y-39439844D01*
X151455739Y-39560798D01*
X151564400Y-39654952D01*
X151695185Y-39714680D01*
X151704966Y-39716086D01*
X150857854Y-40563197D01*
X150864657Y-40569007D01*
X150941137Y-40615875D01*
X150988012Y-40667687D01*
X150999435Y-40736617D01*
X150971777Y-40800779D01*
X150964029Y-40809283D01*
X150799386Y-40973926D01*
X150663900Y-41167420D01*
X150663899Y-41167422D01*
X150564070Y-41381507D01*
X150564067Y-41381513D01*
X150506864Y-41594999D01*
X150506864Y-41595000D01*
X151403814Y-41595000D01*
X151378007Y-41635156D01*
X151337500Y-41773111D01*
X151337500Y-41916889D01*
X151378007Y-42054844D01*
X151403814Y-42095000D01*
X150506864Y-42095000D01*
X150564067Y-42308486D01*
X150564070Y-42308492D01*
X150663899Y-42522578D01*
X150799394Y-42716082D01*
X150966417Y-42883105D01*
X151152095Y-43013119D01*
X151195719Y-43067696D01*
X151202912Y-43137195D01*
X151171390Y-43199549D01*
X151152095Y-43216269D01*
X150966094Y-43346508D01*
X150799005Y-43513597D01*
X150663465Y-43707169D01*
X150663464Y-43707171D01*
X150563598Y-43921335D01*
X150563594Y-43921344D01*
X150502438Y-44149586D01*
X150502436Y-44149596D01*
X150481841Y-44384999D01*
X150481841Y-44385000D01*
X150502436Y-44620403D01*
X150502438Y-44620413D01*
X150563594Y-44848655D01*
X150563596Y-44848659D01*
X150563597Y-44848663D01*
X150663464Y-45062829D01*
X150663465Y-45062830D01*
X150663467Y-45062834D01*
X150799001Y-45256395D01*
X150799006Y-45256402D01*
X150966097Y-45423493D01*
X150966103Y-45423498D01*
X151151658Y-45553425D01*
X151195283Y-45608002D01*
X151202477Y-45677500D01*
X151170954Y-45739855D01*
X151151658Y-45756575D01*
X150966097Y-45886505D01*
X150799005Y-46053597D01*
X150663465Y-46247169D01*
X150663464Y-46247171D01*
X150563598Y-46461335D01*
X150563594Y-46461344D01*
X150502438Y-46689586D01*
X150502436Y-46689596D01*
X150481841Y-46924999D01*
X150481841Y-46925000D01*
X150502436Y-47160403D01*
X150502438Y-47160413D01*
X150563594Y-47388655D01*
X150563596Y-47388659D01*
X150563597Y-47388663D01*
X150663465Y-47602829D01*
X150663465Y-47602830D01*
X150663467Y-47602834D01*
X150799001Y-47796395D01*
X150799006Y-47796402D01*
X150966097Y-47963493D01*
X150966103Y-47963498D01*
X151151658Y-48093425D01*
X151195283Y-48148002D01*
X151202477Y-48217500D01*
X151170954Y-48279855D01*
X151151658Y-48296575D01*
X150966097Y-48426505D01*
X150799005Y-48593597D01*
X150663465Y-48787169D01*
X150663464Y-48787171D01*
X150563598Y-49001335D01*
X150563594Y-49001344D01*
X150502438Y-49229586D01*
X150502436Y-49229596D01*
X150481841Y-49464999D01*
X150481841Y-49465000D01*
X150502436Y-49700403D01*
X150502438Y-49700413D01*
X150563594Y-49928655D01*
X150563596Y-49928659D01*
X150563597Y-49928663D01*
X150663464Y-50142830D01*
X150663465Y-50142830D01*
X150663467Y-50142834D01*
X150799001Y-50336395D01*
X150799006Y-50336402D01*
X150966097Y-50503493D01*
X150966103Y-50503498D01*
X151151658Y-50633425D01*
X151195283Y-50688002D01*
X151202477Y-50757500D01*
X151170954Y-50819855D01*
X151151658Y-50836575D01*
X150966097Y-50966505D01*
X150799005Y-51133597D01*
X150663465Y-51327169D01*
X150663464Y-51327171D01*
X150563598Y-51541335D01*
X150563594Y-51541344D01*
X150502438Y-51769586D01*
X150502436Y-51769596D01*
X150481841Y-52004999D01*
X150481841Y-52005000D01*
X150502436Y-52240403D01*
X150502438Y-52240413D01*
X150563594Y-52468655D01*
X150563596Y-52468659D01*
X150563597Y-52468663D01*
X150663464Y-52682830D01*
X150663465Y-52682830D01*
X150663467Y-52682834D01*
X150799001Y-52876395D01*
X150799006Y-52876402D01*
X150958137Y-53035533D01*
X150991622Y-53096856D01*
X150986638Y-53166548D01*
X150944766Y-53222481D01*
X150923534Y-53235279D01*
X149681920Y-53823315D01*
X149588485Y-53867567D01*
X149535409Y-53879500D01*
X139263705Y-53879500D01*
X139245735Y-53878191D01*
X139221972Y-53874710D01*
X139176533Y-53878686D01*
X139169931Y-53879264D01*
X139164530Y-53879500D01*
X139156283Y-53879500D01*
X139124606Y-53883202D01*
X139122832Y-53883384D01*
X139092390Y-53886047D01*
X139047198Y-53890001D01*
X139040132Y-53891460D01*
X139040120Y-53891404D01*
X139032763Y-53893035D01*
X139032777Y-53893092D01*
X139025740Y-53894760D01*
X138954385Y-53920729D01*
X138952685Y-53921320D01*
X138880668Y-53945185D01*
X138874126Y-53948236D01*
X138874101Y-53948183D01*
X138867308Y-53951471D01*
X138867334Y-53951523D01*
X138860880Y-53954764D01*
X138797468Y-53996470D01*
X138795948Y-53997439D01*
X138731348Y-54037285D01*
X138725683Y-54041765D01*
X138725647Y-54041719D01*
X138719798Y-54046484D01*
X138719835Y-54046528D01*
X138714309Y-54051164D01*
X138662213Y-54106381D01*
X138660957Y-54107674D01*
X135465231Y-57303399D01*
X135447571Y-57318056D01*
X134947680Y-57660087D01*
X134928104Y-57671025D01*
X134917270Y-57675849D01*
X134917267Y-57675851D01*
X134764130Y-57787110D01*
X134764127Y-57787112D01*
X134716770Y-57839708D01*
X134714781Y-57841815D01*
X134704317Y-57852397D01*
X134699400Y-57858745D01*
X134696459Y-57862265D01*
X134637468Y-57927782D01*
X134637464Y-57927787D01*
X134542821Y-58091715D01*
X134542818Y-58091722D01*
X134484327Y-58271740D01*
X134484326Y-58271744D01*
X134464540Y-58460000D01*
X128400000Y-58460000D01*
X128400000Y-35624500D01*
X128419685Y-35557461D01*
X128472489Y-35511706D01*
X128524000Y-35500500D01*
X164875500Y-35500500D01*
X164942539Y-35520185D01*
G37*
%TD.AperFunction*%
%TD*%
%TA.AperFunction,Conductor*%
%TO.N,+5V*%
G36*
X151267895Y-53643400D02*
G01*
X151835111Y-54624141D01*
X151836287Y-54633019D01*
X151835111Y-54635857D01*
X151267895Y-55616599D01*
X151260787Y-55622045D01*
X151252759Y-55621315D01*
X149694192Y-54883169D01*
X149688182Y-54876531D01*
X149687500Y-54872595D01*
X149687500Y-54387404D01*
X149690927Y-54379131D01*
X149694189Y-54376831D01*
X151252759Y-53638683D01*
X151261703Y-53638240D01*
X151267895Y-53643400D01*
G37*
%TD.AperFunction*%
%TD*%
%TA.AperFunction,Conductor*%
%TO.N,+5V*%
G36*
X135765775Y-57724404D02*
G01*
X136105595Y-58064224D01*
X136109022Y-58072497D01*
X136106978Y-58079104D01*
X135660783Y-58731237D01*
X135653283Y-58736130D01*
X135644520Y-58734286D01*
X135642875Y-58732924D01*
X135369272Y-58460686D01*
X135097075Y-58187124D01*
X135093669Y-58178843D01*
X135097117Y-58170578D01*
X135098756Y-58169220D01*
X135750895Y-57723020D01*
X135759658Y-57721177D01*
X135765775Y-57724404D01*
G37*
%TD.AperFunction*%
%TD*%
%TA.AperFunction,Conductor*%
%TO.N,+3V3*%
G36*
X162508563Y-57793427D02*
G01*
X162511790Y-57799544D01*
X162657408Y-58576179D01*
X162655564Y-58584942D01*
X162648064Y-58589835D01*
X162645937Y-58590035D01*
X162260000Y-58590999D01*
X161874062Y-58590035D01*
X161865797Y-58586587D01*
X161862391Y-58578306D01*
X161862591Y-58576179D01*
X162008210Y-57799544D01*
X162013103Y-57792044D01*
X162019710Y-57790000D01*
X162500290Y-57790000D01*
X162508563Y-57793427D01*
G37*
%TD.AperFunction*%
%TD*%
%TA.AperFunction,Conductor*%
%TO.N,/N*%
G36*
X111150769Y-48747278D02*
G01*
X111150778Y-48747287D01*
X112035462Y-49632954D01*
X112038884Y-49641229D01*
X112036669Y-49648073D01*
X111396003Y-50535150D01*
X111388381Y-50539851D01*
X111386518Y-50540000D01*
X110898482Y-50540000D01*
X110890209Y-50536573D01*
X110888997Y-50535150D01*
X110248330Y-49648073D01*
X110246264Y-49639360D01*
X110249535Y-49632956D01*
X111134222Y-48747286D01*
X111142494Y-48743856D01*
X111150769Y-48747278D01*
G37*
%TD.AperFunction*%
%TD*%
%TA.AperFunction,Conductor*%
%TO.N,/N*%
G36*
X110639179Y-58011998D02*
G01*
X110642952Y-58014525D01*
X110985474Y-58357047D01*
X110988901Y-58365320D01*
X110988020Y-58369775D01*
X110328340Y-59971851D01*
X110322021Y-59978196D01*
X110313066Y-59978215D01*
X110313054Y-59978210D01*
X109403784Y-59602562D01*
X109397446Y-59596235D01*
X109397437Y-59596215D01*
X109021789Y-58686945D01*
X109021798Y-58677991D01*
X109028134Y-58671665D01*
X110630226Y-58011979D01*
X110639179Y-58011998D01*
G37*
%TD.AperFunction*%
%TD*%
%TA.AperFunction,Conductor*%
%TO.N,/N*%
G36*
X121874839Y-48433361D02*
G01*
X121877290Y-48436384D01*
X122214398Y-49033229D01*
X122435250Y-49424246D01*
X122436335Y-49433134D01*
X122435250Y-49435753D01*
X121877290Y-50423615D01*
X121870238Y-50429133D01*
X121866367Y-50429538D01*
X120298463Y-50330691D01*
X120290422Y-50326750D01*
X120287500Y-50319016D01*
X120287500Y-48540982D01*
X120290926Y-48532712D01*
X120298460Y-48529308D01*
X121866367Y-48430461D01*
X121874839Y-48433361D01*
G37*
%TD.AperFunction*%
%TD*%
%TA.AperFunction,Conductor*%
%TO.N,/CT1*%
G36*
X121851129Y-77507387D02*
G01*
X123063891Y-78580358D01*
X123067816Y-78588406D01*
X123067170Y-78593016D01*
X122702620Y-79625287D01*
X122696634Y-79631947D01*
X122695249Y-79632504D01*
X121644238Y-79978713D01*
X121635308Y-79978046D01*
X121631807Y-79975344D01*
X120577373Y-78781130D01*
X120574466Y-78772660D01*
X120577869Y-78765114D01*
X121835106Y-77507877D01*
X121843378Y-77504451D01*
X121851129Y-77507387D01*
G37*
%TD.AperFunction*%
%TD*%
%TA.AperFunction,Conductor*%
%TO.N,/CT2*%
G36*
X117644238Y-69781285D02*
G01*
X118695249Y-70127495D01*
X118702034Y-70133339D01*
X118702620Y-70134712D01*
X119067170Y-71166982D01*
X119066694Y-71175924D01*
X119063891Y-71179641D01*
X117851131Y-72252611D01*
X117842664Y-72255526D01*
X117835105Y-72252121D01*
X116577870Y-70994886D01*
X116574443Y-70986613D01*
X116577372Y-70978871D01*
X117631808Y-69784653D01*
X117639851Y-69780721D01*
X117644238Y-69781285D01*
G37*
%TD.AperFunction*%
%TD*%
%TA.AperFunction,Conductor*%
%TO.N,/TX*%
G36*
X152173241Y-46145018D02*
G01*
X152174024Y-46145378D01*
X153597135Y-46863900D01*
X153602976Y-46870688D01*
X153602306Y-46879617D01*
X153600135Y-46882617D01*
X153436063Y-47046690D01*
X153433194Y-47048794D01*
X152174102Y-47704403D01*
X152165181Y-47705185D01*
X152158321Y-47699430D01*
X152157891Y-47698508D01*
X151838652Y-46928777D01*
X151838649Y-46919825D01*
X152157948Y-46151332D01*
X152164286Y-46145009D01*
X152173241Y-46145018D01*
G37*
%TD.AperFunction*%
%TD*%
%TA.AperFunction,Conductor*%
%TO.N,/TX*%
G36*
X156433014Y-58981643D02*
G01*
X156598356Y-59146985D01*
X156601783Y-59155258D01*
X156600747Y-59160071D01*
X156324206Y-59772760D01*
X156317679Y-59778891D01*
X156309090Y-59778767D01*
X155953804Y-59632563D01*
X155947457Y-59626245D01*
X155947436Y-59626195D01*
X155801232Y-59270909D01*
X155801253Y-59261955D01*
X155807237Y-59255794D01*
X156419928Y-58979251D01*
X156428878Y-58978972D01*
X156433014Y-58981643D01*
G37*
%TD.AperFunction*%
%TD*%
%TA.AperFunction,Conductor*%
%TO.N,Net-(J3-Pin_4)*%
G36*
X157127000Y-59050288D02*
G01*
X157671791Y-59256184D01*
X157678318Y-59262313D01*
X157678598Y-59271263D01*
X157678468Y-59271594D01*
X157531858Y-59626500D01*
X157525532Y-59632838D01*
X157525496Y-59632853D01*
X157171478Y-59778533D01*
X157162524Y-59778512D01*
X157156206Y-59772165D01*
X157156122Y-59771956D01*
X156881204Y-59065475D01*
X156881398Y-59056522D01*
X156887865Y-59050328D01*
X156892108Y-59049532D01*
X157122864Y-59049532D01*
X157127000Y-59050288D01*
G37*
%TD.AperFunction*%
%TD*%
%TA.AperFunction,Conductor*%
%TO.N,Net-(J3-Pin_4)*%
G36*
X152618978Y-44065003D02*
G01*
X152625303Y-44071342D01*
X152625892Y-44073188D01*
X152975156Y-45593517D01*
X152973668Y-45602348D01*
X152972026Y-45604410D01*
X152805645Y-45770791D01*
X152797372Y-45774218D01*
X152792389Y-45773103D01*
X152220643Y-45503880D01*
X151522303Y-45175046D01*
X151516278Y-45168421D01*
X151516472Y-45159996D01*
X151834938Y-44388783D01*
X151841259Y-44382448D01*
X152610023Y-44064994D01*
X152618978Y-44065003D01*
G37*
%TD.AperFunction*%
%TD*%
M02*
