%TF.GenerationSoftware,KiCad,Pcbnew,7.0.5-0*%
%TF.CreationDate,2023-10-21T17:04:42+08:00*%
%TF.ProjectId,Energy,456e6572-6779-42e6-9b69-6361645f7063,rev?*%
%TF.SameCoordinates,Original*%
%TF.FileFunction,Legend,Bot*%
%TF.FilePolarity,Positive*%
%FSLAX46Y46*%
G04 Gerber Fmt 4.6, Leading zero omitted, Abs format (unit mm)*
G04 Created by KiCad (PCBNEW 7.0.5-0) date 2023-10-21 17:04:42*
%MOMM*%
%LPD*%
G01*
G04 APERTURE LIST*
%ADD10C,0.150000*%
G04 APERTURE END LIST*
D10*
X149611904Y-51562319D02*
X150088094Y-51562319D01*
X150088094Y-51562319D02*
X150135713Y-52038509D01*
X150135713Y-52038509D02*
X150088094Y-51990890D01*
X150088094Y-51990890D02*
X149992856Y-51943271D01*
X149992856Y-51943271D02*
X149754761Y-51943271D01*
X149754761Y-51943271D02*
X149659523Y-51990890D01*
X149659523Y-51990890D02*
X149611904Y-52038509D01*
X149611904Y-52038509D02*
X149564285Y-52133747D01*
X149564285Y-52133747D02*
X149564285Y-52371842D01*
X149564285Y-52371842D02*
X149611904Y-52467080D01*
X149611904Y-52467080D02*
X149659523Y-52514700D01*
X149659523Y-52514700D02*
X149754761Y-52562319D01*
X149754761Y-52562319D02*
X149992856Y-52562319D01*
X149992856Y-52562319D02*
X150088094Y-52514700D01*
X150088094Y-52514700D02*
X150135713Y-52467080D01*
X149588095Y-41449938D02*
X149683333Y-41402319D01*
X149683333Y-41402319D02*
X149826190Y-41402319D01*
X149826190Y-41402319D02*
X149969047Y-41449938D01*
X149969047Y-41449938D02*
X150064285Y-41545176D01*
X150064285Y-41545176D02*
X150111904Y-41640414D01*
X150111904Y-41640414D02*
X150159523Y-41830890D01*
X150159523Y-41830890D02*
X150159523Y-41973747D01*
X150159523Y-41973747D02*
X150111904Y-42164223D01*
X150111904Y-42164223D02*
X150064285Y-42259461D01*
X150064285Y-42259461D02*
X149969047Y-42354700D01*
X149969047Y-42354700D02*
X149826190Y-42402319D01*
X149826190Y-42402319D02*
X149730952Y-42402319D01*
X149730952Y-42402319D02*
X149588095Y-42354700D01*
X149588095Y-42354700D02*
X149540476Y-42307080D01*
X149540476Y-42307080D02*
X149540476Y-41973747D01*
X149540476Y-41973747D02*
X149730952Y-41973747D01*
X149540476Y-47482319D02*
X149873809Y-47006128D01*
X150111904Y-47482319D02*
X150111904Y-46482319D01*
X150111904Y-46482319D02*
X149730952Y-46482319D01*
X149730952Y-46482319D02*
X149635714Y-46529938D01*
X149635714Y-46529938D02*
X149588095Y-46577557D01*
X149588095Y-46577557D02*
X149540476Y-46672795D01*
X149540476Y-46672795D02*
X149540476Y-46815652D01*
X149540476Y-46815652D02*
X149588095Y-46910890D01*
X149588095Y-46910890D02*
X149635714Y-46958509D01*
X149635714Y-46958509D02*
X149730952Y-47006128D01*
X149730952Y-47006128D02*
X150111904Y-47006128D01*
X149897618Y-43942319D02*
X149802380Y-43942319D01*
X149802380Y-43942319D02*
X149707142Y-43989938D01*
X149707142Y-43989938D02*
X149659523Y-44037557D01*
X149659523Y-44037557D02*
X149611904Y-44132795D01*
X149611904Y-44132795D02*
X149564285Y-44323271D01*
X149564285Y-44323271D02*
X149564285Y-44561366D01*
X149564285Y-44561366D02*
X149611904Y-44751842D01*
X149611904Y-44751842D02*
X149659523Y-44847080D01*
X149659523Y-44847080D02*
X149707142Y-44894700D01*
X149707142Y-44894700D02*
X149802380Y-44942319D01*
X149802380Y-44942319D02*
X149897618Y-44942319D01*
X149897618Y-44942319D02*
X149992856Y-44894700D01*
X149992856Y-44894700D02*
X150040475Y-44847080D01*
X150040475Y-44847080D02*
X150088094Y-44751842D01*
X150088094Y-44751842D02*
X150135713Y-44561366D01*
X150135713Y-44561366D02*
X150135713Y-44323271D01*
X150135713Y-44323271D02*
X150088094Y-44132795D01*
X150088094Y-44132795D02*
X150040475Y-44037557D01*
X150040475Y-44037557D02*
X149992856Y-43989938D01*
X149992856Y-43989938D02*
X149897618Y-43942319D01*
X150135713Y-49022319D02*
X149564285Y-49022319D01*
X149849999Y-50022319D02*
X149849999Y-49022319D01*
M02*
