%TF.GenerationSoftware,KiCad,Pcbnew,7.0.5-0*%
%TF.CreationDate,2023-10-21T17:04:42+08:00*%
%TF.ProjectId,Energy,456e6572-6779-42e6-9b69-6361645f7063,rev?*%
%TF.SameCoordinates,Original*%
%TF.FileFunction,Soldermask,Top*%
%TF.FilePolarity,Negative*%
%FSLAX46Y46*%
G04 Gerber Fmt 4.6, Leading zero omitted, Abs format (unit mm)*
G04 Created by KiCad (PCBNEW 7.0.5-0) date 2023-10-21 17:04:42*
%MOMM*%
%LPD*%
G01*
G04 APERTURE LIST*
G04 Aperture macros list*
%AMRoundRect*
0 Rectangle with rounded corners*
0 $1 Rounding radius*
0 $2 $3 $4 $5 $6 $7 $8 $9 X,Y pos of 4 corners*
0 Add a 4 corners polygon primitive as box body*
4,1,4,$2,$3,$4,$5,$6,$7,$8,$9,$2,$3,0*
0 Add four circle primitives for the rounded corners*
1,1,$1+$1,$2,$3*
1,1,$1+$1,$4,$5*
1,1,$1+$1,$6,$7*
1,1,$1+$1,$8,$9*
0 Add four rect primitives between the rounded corners*
20,1,$1+$1,$2,$3,$4,$5,0*
20,1,$1+$1,$4,$5,$6,$7,0*
20,1,$1+$1,$6,$7,$8,$9,0*
20,1,$1+$1,$8,$9,$2,$3,0*%
%AMFreePoly0*
4,1,9,3.862500,-0.866500,0.737500,-0.866500,0.737500,-0.450000,-0.737500,-0.450000,-0.737500,0.450000,0.737500,0.450000,0.737500,0.866500,3.862500,0.866500,3.862500,-0.866500,3.862500,-0.866500,$1*%
G04 Aperture macros list end*
%ADD10R,2.500000X1.000000*%
%ADD11RoundRect,0.200000X0.275000X-0.200000X0.275000X0.200000X-0.275000X0.200000X-0.275000X-0.200000X0*%
%ADD12RoundRect,0.225000X-0.250000X0.225000X-0.250000X-0.225000X0.250000X-0.225000X0.250000X0.225000X0*%
%ADD13RoundRect,0.250000X-0.312500X-0.625000X0.312500X-0.625000X0.312500X0.625000X-0.312500X0.625000X0*%
%ADD14RoundRect,0.225000X0.250000X-0.225000X0.250000X0.225000X-0.250000X0.225000X-0.250000X-0.225000X0*%
%ADD15C,2.000000*%
%ADD16RoundRect,0.250000X1.550000X-0.650000X1.550000X0.650000X-1.550000X0.650000X-1.550000X-0.650000X0*%
%ADD17O,3.600000X1.800000*%
%ADD18RoundRect,0.250000X-0.250000X-0.475000X0.250000X-0.475000X0.250000X0.475000X-0.250000X0.475000X0*%
%ADD19RoundRect,0.200000X-0.275000X0.200000X-0.275000X-0.200000X0.275000X-0.200000X0.275000X0.200000X0*%
%ADD20RoundRect,0.250000X-1.500000X-0.550000X1.500000X-0.550000X1.500000X0.550000X-1.500000X0.550000X0*%
%ADD21C,2.250000*%
%ADD22C,1.600000*%
%ADD23R,2.300000X2.000000*%
%ADD24C,2.300000*%
%ADD25RoundRect,0.150000X-0.675000X-0.150000X0.675000X-0.150000X0.675000X0.150000X-0.675000X0.150000X0*%
%ADD26R,0.900000X1.300000*%
%ADD27FreePoly0,270.000000*%
%ADD28RoundRect,0.225000X-0.225000X-0.250000X0.225000X-0.250000X0.225000X0.250000X-0.225000X0.250000X0*%
%ADD29RoundRect,0.250000X-0.450000X0.350000X-0.450000X-0.350000X0.450000X-0.350000X0.450000X0.350000X0*%
%ADD30RoundRect,0.250000X0.350000X0.450000X-0.350000X0.450000X-0.350000X-0.450000X0.350000X-0.450000X0*%
%ADD31C,1.700000*%
%ADD32O,1.700000X1.700000*%
G04 APERTURE END LIST*
D10*
%TO.C,U2*%
X161430000Y-75710000D03*
X161430000Y-73710000D03*
X161430000Y-71710000D03*
X161430000Y-69710000D03*
X161430000Y-67710000D03*
X161430000Y-65710000D03*
X161430000Y-63710000D03*
X161430000Y-61710000D03*
X146230000Y-61710000D03*
X146230000Y-63710000D03*
X146230000Y-65710000D03*
X146230000Y-67710000D03*
X146230000Y-69710000D03*
X146230000Y-71710000D03*
X146230000Y-73710000D03*
X146230000Y-75710000D03*
%TD*%
D11*
%TO.C,R3*%
X157530000Y-58635000D03*
X157530000Y-56985000D03*
%TD*%
D12*
%TO.C,C7*%
X138740000Y-67185000D03*
X138740000Y-68735000D03*
%TD*%
D13*
%TO.C,R10*%
X115537500Y-56030000D03*
X118462500Y-56030000D03*
%TD*%
D11*
%TO.C,R4*%
X143180000Y-65535000D03*
X143180000Y-63885000D03*
%TD*%
%TO.C,R1*%
X160670000Y-58635000D03*
X160670000Y-56985000D03*
%TD*%
D14*
%TO.C,C6*%
X137200000Y-68735000D03*
X137200000Y-67185000D03*
%TD*%
D12*
%TO.C,C8*%
X132500000Y-65160000D03*
X132500000Y-66710000D03*
%TD*%
D15*
%TO.C,L3*%
X109400000Y-59600000D03*
X109400000Y-66800000D03*
X125900000Y-59600000D03*
X125900000Y-66800000D03*
%TD*%
D11*
%TO.C,R5*%
X155950000Y-58635000D03*
X155950000Y-56985000D03*
%TD*%
D16*
%TO.C,J2*%
X111142500Y-75687500D03*
D17*
X111142500Y-71877500D03*
%TD*%
D15*
%TO.C,F1*%
X112460000Y-38930000D03*
X117540000Y-38940000D03*
%TD*%
D18*
%TO.C,C2*%
X159250000Y-41400000D03*
X161150000Y-41400000D03*
%TD*%
D19*
%TO.C,R11*%
X130910000Y-65160000D03*
X130910000Y-66810000D03*
%TD*%
D20*
%TO.C,C3*%
X156900000Y-52005000D03*
X162500000Y-52005000D03*
%TD*%
D21*
%TO.C,L1*%
X122700000Y-79630000D03*
X118700000Y-70130000D03*
D22*
X131700000Y-70630000D03*
X131700000Y-79130000D03*
%TD*%
D23*
%TO.C,PS1*%
X122437500Y-44430000D03*
D24*
X122437500Y-49430000D03*
X151837500Y-39230000D03*
X151837500Y-54630000D03*
%TD*%
D14*
%TO.C,C4*%
X162240000Y-58585000D03*
X162240000Y-57035000D03*
%TD*%
D19*
%TO.C,R8*%
X140270000Y-67135000D03*
X140270000Y-68785000D03*
%TD*%
D25*
%TO.C,U3*%
X135355000Y-61345000D03*
X135355000Y-62615000D03*
X135355000Y-63885000D03*
X135355000Y-65155000D03*
X140605000Y-65155000D03*
X140605000Y-63885000D03*
X140605000Y-62615000D03*
X140605000Y-61345000D03*
%TD*%
D26*
%TO.C,U1*%
X161150000Y-43550000D03*
D27*
X159650000Y-43637500D03*
D26*
X158150000Y-43550000D03*
%TD*%
D19*
%TO.C,R6*%
X135670000Y-67135000D03*
X135670000Y-68785000D03*
%TD*%
D16*
%TO.C,J1*%
X111142500Y-48740000D03*
D17*
X111142500Y-44930000D03*
%TD*%
D11*
%TO.C,R2*%
X159100000Y-58635000D03*
X159100000Y-56985000D03*
%TD*%
D28*
%TO.C,C5*%
X135355000Y-59580000D03*
X136905000Y-59580000D03*
%TD*%
D29*
%TO.C,R9*%
X129090000Y-64810000D03*
X129090000Y-66810000D03*
%TD*%
D22*
%TO.C,RV1*%
X118120000Y-44430000D03*
X116220000Y-49430000D03*
%TD*%
D30*
%TO.C,R7*%
X138970000Y-70480000D03*
X136970000Y-70480000D03*
%TD*%
D31*
%TO.C,J3*%
X151837500Y-52005000D03*
D32*
X151837500Y-49465000D03*
X151837500Y-46925000D03*
X151837500Y-44385000D03*
X151837500Y-41845000D03*
%TD*%
M02*
