M48
; DRILL file {KiCad 7.0.5-0} date 2023 October 21, Saturday 17:04:45
; FORMAT={-:-/ absolute / metric / decimal}
; #@! TF.CreationDate,2023-10-21T17:04:45+08:00
; #@! TF.GenerationSoftware,Kicad,Pcbnew,7.0.5-0
; #@! TF.FileFunction,Plated,1,2,PTH
FMAT,2
METRIC
; #@! TA.AperFunction,Plated,PTH,ViaDrill
T1C0.400
; #@! TA.AperFunction,Plated,PTH,ComponentDrill
T2C0.600
; #@! TA.AperFunction,Plated,PTH,ComponentDrill
T3C0.800
; #@! TA.AperFunction,Plated,PTH,ComponentDrill
T4C1.000
; #@! TA.AperFunction,Plated,PTH,ComponentDrill
T5C1.200
%
G90
G05
T1
X130.33Y-60.6
X130.33Y-61.87
X131.6Y-60.6
X131.6Y-61.87
X134.0Y-66.7
X134.0Y-68.7
X135.37Y-58.46
X138.8Y-75.4
X139.48Y-48.72
X139.48Y-49.99
X140.75Y-48.72
X140.75Y-49.99
X141.8Y-66.6
X142.4Y-75.4
X153.43Y-74.23
X153.43Y-75.5
X154.7Y-74.23
X154.7Y-75.5
X155.95Y-59.63
X157.0Y-40.95
X157.0Y-41.9
X157.53Y-59.63
X158.0Y-40.95
X158.0Y-41.9
X159.09Y-54.38
X160.34Y-39.39
X160.36Y-54.38
X161.61Y-39.39
X162.26Y-58.59
T2
X116.22Y-49.43
X118.12Y-44.43
T3
X131.7Y-70.63
X131.7Y-79.13
T4
X109.4Y-59.6
X109.4Y-66.8
X112.46Y-38.93
X117.54Y-38.94
X122.438Y-44.43
X122.438Y-49.43
X125.9Y-59.6
X125.9Y-66.8
X151.838Y-39.23
X151.838Y-41.845
X151.838Y-44.385
X151.838Y-46.925
X151.838Y-49.465
X151.838Y-52.005
X151.838Y-54.63
T5
X111.142Y-44.93
X111.142Y-48.74
X111.142Y-71.877
X111.142Y-75.688
X118.7Y-70.13
X122.7Y-79.63
T0
M30
