%TF.GenerationSoftware,KiCad,Pcbnew,7.0.5-0*%
%TF.CreationDate,2023-10-21T17:04:42+08:00*%
%TF.ProjectId,Energy,456e6572-6779-42e6-9b69-6361645f7063,rev?*%
%TF.SameCoordinates,Original*%
%TF.FileFunction,Copper,L1,Top*%
%TF.FilePolarity,Positive*%
%FSLAX46Y46*%
G04 Gerber Fmt 4.6, Leading zero omitted, Abs format (unit mm)*
G04 Created by KiCad (PCBNEW 7.0.5-0) date 2023-10-21 17:04:42*
%MOMM*%
%LPD*%
G01*
G04 APERTURE LIST*
G04 Aperture macros list*
%AMRoundRect*
0 Rectangle with rounded corners*
0 $1 Rounding radius*
0 $2 $3 $4 $5 $6 $7 $8 $9 X,Y pos of 4 corners*
0 Add a 4 corners polygon primitive as box body*
4,1,4,$2,$3,$4,$5,$6,$7,$8,$9,$2,$3,0*
0 Add four circle primitives for the rounded corners*
1,1,$1+$1,$2,$3*
1,1,$1+$1,$4,$5*
1,1,$1+$1,$6,$7*
1,1,$1+$1,$8,$9*
0 Add four rect primitives between the rounded corners*
20,1,$1+$1,$2,$3,$4,$5,0*
20,1,$1+$1,$4,$5,$6,$7,0*
20,1,$1+$1,$6,$7,$8,$9,0*
20,1,$1+$1,$8,$9,$2,$3,0*%
%AMFreePoly0*
4,1,9,3.862500,-0.866500,0.737500,-0.866500,0.737500,-0.450000,-0.737500,-0.450000,-0.737500,0.450000,0.737500,0.450000,0.737500,0.866500,3.862500,0.866500,3.862500,-0.866500,3.862500,-0.866500,$1*%
G04 Aperture macros list end*
%TA.AperFunction,SMDPad,CuDef*%
%ADD10R,2.500000X1.000000*%
%TD*%
%TA.AperFunction,SMDPad,CuDef*%
%ADD11RoundRect,0.200000X0.275000X-0.200000X0.275000X0.200000X-0.275000X0.200000X-0.275000X-0.200000X0*%
%TD*%
%TA.AperFunction,SMDPad,CuDef*%
%ADD12RoundRect,0.225000X-0.250000X0.225000X-0.250000X-0.225000X0.250000X-0.225000X0.250000X0.225000X0*%
%TD*%
%TA.AperFunction,SMDPad,CuDef*%
%ADD13RoundRect,0.250000X-0.312500X-0.625000X0.312500X-0.625000X0.312500X0.625000X-0.312500X0.625000X0*%
%TD*%
%TA.AperFunction,SMDPad,CuDef*%
%ADD14RoundRect,0.225000X0.250000X-0.225000X0.250000X0.225000X-0.250000X0.225000X-0.250000X-0.225000X0*%
%TD*%
%TA.AperFunction,ComponentPad*%
%ADD15C,2.000000*%
%TD*%
%TA.AperFunction,ComponentPad*%
%ADD16RoundRect,0.250000X1.550000X-0.650000X1.550000X0.650000X-1.550000X0.650000X-1.550000X-0.650000X0*%
%TD*%
%TA.AperFunction,ComponentPad*%
%ADD17O,3.600000X1.800000*%
%TD*%
%TA.AperFunction,SMDPad,CuDef*%
%ADD18RoundRect,0.250000X-0.250000X-0.475000X0.250000X-0.475000X0.250000X0.475000X-0.250000X0.475000X0*%
%TD*%
%TA.AperFunction,SMDPad,CuDef*%
%ADD19RoundRect,0.200000X-0.275000X0.200000X-0.275000X-0.200000X0.275000X-0.200000X0.275000X0.200000X0*%
%TD*%
%TA.AperFunction,SMDPad,CuDef*%
%ADD20RoundRect,0.250000X-1.500000X-0.550000X1.500000X-0.550000X1.500000X0.550000X-1.500000X0.550000X0*%
%TD*%
%TA.AperFunction,ComponentPad*%
%ADD21C,2.250000*%
%TD*%
%TA.AperFunction,ComponentPad*%
%ADD22C,1.600000*%
%TD*%
%TA.AperFunction,ComponentPad*%
%ADD23R,2.300000X2.000000*%
%TD*%
%TA.AperFunction,ComponentPad*%
%ADD24C,2.300000*%
%TD*%
%TA.AperFunction,SMDPad,CuDef*%
%ADD25RoundRect,0.150000X-0.675000X-0.150000X0.675000X-0.150000X0.675000X0.150000X-0.675000X0.150000X0*%
%TD*%
%TA.AperFunction,SMDPad,CuDef*%
%ADD26R,0.900000X1.300000*%
%TD*%
%TA.AperFunction,SMDPad,CuDef*%
%ADD27FreePoly0,270.000000*%
%TD*%
%TA.AperFunction,SMDPad,CuDef*%
%ADD28RoundRect,0.225000X-0.225000X-0.250000X0.225000X-0.250000X0.225000X0.250000X-0.225000X0.250000X0*%
%TD*%
%TA.AperFunction,SMDPad,CuDef*%
%ADD29RoundRect,0.250000X-0.450000X0.350000X-0.450000X-0.350000X0.450000X-0.350000X0.450000X0.350000X0*%
%TD*%
%TA.AperFunction,SMDPad,CuDef*%
%ADD30RoundRect,0.250000X0.350000X0.450000X-0.350000X0.450000X-0.350000X-0.450000X0.350000X-0.450000X0*%
%TD*%
%TA.AperFunction,ComponentPad*%
%ADD31C,1.700000*%
%TD*%
%TA.AperFunction,ComponentPad*%
%ADD32O,1.700000X1.700000*%
%TD*%
%TA.AperFunction,ViaPad*%
%ADD33C,0.800000*%
%TD*%
%TA.AperFunction,Conductor*%
%ADD34C,0.250000*%
%TD*%
%TA.AperFunction,Conductor*%
%ADD35C,1.500000*%
%TD*%
%TA.AperFunction,Conductor*%
%ADD36C,0.500000*%
%TD*%
%TA.AperFunction,Conductor*%
%ADD37C,0.700000*%
%TD*%
%TA.AperFunction,Conductor*%
%ADD38C,0.200000*%
%TD*%
%TA.AperFunction,Conductor*%
%ADD39C,1.800000*%
%TD*%
G04 APERTURE END LIST*
D10*
%TO.P,U2,1,~{RST}*%
%TO.N,Net-(U2-~{RST})*%
X161430000Y-75710000D03*
%TO.P,U2,2,ADC*%
%TO.N,unconnected-(U2-ADC-Pad2)*%
X161430000Y-73710000D03*
%TO.P,U2,3,EN*%
%TO.N,Net-(U2-EN)*%
X161430000Y-71710000D03*
%TO.P,U2,4,GPIO16*%
%TO.N,unconnected-(U2-GPIO16-Pad4)*%
X161430000Y-69710000D03*
%TO.P,U2,5,GPIO14*%
%TO.N,unconnected-(U2-GPIO14-Pad5)*%
X161430000Y-67710000D03*
%TO.P,U2,6,GPIO12*%
%TO.N,unconnected-(U2-GPIO12-Pad6)*%
X161430000Y-65710000D03*
%TO.P,U2,7,GPIO13*%
%TO.N,unconnected-(U2-GPIO13-Pad7)*%
X161430000Y-63710000D03*
%TO.P,U2,8,VCC*%
%TO.N,+3V3*%
X161430000Y-61710000D03*
%TO.P,U2,9,GND*%
%TO.N,GND*%
X146230000Y-61710000D03*
%TO.P,U2,10,GPIO15*%
X146230000Y-63710000D03*
%TO.P,U2,11,GPIO2*%
%TO.N,unconnected-(U2-GPIO2-Pad11)*%
X146230000Y-65710000D03*
%TO.P,U2,12,GPIO0*%
%TO.N,Net-(J3-Pin_4)*%
X146230000Y-67710000D03*
%TO.P,U2,13,GPIO4*%
%TO.N,unconnected-(U2-GPIO4-Pad13)*%
X146230000Y-69710000D03*
%TO.P,U2,14,GPIO5*%
%TO.N,unconnected-(U2-GPIO5-Pad14)*%
X146230000Y-71710000D03*
%TO.P,U2,15,GPIO3/RXD*%
%TO.N,/TX*%
X146230000Y-73710000D03*
%TO.P,U2,16,GPIO1/TXD*%
%TO.N,Net-(J3-Pin_2)*%
X146230000Y-75710000D03*
%TD*%
D11*
%TO.P,R3,1*%
%TO.N,Net-(J3-Pin_4)*%
X157530000Y-58635000D03*
%TO.P,R3,2*%
%TO.N,+3V3*%
X157530000Y-56985000D03*
%TD*%
D12*
%TO.P,C7,1*%
%TO.N,/HLW8032/IP*%
X138740000Y-67185000D03*
%TO.P,C7,2*%
%TO.N,GND*%
X138740000Y-68735000D03*
%TD*%
D13*
%TO.P,R10,1*%
%TO.N,Net-(L3-Pad2)*%
X115537500Y-56030000D03*
%TO.P,R10,2*%
%TO.N,/L*%
X118462500Y-56030000D03*
%TD*%
D11*
%TO.P,R4,1*%
%TO.N,/TX*%
X143180000Y-65535000D03*
%TO.P,R4,2*%
%TO.N,Net-(U3-TX)*%
X143180000Y-63885000D03*
%TD*%
%TO.P,R1,1*%
%TO.N,Net-(U2-EN)*%
X160670000Y-58635000D03*
%TO.P,R1,2*%
%TO.N,+3V3*%
X160670000Y-56985000D03*
%TD*%
D14*
%TO.P,C6,1*%
%TO.N,GND*%
X137200000Y-68735000D03*
%TO.P,C6,2*%
%TO.N,/HLW8032/IN*%
X137200000Y-67185000D03*
%TD*%
D12*
%TO.P,C8,1*%
%TO.N,/HLW8032/VP*%
X132500000Y-65160000D03*
%TO.P,C8,2*%
%TO.N,GND*%
X132500000Y-66710000D03*
%TD*%
D15*
%TO.P,L3,1,1*%
%TO.N,/N*%
X109400000Y-59600000D03*
%TO.P,L3,2,2*%
%TO.N,Net-(L3-Pad2)*%
X109400000Y-66800000D03*
%TO.P,L3,3,3*%
%TO.N,GND*%
X125900000Y-59600000D03*
%TO.P,L3,4,4*%
%TO.N,Net-(L3-Pad4)*%
X125900000Y-66800000D03*
%TD*%
D11*
%TO.P,R5,1*%
%TO.N,/TX*%
X155950000Y-58635000D03*
%TO.P,R5,2*%
%TO.N,GND*%
X155950000Y-56985000D03*
%TD*%
D16*
%TO.P,J2,1,Pin_1*%
%TO.N,/CT1*%
X111142500Y-75687500D03*
D17*
%TO.P,J2,2,Pin_2*%
%TO.N,/CT2*%
X111142500Y-71877500D03*
%TD*%
D15*
%TO.P,F1,1*%
%TO.N,Net-(J1-Pin_2)*%
X112460000Y-38930000D03*
%TO.P,F1,2*%
%TO.N,/L*%
X117540000Y-38940000D03*
%TD*%
D18*
%TO.P,C2,1*%
%TO.N,+3V3*%
X159250000Y-41400000D03*
%TO.P,C2,2*%
%TO.N,GND*%
X161150000Y-41400000D03*
%TD*%
D19*
%TO.P,R11,1*%
%TO.N,/HLW8032/VP*%
X130910000Y-65160000D03*
%TO.P,R11,2*%
%TO.N,Net-(L3-Pad4)*%
X130910000Y-66810000D03*
%TD*%
D20*
%TO.P,C3,1*%
%TO.N,+5V*%
X156900000Y-52005000D03*
%TO.P,C3,2*%
%TO.N,GND*%
X162500000Y-52005000D03*
%TD*%
D21*
%TO.P,L1,1,1*%
%TO.N,/CT1*%
X122700000Y-79630000D03*
%TO.P,L1,2,2*%
%TO.N,/CT2*%
X118700000Y-70130000D03*
D22*
%TO.P,L1,3,3*%
%TO.N,GND*%
X131700000Y-70630000D03*
%TO.P,L1,4,4*%
%TO.N,Net-(L1-Pad4)*%
X131700000Y-79130000D03*
%TD*%
D23*
%TO.P,PS1,1,AC/L*%
%TO.N,/L*%
X122437500Y-44430000D03*
D24*
%TO.P,PS1,2,AC/N*%
%TO.N,/N*%
X122437500Y-49430000D03*
%TO.P,PS1,3,-Vout*%
%TO.N,GND*%
X151837500Y-39230000D03*
%TO.P,PS1,4,+Vout*%
%TO.N,+5V*%
X151837500Y-54630000D03*
%TD*%
D14*
%TO.P,C4,1*%
%TO.N,+3V3*%
X162240000Y-58585000D03*
%TO.P,C4,2*%
%TO.N,GND*%
X162240000Y-57035000D03*
%TD*%
D19*
%TO.P,R8,1*%
%TO.N,/HLW8032/IP*%
X140270000Y-67135000D03*
%TO.P,R8,2*%
%TO.N,Net-(L1-Pad4)*%
X140270000Y-68785000D03*
%TD*%
D25*
%TO.P,U3,1,VDD*%
%TO.N,+5V*%
X135355000Y-61345000D03*
%TO.P,U3,2,IP*%
%TO.N,/HLW8032/IP*%
X135355000Y-62615000D03*
%TO.P,U3,3,IN*%
%TO.N,/HLW8032/IN*%
X135355000Y-63885000D03*
%TO.P,U3,4,VP*%
%TO.N,/HLW8032/VP*%
X135355000Y-65155000D03*
%TO.P,U3,5,GND*%
%TO.N,GND*%
X140605000Y-65155000D03*
%TO.P,U3,6,TX*%
%TO.N,Net-(U3-TX)*%
X140605000Y-63885000D03*
%TO.P,U3,7,PF*%
%TO.N,unconnected-(U3-PF-Pad7)*%
X140605000Y-62615000D03*
%TO.P,U3,8,RX*%
%TO.N,unconnected-(U3-RX-Pad8)*%
X140605000Y-61345000D03*
%TD*%
D26*
%TO.P,U1,1,GND*%
%TO.N,GND*%
X161150000Y-43550000D03*
D27*
%TO.P,U1,2,VIN*%
%TO.N,+5V*%
X159650000Y-43637500D03*
D26*
%TO.P,U1,3,VOUT*%
%TO.N,+3V3*%
X158150000Y-43550000D03*
%TD*%
D19*
%TO.P,R6,1*%
%TO.N,/HLW8032/IN*%
X135670000Y-67135000D03*
%TO.P,R6,2*%
%TO.N,GND*%
X135670000Y-68785000D03*
%TD*%
D16*
%TO.P,J1,1,Pin_1*%
%TO.N,/N*%
X111142500Y-48740000D03*
D17*
%TO.P,J1,2,Pin_2*%
%TO.N,Net-(J1-Pin_2)*%
X111142500Y-44930000D03*
%TD*%
D11*
%TO.P,R2,1*%
%TO.N,Net-(U2-~{RST})*%
X159100000Y-58635000D03*
%TO.P,R2,2*%
%TO.N,+3V3*%
X159100000Y-56985000D03*
%TD*%
D28*
%TO.P,C5,1*%
%TO.N,+5V*%
X135355000Y-59580000D03*
%TO.P,C5,2*%
%TO.N,GND*%
X136905000Y-59580000D03*
%TD*%
D29*
%TO.P,R9,1*%
%TO.N,GND*%
X129090000Y-64810000D03*
%TO.P,R9,2*%
%TO.N,Net-(L3-Pad4)*%
X129090000Y-66810000D03*
%TD*%
D22*
%TO.P,RV1,1*%
%TO.N,/L*%
X118120000Y-44430000D03*
%TO.P,RV1,2*%
%TO.N,/N*%
X116220000Y-49430000D03*
%TD*%
D30*
%TO.P,R7,1*%
%TO.N,Net-(L1-Pad4)*%
X138970000Y-70480000D03*
%TO.P,R7,2*%
%TO.N,GND*%
X136970000Y-70480000D03*
%TD*%
D31*
%TO.P,J3,1,Pin_1*%
%TO.N,+5V*%
X151837500Y-52005000D03*
D32*
%TO.P,J3,2,Pin_2*%
%TO.N,Net-(J3-Pin_2)*%
X151837500Y-49465000D03*
%TO.P,J3,3,Pin_3*%
%TO.N,/TX*%
X151837500Y-46925000D03*
%TO.P,J3,4,Pin_4*%
%TO.N,Net-(J3-Pin_4)*%
X151837500Y-44385000D03*
%TO.P,J3,5,Pin_5*%
%TO.N,GND*%
X151837500Y-41845000D03*
%TD*%
D33*
%TO.N,GND*%
X134000000Y-68700000D03*
X142400000Y-75400000D03*
X138800000Y-75400000D03*
%TO.N,+5V*%
X135370000Y-58460000D03*
%TO.N,GND*%
X161610000Y-39390000D03*
X134000000Y-66700000D03*
X160360000Y-54380000D03*
X160340000Y-39390000D03*
X131600000Y-60600000D03*
X140750000Y-49990000D03*
X153430000Y-74230000D03*
X139480000Y-49990000D03*
X154700000Y-75500000D03*
X139480000Y-48720000D03*
X140750000Y-48720000D03*
X131600000Y-61870000D03*
X130330000Y-61870000D03*
X141800000Y-66600000D03*
X153430000Y-75500000D03*
X130330000Y-60600000D03*
X154700000Y-74230000D03*
X159090000Y-54380000D03*
%TO.N,+3V3*%
X158000000Y-41900000D03*
X158000000Y-40950000D03*
X157000000Y-41900000D03*
X162260000Y-58590000D03*
X157000000Y-40950000D03*
%TO.N,/TX*%
X155950000Y-59630000D03*
%TO.N,Net-(J3-Pin_4)*%
X157530000Y-59630000D03*
%TD*%
D34*
%TO.N,Net-(U2-EN)*%
X161430000Y-71710000D02*
X160680000Y-71710000D01*
X160680000Y-71710000D02*
X159550000Y-70580000D01*
%TO.N,Net-(U2-~{RST})*%
X161430000Y-75710000D02*
X160670000Y-75710000D01*
X160670000Y-75710000D02*
X159100000Y-74140000D01*
X159100000Y-74140000D02*
X159100000Y-58635000D01*
%TO.N,GND*%
X125900000Y-59600000D02*
X125900000Y-61800000D01*
X128910000Y-64810000D02*
X129090000Y-64810000D01*
X125900000Y-61800000D02*
X128910000Y-64810000D01*
%TO.N,Net-(L1-Pad4)*%
X131700000Y-79130000D02*
X131700000Y-77800000D01*
X131700000Y-77800000D02*
X138970000Y-70530000D01*
X138970000Y-70530000D02*
X138970000Y-70480000D01*
%TO.N,GND*%
X131700000Y-70630000D02*
X136820000Y-70630000D01*
X136820000Y-70630000D02*
X136970000Y-70480000D01*
%TO.N,Net-(L1-Pad4)*%
X140270000Y-68785000D02*
X140270000Y-69180000D01*
X140270000Y-69180000D02*
X138970000Y-70480000D01*
D35*
%TO.N,+5V*%
X159650000Y-49350000D02*
X159650000Y-46450000D01*
X159650000Y-49350000D02*
X156995000Y-52005000D01*
D36*
X135355000Y-58475000D02*
X135370000Y-58460000D01*
D35*
X151837500Y-52005000D02*
X151837500Y-54630000D01*
D36*
X135355000Y-59580000D02*
X135355000Y-58475000D01*
X135355000Y-61345000D02*
X135355000Y-59580000D01*
D35*
X156900000Y-52005000D02*
X151837500Y-52005000D01*
X156995000Y-52005000D02*
X156900000Y-52005000D01*
D34*
%TO.N,+3V3*%
X162240000Y-58555000D02*
X162240000Y-58585000D01*
X159100000Y-56985000D02*
X160670000Y-56985000D01*
D37*
X162260000Y-58590000D02*
X162260000Y-61700000D01*
D34*
X160670000Y-56985000D02*
X162240000Y-58555000D01*
X159100000Y-56985000D02*
X157530000Y-56985000D01*
D38*
%TO.N,/HLW8032/IN*%
X135720000Y-67185000D02*
X135670000Y-67135000D01*
X136505000Y-63885000D02*
X135355000Y-63885000D01*
X137200000Y-64580000D02*
X136505000Y-63885000D01*
X137200000Y-67185000D02*
X137200000Y-64580000D01*
X137200000Y-67185000D02*
X135720000Y-67185000D01*
%TO.N,/HLW8032/IP*%
X137425000Y-62615000D02*
X135355000Y-62615000D01*
X138740000Y-67185000D02*
X138740000Y-63930000D01*
X140220000Y-67185000D02*
X140270000Y-67135000D01*
X138740000Y-63930000D02*
X137425000Y-62615000D01*
X138740000Y-67185000D02*
X140220000Y-67185000D01*
D34*
%TO.N,/HLW8032/VP*%
X130910000Y-65160000D02*
X132500000Y-65160000D01*
X135350000Y-65160000D02*
X135355000Y-65155000D01*
X132500000Y-65160000D02*
X135350000Y-65160000D01*
D39*
%TO.N,/L*%
X117950000Y-44260000D02*
X117950000Y-39350000D01*
X118120000Y-44430000D02*
X122437500Y-44430000D01*
X117950000Y-39350000D02*
X117540000Y-38940000D01*
D36*
X118770000Y-55722500D02*
X118770000Y-45080000D01*
D39*
X118120000Y-44430000D02*
X117950000Y-44260000D01*
D36*
X118462500Y-56030000D02*
X118770000Y-55722500D01*
X118770000Y-45080000D02*
X118120000Y-44430000D01*
D34*
%TO.N,Net-(J3-Pin_2)*%
X149310000Y-50560000D02*
X150405000Y-49465000D01*
X146230000Y-75710000D02*
X146980000Y-75710000D01*
X149310000Y-73380000D02*
X149310000Y-50560000D01*
X146980000Y-75710000D02*
X149310000Y-73380000D01*
X150405000Y-49465000D02*
X151837500Y-49465000D01*
%TO.N,/TX*%
X151515000Y-46925000D02*
X151837500Y-46925000D01*
X147000000Y-73710000D02*
X148860000Y-71850000D01*
X146230000Y-73710000D02*
X147000000Y-73710000D01*
X143180000Y-72440000D02*
X144450000Y-73710000D01*
X148860000Y-71850000D02*
X148860000Y-49580000D01*
X143180000Y-65535000D02*
X143180000Y-72440000D01*
X148860000Y-49580000D02*
X151515000Y-46925000D01*
X155950000Y-58635000D02*
X155950000Y-59630000D01*
X144450000Y-73710000D02*
X146230000Y-73710000D01*
D36*
%TO.N,Net-(L3-Pad2)*%
X115537500Y-60662500D02*
X115537500Y-56030000D01*
X109400000Y-66800000D02*
X115537500Y-60662500D01*
D34*
%TO.N,Net-(L3-Pad4)*%
X129080000Y-66800000D02*
X129090000Y-66810000D01*
X129090000Y-66810000D02*
X130910000Y-66810000D01*
X125900000Y-66800000D02*
X129080000Y-66800000D01*
%TO.N,Net-(U2-EN)*%
X159550000Y-59755000D02*
X159550000Y-70580000D01*
X160670000Y-58635000D02*
X159550000Y-59755000D01*
%TO.N,Net-(U3-TX)*%
X140605000Y-63885000D02*
X143180000Y-63885000D01*
D39*
%TO.N,Net-(J1-Pin_2)*%
X111142500Y-44930000D02*
X111142500Y-40247500D01*
X111142500Y-40247500D02*
X112460000Y-38930000D01*
D34*
%TO.N,Net-(J3-Pin_4)*%
X148410000Y-48520000D02*
X151837500Y-45092500D01*
X151837500Y-45092500D02*
X151837500Y-44385000D01*
X148410000Y-66280000D02*
X148410000Y-48520000D01*
X157530000Y-58635000D02*
X157530000Y-59630000D01*
X147080000Y-67610000D02*
X148410000Y-66280000D01*
%TD*%
%TA.AperFunction,Conductor*%
%TO.N,+3V3*%
G36*
X159304031Y-40500530D02*
G01*
X159395879Y-40512622D01*
X159413223Y-40514906D01*
X159444491Y-40523284D01*
X159534918Y-40560740D01*
X159562952Y-40576925D01*
X159640602Y-40636509D01*
X159663491Y-40659398D01*
X159723074Y-40737048D01*
X159739259Y-40765081D01*
X159776715Y-40855508D01*
X159785093Y-40886775D01*
X159799469Y-40995964D01*
X159800000Y-41004065D01*
X159800000Y-41695934D01*
X159799469Y-41704035D01*
X159785093Y-41813224D01*
X159776715Y-41844491D01*
X159739259Y-41934918D01*
X159723074Y-41962951D01*
X159663491Y-42040601D01*
X159640601Y-42063491D01*
X159562951Y-42123074D01*
X159534918Y-42139259D01*
X159444491Y-42176715D01*
X159413224Y-42185093D01*
X159324783Y-42196737D01*
X159304031Y-42199469D01*
X159295934Y-42200000D01*
X158600000Y-42200000D01*
X158600000Y-42700000D01*
X158600000Y-42700006D01*
X158600000Y-43695934D01*
X158599469Y-43704035D01*
X158585093Y-43813224D01*
X158576716Y-43844489D01*
X158552934Y-43901906D01*
X158509093Y-43956310D01*
X158505411Y-43958770D01*
X158452376Y-43992853D01*
X158452370Y-43992858D01*
X158358121Y-44101629D01*
X158354566Y-44107160D01*
X158301757Y-44152909D01*
X158297712Y-44154670D01*
X158244492Y-44176715D01*
X158213224Y-44185093D01*
X158124783Y-44196737D01*
X158104031Y-44199469D01*
X158095934Y-44200000D01*
X157054066Y-44200000D01*
X157045968Y-44199469D01*
X157022457Y-44196374D01*
X156936775Y-44185093D01*
X156905508Y-44176715D01*
X156815081Y-44139259D01*
X156787048Y-44123074D01*
X156709398Y-44063491D01*
X156686508Y-44040601D01*
X156649873Y-43992858D01*
X156626925Y-43962951D01*
X156610740Y-43934918D01*
X156573284Y-43844491D01*
X156564906Y-43813223D01*
X156550531Y-43704035D01*
X156550000Y-43695933D01*
X156550000Y-41004066D01*
X156550531Y-40995964D01*
X156564906Y-40886776D01*
X156573284Y-40855508D01*
X156610740Y-40765081D01*
X156626923Y-40737050D01*
X156686513Y-40659392D01*
X156709392Y-40636513D01*
X156787050Y-40576923D01*
X156815079Y-40560740D01*
X156905509Y-40523283D01*
X156936775Y-40514906D01*
X157045967Y-40500530D01*
X157054067Y-40500000D01*
X159295933Y-40500000D01*
X159304031Y-40500530D01*
G37*
%TD.AperFunction*%
%TD*%
%TA.AperFunction,Conductor*%
%TO.N,GND*%
G36*
X142202433Y-64523423D02*
G01*
X142397704Y-64620329D01*
X142449001Y-64667760D01*
X142466514Y-64735400D01*
X142444677Y-64801770D01*
X142430260Y-64819082D01*
X142349529Y-64899813D01*
X142261522Y-65045393D01*
X142210913Y-65207807D01*
X142205782Y-65264275D01*
X142204500Y-65278384D01*
X142204500Y-65791616D01*
X142206423Y-65812778D01*
X142210913Y-65862192D01*
X142210913Y-65862194D01*
X142210914Y-65862196D01*
X142261522Y-66024606D01*
X142346444Y-66165084D01*
X142349530Y-66170188D01*
X142367548Y-66188206D01*
X142385520Y-66210976D01*
X142536153Y-66456153D01*
X142554500Y-66521064D01*
X142554500Y-72357255D01*
X142552775Y-72372872D01*
X142553061Y-72372899D01*
X142552326Y-72380666D01*
X142554469Y-72448846D01*
X142554500Y-72450793D01*
X142554500Y-72479343D01*
X142554501Y-72479360D01*
X142555368Y-72486231D01*
X142555826Y-72492050D01*
X142557290Y-72538624D01*
X142557291Y-72538627D01*
X142562880Y-72557867D01*
X142566824Y-72576911D01*
X142569336Y-72596792D01*
X142576707Y-72615409D01*
X142586490Y-72640119D01*
X142588382Y-72645647D01*
X142593599Y-72663605D01*
X142601382Y-72690390D01*
X142609484Y-72704091D01*
X142611580Y-72707634D01*
X142620136Y-72725100D01*
X142627514Y-72743732D01*
X142634489Y-72753333D01*
X142654898Y-72781423D01*
X142658106Y-72786307D01*
X142681827Y-72826416D01*
X142681833Y-72826424D01*
X142695990Y-72840580D01*
X142708628Y-72855376D01*
X142720405Y-72871586D01*
X142720406Y-72871587D01*
X142756309Y-72901288D01*
X142760620Y-72905210D01*
X143670072Y-73814663D01*
X143949197Y-74093788D01*
X143959022Y-74106051D01*
X143959243Y-74105869D01*
X143964211Y-74111874D01*
X144013932Y-74158566D01*
X144015332Y-74159923D01*
X144035523Y-74180115D01*
X144035527Y-74180118D01*
X144035529Y-74180120D01*
X144041011Y-74184373D01*
X144045443Y-74188157D01*
X144079418Y-74220062D01*
X144096976Y-74229714D01*
X144113235Y-74240395D01*
X144129064Y-74252673D01*
X144171838Y-74271182D01*
X144177056Y-74273738D01*
X144217908Y-74296197D01*
X144237316Y-74301180D01*
X144255714Y-74307479D01*
X144270071Y-74313691D01*
X144295221Y-74328291D01*
X144671811Y-74610733D01*
X144676063Y-74613922D01*
X144717884Y-74669893D01*
X144722805Y-74739590D01*
X144689265Y-74800882D01*
X144675975Y-74812388D01*
X144622452Y-74852455D01*
X144536206Y-74967664D01*
X144536202Y-74967671D01*
X144485908Y-75102517D01*
X144479501Y-75162116D01*
X144479501Y-75162123D01*
X144479500Y-75162135D01*
X144479500Y-76257870D01*
X144479501Y-76257876D01*
X144485908Y-76317483D01*
X144536202Y-76452328D01*
X144536206Y-76452335D01*
X144622452Y-76567544D01*
X144622453Y-76567544D01*
X144622454Y-76567546D01*
X144648086Y-76586734D01*
X144689956Y-76642668D01*
X144694940Y-76712360D01*
X144661454Y-76773682D01*
X144600131Y-76807167D01*
X144573774Y-76810000D01*
X136124000Y-76810000D01*
X136056961Y-76790315D01*
X136011206Y-76737511D01*
X136000000Y-76686000D01*
X136000000Y-74435951D01*
X136019685Y-74368912D01*
X136036314Y-74348275D01*
X138340130Y-72044458D01*
X138382568Y-72016688D01*
X139218766Y-71689044D01*
X139264004Y-71680499D01*
X139370002Y-71680499D01*
X139370008Y-71680499D01*
X139472797Y-71669999D01*
X139639334Y-71614814D01*
X139788656Y-71522712D01*
X139912712Y-71398656D01*
X140004814Y-71249334D01*
X140059999Y-71082797D01*
X140070500Y-70980009D01*
X140070499Y-70866382D01*
X140080031Y-70818706D01*
X140456642Y-69914466D01*
X140493761Y-69865226D01*
X140743925Y-69665589D01*
X140784371Y-69644131D01*
X140834606Y-69628478D01*
X140980185Y-69540472D01*
X141100472Y-69420185D01*
X141188478Y-69274606D01*
X141239086Y-69112196D01*
X141245500Y-69041616D01*
X141245500Y-68528384D01*
X141239086Y-68457804D01*
X141188478Y-68295394D01*
X141100472Y-68149815D01*
X141100470Y-68149813D01*
X141100469Y-68149811D01*
X140998339Y-68047681D01*
X140964854Y-67986358D01*
X140969838Y-67916666D01*
X140998339Y-67872319D01*
X141100468Y-67770189D01*
X141100469Y-67770188D01*
X141100468Y-67770188D01*
X141100472Y-67770185D01*
X141188478Y-67624606D01*
X141239086Y-67462196D01*
X141245500Y-67391616D01*
X141245500Y-66878384D01*
X141239086Y-66807804D01*
X141188478Y-66645394D01*
X141100472Y-66499815D01*
X141100470Y-66499813D01*
X141100469Y-66499811D01*
X140980188Y-66379530D01*
X140974489Y-66376085D01*
X140834606Y-66291522D01*
X140672196Y-66240914D01*
X140672194Y-66240913D01*
X140672192Y-66240913D01*
X140622778Y-66236423D01*
X140601616Y-66234500D01*
X139938384Y-66234500D01*
X139919144Y-66236248D01*
X139867807Y-66240913D01*
X139867803Y-66240914D01*
X139867804Y-66240914D01*
X139705394Y-66291522D01*
X139705392Y-66291522D01*
X139705392Y-66291523D01*
X139649334Y-66325410D01*
X139642875Y-66328813D01*
X139631119Y-66334148D01*
X139615493Y-66344135D01*
X139548404Y-66363651D01*
X139481415Y-66343798D01*
X139442691Y-66303952D01*
X139361568Y-66170188D01*
X139358474Y-66165086D01*
X139340500Y-66100786D01*
X139340500Y-65928928D01*
X139360185Y-65861889D01*
X139412989Y-65816134D01*
X139482147Y-65806190D01*
X139527621Y-65822196D01*
X139669803Y-65906282D01*
X139669806Y-65906283D01*
X139827504Y-65952099D01*
X139827510Y-65952100D01*
X139864350Y-65954999D01*
X139864366Y-65955000D01*
X140355000Y-65955000D01*
X140355000Y-65405000D01*
X140855000Y-65405000D01*
X140855000Y-65955000D01*
X141345634Y-65955000D01*
X141345649Y-65954999D01*
X141382489Y-65952100D01*
X141382495Y-65952099D01*
X141540193Y-65906283D01*
X141540196Y-65906282D01*
X141681552Y-65822685D01*
X141681561Y-65822678D01*
X141797678Y-65706561D01*
X141797685Y-65706552D01*
X141881281Y-65565198D01*
X141927100Y-65407486D01*
X141927295Y-65405001D01*
X141927295Y-65405000D01*
X140855000Y-65405000D01*
X140355000Y-65405000D01*
X140355000Y-65029000D01*
X140374685Y-64961961D01*
X140427489Y-64916206D01*
X140479000Y-64905000D01*
X141927295Y-64905000D01*
X141927295Y-64904998D01*
X141927100Y-64902513D01*
X141881281Y-64744801D01*
X141853379Y-64697621D01*
X141836196Y-64629897D01*
X141858356Y-64563635D01*
X141912822Y-64519871D01*
X141960111Y-64510500D01*
X142147316Y-64510500D01*
X142202433Y-64523423D01*
G37*
%TD.AperFunction*%
%TA.AperFunction,Conductor*%
G36*
X164942539Y-35520185D02*
G01*
X164988294Y-35572989D01*
X164999500Y-35624500D01*
X164999500Y-76686000D01*
X164979815Y-76753039D01*
X164927011Y-76798794D01*
X164875500Y-76810000D01*
X163086226Y-76810000D01*
X163019187Y-76790315D01*
X162973432Y-76737511D01*
X162963488Y-76668353D01*
X162992513Y-76604797D01*
X163011914Y-76586734D01*
X163037546Y-76567546D01*
X163123796Y-76452331D01*
X163174091Y-76317483D01*
X163180500Y-76257873D01*
X163180499Y-75162128D01*
X163174091Y-75102517D01*
X163123796Y-74967669D01*
X163123795Y-74967668D01*
X163123793Y-74967664D01*
X163037547Y-74852456D01*
X163037548Y-74852456D01*
X163037546Y-74852454D01*
X162979854Y-74809265D01*
X162937984Y-74753333D01*
X162933000Y-74683641D01*
X162966485Y-74622318D01*
X162979850Y-74610736D01*
X163037546Y-74567546D01*
X163123796Y-74452331D01*
X163174091Y-74317483D01*
X163180500Y-74257873D01*
X163180499Y-73162128D01*
X163174091Y-73102517D01*
X163123796Y-72967669D01*
X163123795Y-72967668D01*
X163123793Y-72967664D01*
X163051868Y-72871586D01*
X163037546Y-72852454D01*
X162979854Y-72809265D01*
X162937984Y-72753333D01*
X162933000Y-72683641D01*
X162966485Y-72622318D01*
X162979850Y-72610736D01*
X163037546Y-72567546D01*
X163123796Y-72452331D01*
X163174091Y-72317483D01*
X163180500Y-72257873D01*
X163180499Y-71162128D01*
X163174091Y-71102517D01*
X163166735Y-71082795D01*
X163123797Y-70967671D01*
X163123793Y-70967664D01*
X163037547Y-70852456D01*
X163037548Y-70852456D01*
X163037546Y-70852454D01*
X162979854Y-70809265D01*
X162937984Y-70753333D01*
X162933000Y-70683641D01*
X162966485Y-70622318D01*
X162979854Y-70610734D01*
X163037546Y-70567546D01*
X163123796Y-70452331D01*
X163174091Y-70317483D01*
X163180500Y-70257873D01*
X163180499Y-69162128D01*
X163174091Y-69102517D01*
X163162281Y-69070854D01*
X163123797Y-68967671D01*
X163123793Y-68967664D01*
X163072123Y-68898643D01*
X163037546Y-68852454D01*
X162979854Y-68809265D01*
X162937984Y-68753333D01*
X162933000Y-68683641D01*
X162966485Y-68622318D01*
X162979854Y-68610734D01*
X163037546Y-68567546D01*
X163123796Y-68452331D01*
X163174091Y-68317483D01*
X163180500Y-68257873D01*
X163180499Y-67162128D01*
X163174091Y-67102517D01*
X163129629Y-66983309D01*
X163123797Y-66967671D01*
X163123793Y-66967664D01*
X163072123Y-66898643D01*
X163037546Y-66852454D01*
X162979854Y-66809265D01*
X162937984Y-66753333D01*
X162933000Y-66683641D01*
X162966485Y-66622318D01*
X162979854Y-66610734D01*
X163037546Y-66567546D01*
X163123796Y-66452331D01*
X163174091Y-66317483D01*
X163180500Y-66257873D01*
X163180499Y-65162128D01*
X163174091Y-65102517D01*
X163158233Y-65060000D01*
X163123797Y-64967671D01*
X163123793Y-64967664D01*
X163037547Y-64852456D01*
X163037548Y-64852456D01*
X163037546Y-64852454D01*
X162979854Y-64809265D01*
X162937984Y-64753333D01*
X162933000Y-64683641D01*
X162966485Y-64622318D01*
X162979850Y-64610736D01*
X163037546Y-64567546D01*
X163123796Y-64452331D01*
X163174091Y-64317483D01*
X163180500Y-64257873D01*
X163180499Y-63162128D01*
X163174091Y-63102517D01*
X163154998Y-63051327D01*
X163123797Y-62967671D01*
X163123793Y-62967664D01*
X163048861Y-62867569D01*
X163037546Y-62852454D01*
X162979854Y-62809265D01*
X162937984Y-62753333D01*
X162933000Y-62683641D01*
X162966485Y-62622318D01*
X162979854Y-62610734D01*
X163037546Y-62567546D01*
X163123796Y-62452331D01*
X163174091Y-62317483D01*
X163180500Y-62257873D01*
X163180499Y-61162128D01*
X163174091Y-61102517D01*
X163170329Y-61092431D01*
X163120697Y-60959360D01*
X163122500Y-60958687D01*
X163110500Y-60911670D01*
X163110500Y-59565122D01*
X163111839Y-59546950D01*
X163140012Y-59356778D01*
X163192533Y-59002251D01*
X163197483Y-58981443D01*
X163205349Y-58957708D01*
X163215500Y-58858345D01*
X163215499Y-58311656D01*
X163205349Y-58212292D01*
X163152003Y-58051303D01*
X163151999Y-58051297D01*
X163151998Y-58051294D01*
X163062970Y-57906959D01*
X163062967Y-57906955D01*
X163053339Y-57897327D01*
X163019854Y-57836004D01*
X163024838Y-57766312D01*
X163053345Y-57721959D01*
X163062573Y-57712731D01*
X163151542Y-57568492D01*
X163151547Y-57568481D01*
X163204855Y-57407606D01*
X163214999Y-57308322D01*
X163215000Y-57308309D01*
X163215000Y-57285000D01*
X162114000Y-57285000D01*
X162046961Y-57265315D01*
X162001206Y-57212511D01*
X161990000Y-57161000D01*
X161990000Y-56085000D01*
X162490000Y-56085000D01*
X162490000Y-56785000D01*
X163214999Y-56785000D01*
X163214999Y-56761692D01*
X163214998Y-56761677D01*
X163204855Y-56662392D01*
X163151547Y-56501518D01*
X163151542Y-56501507D01*
X163062575Y-56357271D01*
X163062572Y-56357267D01*
X162942732Y-56237427D01*
X162942728Y-56237424D01*
X162798492Y-56148457D01*
X162798481Y-56148452D01*
X162637606Y-56095144D01*
X162538322Y-56085000D01*
X162490000Y-56085000D01*
X161990000Y-56085000D01*
X161989999Y-56084999D01*
X161941693Y-56085000D01*
X161941675Y-56085001D01*
X161842392Y-56095144D01*
X161681518Y-56148452D01*
X161681507Y-56148457D01*
X161531121Y-56241218D01*
X161529853Y-56239162D01*
X161475706Y-56260998D01*
X161407066Y-56247947D01*
X161386833Y-56233212D01*
X161386094Y-56234157D01*
X161380188Y-56229530D01*
X161370471Y-56223656D01*
X161234606Y-56141522D01*
X161072196Y-56090914D01*
X161072194Y-56090913D01*
X161072192Y-56090913D01*
X161022778Y-56086423D01*
X161001616Y-56084500D01*
X160338384Y-56084500D01*
X160319144Y-56086248D01*
X160267807Y-56090913D01*
X160266215Y-56091409D01*
X160105394Y-56141522D01*
X160105392Y-56141522D01*
X160105392Y-56141523D01*
X160105379Y-56141529D01*
X160104339Y-56142158D01*
X160087289Y-56150744D01*
X160085873Y-56151325D01*
X159940119Y-56223656D01*
X159871317Y-56235824D01*
X159829878Y-56223656D01*
X159684131Y-56151328D01*
X159684127Y-56151326D01*
X159681677Y-56150298D01*
X159665539Y-56142086D01*
X159664606Y-56141522D01*
X159581734Y-56115698D01*
X159579846Y-56115076D01*
X159564035Y-56109579D01*
X159564024Y-56109576D01*
X159560845Y-56108904D01*
X159555227Y-56107438D01*
X159502197Y-56090914D01*
X159484550Y-56089310D01*
X159431616Y-56084500D01*
X158768384Y-56084500D01*
X158749144Y-56086248D01*
X158697807Y-56090913D01*
X158696215Y-56091409D01*
X158535394Y-56141522D01*
X158535392Y-56141522D01*
X158535392Y-56141523D01*
X158535379Y-56141529D01*
X158534339Y-56142158D01*
X158517289Y-56150744D01*
X158515873Y-56151325D01*
X158370119Y-56223656D01*
X158301317Y-56235824D01*
X158259878Y-56223656D01*
X158114131Y-56151328D01*
X158114127Y-56151326D01*
X158111677Y-56150298D01*
X158095539Y-56142086D01*
X158094606Y-56141522D01*
X158011734Y-56115698D01*
X158009846Y-56115076D01*
X157994035Y-56109579D01*
X157994024Y-56109576D01*
X157990845Y-56108904D01*
X157985227Y-56107438D01*
X157932197Y-56090914D01*
X157914550Y-56089310D01*
X157861616Y-56084500D01*
X157198384Y-56084500D01*
X157179144Y-56086248D01*
X157127807Y-56090913D01*
X156965393Y-56141522D01*
X156819814Y-56229527D01*
X156816063Y-56232467D01*
X156751150Y-56258315D01*
X156682568Y-56244966D01*
X156663124Y-56232471D01*
X156659876Y-56229926D01*
X156514395Y-56141980D01*
X156514396Y-56141980D01*
X156352105Y-56091409D01*
X156352106Y-56091409D01*
X156281572Y-56085000D01*
X156200000Y-56085000D01*
X156200000Y-57111000D01*
X156180315Y-57178039D01*
X156127511Y-57223794D01*
X156076000Y-57235000D01*
X154975001Y-57235000D01*
X154975001Y-57241582D01*
X154981408Y-57312102D01*
X154981409Y-57312107D01*
X155031981Y-57474396D01*
X155119926Y-57619875D01*
X155222015Y-57721963D01*
X155255500Y-57783286D01*
X155250516Y-57852978D01*
X155222016Y-57897326D01*
X155119529Y-57999813D01*
X155031522Y-58145393D01*
X154980913Y-58307807D01*
X154974500Y-58378386D01*
X154974500Y-58891613D01*
X154980913Y-58962192D01*
X154980913Y-58962194D01*
X154980914Y-58962196D01*
X155031522Y-59124606D01*
X155066394Y-59182292D01*
X155088664Y-59219130D01*
X155106500Y-59286685D01*
X155100396Y-59321849D01*
X155097418Y-59330945D01*
X155096980Y-59334344D01*
X155091932Y-59356778D01*
X155064328Y-59441737D01*
X155064326Y-59441743D01*
X155058174Y-59500281D01*
X155044540Y-59630000D01*
X155064326Y-59818256D01*
X155064327Y-59818259D01*
X155122818Y-59998277D01*
X155122821Y-59998284D01*
X155217467Y-60162216D01*
X155344128Y-60302888D01*
X155344129Y-60302888D01*
X155497265Y-60414148D01*
X155497270Y-60414151D01*
X155670192Y-60491142D01*
X155670197Y-60491144D01*
X155855354Y-60530500D01*
X155855355Y-60530500D01*
X156044644Y-60530500D01*
X156044646Y-60530500D01*
X156229803Y-60491144D01*
X156402730Y-60414151D01*
X156555871Y-60302888D01*
X156647850Y-60200734D01*
X156707337Y-60164086D01*
X156777194Y-60165417D01*
X156832149Y-60200734D01*
X156876358Y-60249833D01*
X156924129Y-60302888D01*
X157077265Y-60414148D01*
X157077270Y-60414151D01*
X157250192Y-60491142D01*
X157250197Y-60491144D01*
X157435354Y-60530500D01*
X157435355Y-60530500D01*
X157624644Y-60530500D01*
X157624646Y-60530500D01*
X157809803Y-60491144D01*
X157982730Y-60414151D01*
X158135871Y-60302888D01*
X158258351Y-60166860D01*
X158317837Y-60130212D01*
X158387694Y-60131543D01*
X158445742Y-60170429D01*
X158473552Y-60234526D01*
X158474500Y-60249833D01*
X158474500Y-74057255D01*
X158472775Y-74072872D01*
X158473061Y-74072899D01*
X158472326Y-74080666D01*
X158474469Y-74148846D01*
X158474500Y-74150793D01*
X158474500Y-74179343D01*
X158474501Y-74179360D01*
X158475368Y-74186231D01*
X158475826Y-74192050D01*
X158477290Y-74238624D01*
X158477291Y-74238627D01*
X158482880Y-74257867D01*
X158486824Y-74276911D01*
X158489261Y-74296196D01*
X158489336Y-74296791D01*
X158506490Y-74340119D01*
X158508382Y-74345647D01*
X158521381Y-74390388D01*
X158531580Y-74407634D01*
X158540136Y-74425100D01*
X158547514Y-74443732D01*
X158553761Y-74452331D01*
X158574898Y-74481423D01*
X158578106Y-74486307D01*
X158601827Y-74526416D01*
X158601833Y-74526424D01*
X158615990Y-74540580D01*
X158628628Y-74555376D01*
X158640405Y-74571586D01*
X158640406Y-74571587D01*
X158676309Y-74601288D01*
X158680620Y-74605210D01*
X159043074Y-74967664D01*
X159322418Y-75247008D01*
X159337900Y-75265890D01*
X159658663Y-75746869D01*
X159679482Y-75813565D01*
X159679500Y-75815668D01*
X159679500Y-76257870D01*
X159679501Y-76257876D01*
X159685908Y-76317483D01*
X159736202Y-76452328D01*
X159736206Y-76452335D01*
X159822452Y-76567544D01*
X159822453Y-76567544D01*
X159822454Y-76567546D01*
X159848086Y-76586734D01*
X159889956Y-76642668D01*
X159894940Y-76712360D01*
X159861454Y-76773682D01*
X159800131Y-76807167D01*
X159773774Y-76810000D01*
X147886226Y-76810000D01*
X147819187Y-76790315D01*
X147773432Y-76737511D01*
X147763488Y-76668353D01*
X147792513Y-76604797D01*
X147811914Y-76586734D01*
X147837546Y-76567546D01*
X147923796Y-76452331D01*
X147974091Y-76317483D01*
X147980500Y-76257873D01*
X147980499Y-75808496D01*
X148000183Y-75741458D01*
X148001161Y-75739960D01*
X148322266Y-75255807D01*
X148337914Y-75236674D01*
X149693786Y-73880802D01*
X149706048Y-73870980D01*
X149705865Y-73870759D01*
X149711873Y-73865788D01*
X149711877Y-73865786D01*
X149758649Y-73815977D01*
X149759891Y-73814697D01*
X149780120Y-73794470D01*
X149784373Y-73788986D01*
X149788150Y-73784563D01*
X149820062Y-73750582D01*
X149829714Y-73733023D01*
X149840389Y-73716772D01*
X149852674Y-73700936D01*
X149871186Y-73658152D01*
X149873742Y-73652935D01*
X149896197Y-73612092D01*
X149901180Y-73592680D01*
X149907477Y-73574291D01*
X149915438Y-73555895D01*
X149922729Y-73509853D01*
X149923908Y-73504162D01*
X149935500Y-73459019D01*
X149935500Y-73438982D01*
X149937027Y-73419582D01*
X149940160Y-73399804D01*
X149935775Y-73353415D01*
X149935500Y-73347577D01*
X149935500Y-56735000D01*
X154975000Y-56735000D01*
X155700000Y-56735000D01*
X155700000Y-56085000D01*
X155699999Y-56084999D01*
X155618417Y-56085000D01*
X155547897Y-56091408D01*
X155547892Y-56091409D01*
X155385603Y-56141981D01*
X155240122Y-56229927D01*
X155119927Y-56350122D01*
X155031980Y-56495604D01*
X154981409Y-56657893D01*
X154975000Y-56728427D01*
X154975000Y-56735000D01*
X149935500Y-56735000D01*
X149935500Y-54655253D01*
X149941184Y-54635893D01*
X149938149Y-54630239D01*
X149935500Y-54604746D01*
X149935500Y-50870451D01*
X149955185Y-50803412D01*
X149971814Y-50782775D01*
X150357599Y-50396990D01*
X150418920Y-50363507D01*
X150488612Y-50368491D01*
X150493328Y-50370361D01*
X151113686Y-50631120D01*
X151167860Y-50675244D01*
X151189578Y-50741652D01*
X151171946Y-50809261D01*
X151136760Y-50847007D01*
X150966094Y-50966508D01*
X150799005Y-51133597D01*
X150663465Y-51327169D01*
X150663464Y-51327171D01*
X150563598Y-51541335D01*
X150563594Y-51541344D01*
X150502438Y-51769586D01*
X150502436Y-51769596D01*
X150481841Y-52004998D01*
X150481841Y-52005004D01*
X150483613Y-52025262D01*
X150483642Y-52042629D01*
X150483655Y-52042630D01*
X150483643Y-52043501D01*
X150483649Y-52046457D01*
X150483599Y-52047050D01*
X150483599Y-52047055D01*
X150527296Y-52789910D01*
X150526023Y-52816339D01*
X150360914Y-53872718D01*
X150352962Y-53901022D01*
X150262925Y-54118392D01*
X150202278Y-54371009D01*
X150183118Y-54614475D01*
X150179263Y-54624588D01*
X150183117Y-54645521D01*
X150188253Y-54710775D01*
X150202278Y-54888990D01*
X150262927Y-55141610D01*
X150362343Y-55381623D01*
X150362345Y-55381627D01*
X150362346Y-55381628D01*
X150498088Y-55603140D01*
X150666811Y-55800689D01*
X150864360Y-55969412D01*
X151085872Y-56105154D01*
X151085874Y-56105154D01*
X151085876Y-56105156D01*
X151147193Y-56130554D01*
X151325890Y-56204573D01*
X151578506Y-56265221D01*
X151837500Y-56285604D01*
X152096494Y-56265221D01*
X152349110Y-56204573D01*
X152589128Y-56105154D01*
X152810640Y-55969412D01*
X153008189Y-55800689D01*
X153176912Y-55603140D01*
X153312654Y-55381628D01*
X153412073Y-55141610D01*
X153472721Y-54888994D01*
X153493104Y-54630000D01*
X153472721Y-54371006D01*
X153412073Y-54118390D01*
X153322032Y-53901015D01*
X153314083Y-53872718D01*
X153242524Y-53414877D01*
X153251620Y-53345605D01*
X153296726Y-53292245D01*
X153357754Y-53271946D01*
X153556171Y-53260275D01*
X153595284Y-53256444D01*
X153595286Y-53256443D01*
X153601906Y-53255795D01*
X153607954Y-53255500D01*
X155107993Y-53255500D01*
X155146997Y-53261794D01*
X155247203Y-53294999D01*
X155349991Y-53305500D01*
X158450008Y-53305499D01*
X158552797Y-53294999D01*
X158719334Y-53239814D01*
X158868656Y-53147712D01*
X158992712Y-53023656D01*
X159084814Y-52874334D01*
X159139999Y-52707797D01*
X159150500Y-52605009D01*
X159150500Y-52255000D01*
X160250001Y-52255000D01*
X160250001Y-52604986D01*
X160260494Y-52707697D01*
X160315641Y-52874119D01*
X160315643Y-52874124D01*
X160407684Y-53023345D01*
X160531654Y-53147315D01*
X160680875Y-53239356D01*
X160680880Y-53239358D01*
X160847302Y-53294505D01*
X160847309Y-53294506D01*
X160950019Y-53304999D01*
X162249999Y-53304999D01*
X162250000Y-53304998D01*
X162250000Y-52255000D01*
X162750000Y-52255000D01*
X162750000Y-53304999D01*
X164049972Y-53304999D01*
X164049986Y-53304998D01*
X164152697Y-53294505D01*
X164319119Y-53239358D01*
X164319124Y-53239356D01*
X164468345Y-53147315D01*
X164592315Y-53023345D01*
X164684356Y-52874124D01*
X164684358Y-52874119D01*
X164739505Y-52707697D01*
X164739506Y-52707690D01*
X164749999Y-52604986D01*
X164750000Y-52604973D01*
X164750000Y-52255000D01*
X162750000Y-52255000D01*
X162250000Y-52255000D01*
X160250001Y-52255000D01*
X159150500Y-52255000D01*
X159150499Y-51755000D01*
X160250000Y-51755000D01*
X162250000Y-51755000D01*
X162250000Y-50705000D01*
X162750000Y-50705000D01*
X162750000Y-51755000D01*
X164749999Y-51755000D01*
X164749999Y-51405028D01*
X164749998Y-51405013D01*
X164739505Y-51302302D01*
X164684358Y-51135880D01*
X164684356Y-51135875D01*
X164592315Y-50986654D01*
X164468345Y-50862684D01*
X164319124Y-50770643D01*
X164319119Y-50770641D01*
X164152697Y-50715494D01*
X164152690Y-50715493D01*
X164049986Y-50705000D01*
X162750000Y-50705000D01*
X162250000Y-50705000D01*
X160950028Y-50705000D01*
X160950012Y-50705001D01*
X160847302Y-50715494D01*
X160680880Y-50770641D01*
X160680875Y-50770643D01*
X160531654Y-50862684D01*
X160407684Y-50986654D01*
X160315643Y-51135875D01*
X160315641Y-51135880D01*
X160260494Y-51302302D01*
X160260493Y-51302309D01*
X160250000Y-51405013D01*
X160250000Y-51755000D01*
X159150499Y-51755000D01*
X159150499Y-51669334D01*
X159170183Y-51602296D01*
X159186813Y-51581659D01*
X160482127Y-50286345D01*
X160487287Y-50281733D01*
X160517666Y-50257508D01*
X160562645Y-50206023D01*
X160565462Y-50203010D01*
X160573945Y-50194529D01*
X160600556Y-50162652D01*
X160601353Y-50161719D01*
X160665765Y-50087996D01*
X160668006Y-50084243D01*
X160679274Y-50068364D01*
X160682068Y-50065019D01*
X160730347Y-49979931D01*
X160731018Y-49978779D01*
X160781215Y-49894764D01*
X160782747Y-49890679D01*
X160791003Y-49873033D01*
X160793153Y-49869245D01*
X160825489Y-49776832D01*
X160825918Y-49775649D01*
X160860307Y-49684024D01*
X160861085Y-49679737D01*
X160866056Y-49660902D01*
X160867498Y-49656783D01*
X160882816Y-49560064D01*
X160883031Y-49558803D01*
X160900500Y-49462548D01*
X160900500Y-49458169D01*
X160902027Y-49438770D01*
X160902710Y-49434460D01*
X160901432Y-49377552D01*
X160900516Y-49336664D01*
X160900500Y-49335273D01*
X160900500Y-47867373D01*
X160920185Y-47800334D01*
X160930777Y-47786182D01*
X160941877Y-47773373D01*
X161001665Y-47642457D01*
X161022147Y-47500000D01*
X161022147Y-44375000D01*
X161017000Y-44303039D01*
X161003642Y-44257547D01*
X160976454Y-44164950D01*
X160976454Y-44164948D01*
X160919684Y-44076611D01*
X160900000Y-44009573D01*
X160900000Y-43800000D01*
X161400000Y-43800000D01*
X161400000Y-44700000D01*
X161647828Y-44700000D01*
X161647844Y-44699999D01*
X161707372Y-44693598D01*
X161707379Y-44693596D01*
X161842086Y-44643354D01*
X161842093Y-44643350D01*
X161957187Y-44557190D01*
X161957190Y-44557187D01*
X162043350Y-44442093D01*
X162043354Y-44442086D01*
X162093596Y-44307379D01*
X162093598Y-44307372D01*
X162099999Y-44247844D01*
X162100000Y-44247827D01*
X162100000Y-43800000D01*
X161400000Y-43800000D01*
X160900000Y-43800000D01*
X160900000Y-41650000D01*
X161400000Y-41650000D01*
X161400000Y-43300000D01*
X162100000Y-43300000D01*
X162100000Y-42852172D01*
X162099999Y-42852155D01*
X162093598Y-42792627D01*
X162093596Y-42792620D01*
X162043354Y-42657913D01*
X162043350Y-42657906D01*
X161951875Y-42535712D01*
X161954671Y-42533618D01*
X161929215Y-42486999D01*
X161934199Y-42417307D01*
X161962701Y-42372958D01*
X161992317Y-42343342D01*
X162084356Y-42194124D01*
X162084358Y-42194119D01*
X162139505Y-42027697D01*
X162139506Y-42027690D01*
X162149999Y-41924986D01*
X162150000Y-41924973D01*
X162150000Y-41650000D01*
X161400000Y-41650000D01*
X160900000Y-41650000D01*
X160900000Y-40175000D01*
X161400000Y-40175000D01*
X161400000Y-41150000D01*
X162149999Y-41150000D01*
X162149999Y-40875028D01*
X162149998Y-40875013D01*
X162139505Y-40772302D01*
X162084358Y-40605880D01*
X162084356Y-40605875D01*
X161992315Y-40456654D01*
X161868345Y-40332684D01*
X161719124Y-40240643D01*
X161719119Y-40240641D01*
X161552697Y-40185494D01*
X161552690Y-40185493D01*
X161449986Y-40175000D01*
X161400000Y-40175000D01*
X160900000Y-40175000D01*
X160899999Y-40174999D01*
X160850029Y-40175000D01*
X160850011Y-40175001D01*
X160747302Y-40185494D01*
X160580880Y-40240641D01*
X160580875Y-40240643D01*
X160431657Y-40332682D01*
X160315665Y-40448674D01*
X160254342Y-40482158D01*
X160184650Y-40477174D01*
X160129609Y-40436479D01*
X160054456Y-40338539D01*
X160054441Y-40338522D01*
X160032631Y-40313652D01*
X159986340Y-40267362D01*
X159961464Y-40245546D01*
X159857558Y-40165814D01*
X159857556Y-40165813D01*
X159830045Y-40147431D01*
X159830030Y-40147421D01*
X159773333Y-40114688D01*
X159743643Y-40100046D01*
X159622669Y-40049938D01*
X159622662Y-40049935D01*
X159622651Y-40049931D01*
X159622648Y-40049930D01*
X159616436Y-40047821D01*
X159591306Y-40039290D01*
X159528059Y-40022344D01*
X159495612Y-40015891D01*
X159361816Y-39998275D01*
X159361784Y-39998271D01*
X159345320Y-39996650D01*
X159345304Y-39996649D01*
X159320723Y-39995040D01*
X159304210Y-39994500D01*
X159304193Y-39994500D01*
X157045809Y-39994500D01*
X157045780Y-39994500D01*
X157029309Y-39995038D01*
X157004712Y-39996648D01*
X156988199Y-39998273D01*
X156988170Y-39998276D01*
X156854390Y-40015890D01*
X156821931Y-40022346D01*
X156821919Y-40022349D01*
X156758694Y-40039289D01*
X156727348Y-40049930D01*
X156727346Y-40049931D01*
X156606340Y-40100053D01*
X156576651Y-40114694D01*
X156519974Y-40147417D01*
X156492448Y-40165809D01*
X156388522Y-40245556D01*
X156363653Y-40267366D01*
X156317366Y-40313653D01*
X156295556Y-40338522D01*
X156215801Y-40442459D01*
X156197432Y-40469951D01*
X156197410Y-40469986D01*
X156164693Y-40526656D01*
X156150049Y-40556351D01*
X156099933Y-40677340D01*
X156099932Y-40677345D01*
X156089293Y-40708685D01*
X156089286Y-40708706D01*
X156072349Y-40771920D01*
X156072343Y-40771947D01*
X156066609Y-40800779D01*
X156065891Y-40804389D01*
X156048276Y-40938184D01*
X156046654Y-40954650D01*
X156046652Y-40954676D01*
X156046651Y-40954676D01*
X156045043Y-40979217D01*
X156045042Y-40979243D01*
X156045041Y-40979261D01*
X156044500Y-40995795D01*
X156044500Y-43704204D01*
X156045041Y-43720738D01*
X156045042Y-43720756D01*
X156045043Y-43720781D01*
X156046652Y-43745322D01*
X156046654Y-43745349D01*
X156048276Y-43761815D01*
X156048277Y-43761822D01*
X156065891Y-43895610D01*
X156072343Y-43928051D01*
X156072349Y-43928078D01*
X156089286Y-43991292D01*
X156089296Y-43991323D01*
X156099925Y-44022636D01*
X156099933Y-44022656D01*
X156150050Y-44143649D01*
X156164691Y-44173338D01*
X156197424Y-44230035D01*
X156197438Y-44230056D01*
X156215807Y-44257547D01*
X156215813Y-44257556D01*
X156295542Y-44361459D01*
X156295557Y-44361476D01*
X156317367Y-44386346D01*
X156363652Y-44432631D01*
X156388522Y-44454441D01*
X156388539Y-44454456D01*
X156492442Y-44534185D01*
X156492451Y-44534191D01*
X156519942Y-44552560D01*
X156519963Y-44552574D01*
X156535153Y-44561344D01*
X156576661Y-44585308D01*
X156606346Y-44599947D01*
X156711139Y-44643354D01*
X156727360Y-44650073D01*
X156727370Y-44650076D01*
X156758670Y-44660701D01*
X156758681Y-44660704D01*
X156758690Y-44660707D01*
X156821926Y-44677651D01*
X156854386Y-44684108D01*
X156988183Y-44701723D01*
X156988214Y-44701726D01*
X156988222Y-44701727D01*
X156998294Y-44702719D01*
X157004641Y-44703345D01*
X157011684Y-44703806D01*
X157029215Y-44704956D01*
X157029227Y-44704956D01*
X157029248Y-44704958D01*
X157045790Y-44705500D01*
X157045805Y-44705500D01*
X158104195Y-44705500D01*
X158104211Y-44705500D01*
X158120755Y-44704958D01*
X158145361Y-44703344D01*
X158145379Y-44703342D01*
X158145733Y-44703319D01*
X158213917Y-44718571D01*
X158263032Y-44768266D01*
X158277853Y-44827053D01*
X158277853Y-47500002D01*
X158282999Y-47571960D01*
X158283000Y-47571965D01*
X158323545Y-47710050D01*
X158323545Y-47710051D01*
X158360364Y-47767342D01*
X158379040Y-47796402D01*
X158379815Y-47797607D01*
X158399500Y-47864646D01*
X158399500Y-47864647D01*
X158399499Y-48780663D01*
X158379814Y-48847703D01*
X158363180Y-48868344D01*
X156563343Y-50668181D01*
X156502020Y-50701666D01*
X156475662Y-50704500D01*
X155349998Y-50704500D01*
X155349981Y-50704501D01*
X155247203Y-50715000D01*
X155247200Y-50715001D01*
X155146997Y-50748206D01*
X155107993Y-50754500D01*
X153592084Y-50754500D01*
X153567263Y-50751990D01*
X153556171Y-50749723D01*
X152799073Y-50705188D01*
X152733306Y-50681601D01*
X152690730Y-50626201D01*
X152684865Y-50556578D01*
X152717572Y-50494836D01*
X152718516Y-50493879D01*
X152875995Y-50336401D01*
X153011535Y-50142830D01*
X153111403Y-49928663D01*
X153172563Y-49700408D01*
X153193159Y-49465000D01*
X153192944Y-49462548D01*
X153172563Y-49229596D01*
X153172563Y-49229592D01*
X153111403Y-49001337D01*
X153011535Y-48787171D01*
X152875995Y-48593599D01*
X152875994Y-48593597D01*
X152708902Y-48426506D01*
X152708901Y-48426505D01*
X152538669Y-48307307D01*
X152523341Y-48296574D01*
X152479716Y-48241997D01*
X152472524Y-48172498D01*
X152504046Y-48110144D01*
X152523336Y-48093428D01*
X152708901Y-47963495D01*
X152875995Y-47796401D01*
X153011535Y-47602830D01*
X153111403Y-47388663D01*
X153172563Y-47160408D01*
X153193159Y-46925000D01*
X153172563Y-46689592D01*
X153111403Y-46461337D01*
X153011535Y-46247171D01*
X152875995Y-46053599D01*
X152875994Y-46053597D01*
X152708902Y-45886506D01*
X152708901Y-45886505D01*
X152587246Y-45801321D01*
X152523341Y-45756574D01*
X152479716Y-45701997D01*
X152472524Y-45632498D01*
X152504046Y-45570144D01*
X152523336Y-45553428D01*
X152708901Y-45423495D01*
X152741555Y-45390839D01*
X152746667Y-45386264D01*
X152750730Y-45383013D01*
X152759005Y-45375880D01*
X152822171Y-45310666D01*
X152822173Y-45310662D01*
X152823765Y-45309019D01*
X152826491Y-45305903D01*
X152875995Y-45256401D01*
X153011535Y-45062830D01*
X153111403Y-44848663D01*
X153172563Y-44620408D01*
X153193159Y-44385000D01*
X153172563Y-44149592D01*
X153111403Y-43921337D01*
X153011535Y-43707171D01*
X153009458Y-43704204D01*
X152875994Y-43513597D01*
X152708902Y-43346506D01*
X152708901Y-43346505D01*
X152522905Y-43216269D01*
X152479281Y-43161692D01*
X152472088Y-43092193D01*
X152503610Y-43029839D01*
X152522905Y-43013119D01*
X152708582Y-42883105D01*
X152875605Y-42716082D01*
X153011100Y-42522578D01*
X153110929Y-42308492D01*
X153110932Y-42308486D01*
X153168136Y-42095000D01*
X152271186Y-42095000D01*
X152296993Y-42054844D01*
X152337500Y-41916889D01*
X152337500Y-41773111D01*
X152296993Y-41635156D01*
X152271186Y-41595000D01*
X153168136Y-41595000D01*
X153168135Y-41594999D01*
X153110932Y-41381513D01*
X153110929Y-41381507D01*
X153011100Y-41167422D01*
X153011099Y-41167420D01*
X152875613Y-40973926D01*
X152875608Y-40973920D01*
X152710970Y-40809282D01*
X152677485Y-40747959D01*
X152682469Y-40678267D01*
X152724341Y-40622334D01*
X152733862Y-40615873D01*
X152810346Y-40569004D01*
X152817144Y-40563197D01*
X151970033Y-39716086D01*
X151979815Y-39714680D01*
X152110600Y-39654952D01*
X152219261Y-39560798D01*
X152296993Y-39439844D01*
X152320576Y-39359523D01*
X153170697Y-40209644D01*
X153176505Y-40202844D01*
X153312207Y-39981400D01*
X153312209Y-39981397D01*
X153411593Y-39741462D01*
X153411598Y-39741445D01*
X153472225Y-39488912D01*
X153492601Y-39230000D01*
X153472225Y-38971087D01*
X153411598Y-38718554D01*
X153411593Y-38718537D01*
X153312209Y-38478602D01*
X153312207Y-38478599D01*
X153176507Y-38257157D01*
X153170697Y-38250354D01*
X152320576Y-39100475D01*
X152296993Y-39020156D01*
X152219261Y-38899202D01*
X152110600Y-38805048D01*
X151979815Y-38745320D01*
X151970034Y-38743913D01*
X152817145Y-37896801D01*
X152810343Y-37890993D01*
X152810342Y-37890992D01*
X152588900Y-37755292D01*
X152588897Y-37755290D01*
X152348962Y-37655906D01*
X152348945Y-37655901D01*
X152096411Y-37595274D01*
X152096412Y-37595274D01*
X151837500Y-37574898D01*
X151578587Y-37595274D01*
X151326054Y-37655901D01*
X151326037Y-37655906D01*
X151086102Y-37755290D01*
X151086099Y-37755292D01*
X150864655Y-37890993D01*
X150857853Y-37896800D01*
X151704966Y-38743913D01*
X151695185Y-38745320D01*
X151564400Y-38805048D01*
X151455739Y-38899202D01*
X151378007Y-39020156D01*
X151354423Y-39100476D01*
X150504300Y-38250353D01*
X150498493Y-38257155D01*
X150362792Y-38478599D01*
X150362790Y-38478602D01*
X150263406Y-38718537D01*
X150263401Y-38718554D01*
X150202774Y-38971087D01*
X150182398Y-39230000D01*
X150202774Y-39488912D01*
X150263401Y-39741445D01*
X150263406Y-39741462D01*
X150362790Y-39981397D01*
X150362792Y-39981400D01*
X150498492Y-40202842D01*
X150498493Y-40202843D01*
X150504301Y-40209644D01*
X151354422Y-39359523D01*
X151378007Y-39439844D01*
X151455739Y-39560798D01*
X151564400Y-39654952D01*
X151695185Y-39714680D01*
X151704966Y-39716086D01*
X150857854Y-40563197D01*
X150864657Y-40569007D01*
X150941137Y-40615875D01*
X150988012Y-40667687D01*
X150999435Y-40736617D01*
X150971777Y-40800779D01*
X150964029Y-40809283D01*
X150799386Y-40973926D01*
X150663900Y-41167420D01*
X150663899Y-41167422D01*
X150564070Y-41381507D01*
X150564067Y-41381513D01*
X150506864Y-41594999D01*
X150506864Y-41595000D01*
X151403814Y-41595000D01*
X151378007Y-41635156D01*
X151337500Y-41773111D01*
X151337500Y-41916889D01*
X151378007Y-42054844D01*
X151403814Y-42095000D01*
X150506864Y-42095000D01*
X150564067Y-42308486D01*
X150564070Y-42308492D01*
X150663899Y-42522578D01*
X150799394Y-42716082D01*
X150966417Y-42883105D01*
X151152095Y-43013119D01*
X151195719Y-43067696D01*
X151202912Y-43137195D01*
X151171390Y-43199549D01*
X151152095Y-43216269D01*
X150966094Y-43346508D01*
X150799005Y-43513597D01*
X150663465Y-43707169D01*
X150663464Y-43707171D01*
X150563598Y-43921335D01*
X150563594Y-43921344D01*
X150502438Y-44149586D01*
X150502436Y-44149596D01*
X150481841Y-44384999D01*
X150482470Y-44392194D01*
X150482291Y-44408356D01*
X150482798Y-44408377D01*
X150482619Y-44412791D01*
X150515691Y-45474434D01*
X150498103Y-45542054D01*
X150479432Y-45565976D01*
X148026208Y-48019199D01*
X148013951Y-48029020D01*
X148014134Y-48029241D01*
X148008122Y-48034214D01*
X147961432Y-48083932D01*
X147960079Y-48085329D01*
X147939889Y-48105519D01*
X147939877Y-48105532D01*
X147935621Y-48111017D01*
X147931837Y-48115447D01*
X147899937Y-48149418D01*
X147899936Y-48149420D01*
X147890284Y-48166976D01*
X147879610Y-48183226D01*
X147867329Y-48199061D01*
X147867324Y-48199068D01*
X147848815Y-48241838D01*
X147846245Y-48247084D01*
X147823803Y-48287906D01*
X147818822Y-48307307D01*
X147812521Y-48325710D01*
X147804562Y-48344102D01*
X147804561Y-48344105D01*
X147797271Y-48390127D01*
X147796087Y-48395846D01*
X147784501Y-48440972D01*
X147784500Y-48440982D01*
X147784500Y-48461016D01*
X147782973Y-48480415D01*
X147779840Y-48500194D01*
X147779840Y-48500195D01*
X147784225Y-48546583D01*
X147784500Y-48552421D01*
X147784500Y-60611331D01*
X147764815Y-60678370D01*
X147712011Y-60724125D01*
X147642853Y-60734069D01*
X147617167Y-60727513D01*
X147587380Y-60716403D01*
X147587372Y-60716401D01*
X147527844Y-60710000D01*
X146480000Y-60710000D01*
X146480000Y-63836000D01*
X146460315Y-63903039D01*
X146407511Y-63948794D01*
X146356000Y-63960000D01*
X144480000Y-63960000D01*
X144480000Y-64257844D01*
X144486401Y-64317372D01*
X144486403Y-64317379D01*
X144536645Y-64452086D01*
X144536649Y-64452093D01*
X144622809Y-64567186D01*
X144680561Y-64610420D01*
X144722432Y-64666354D01*
X144727416Y-64736046D01*
X144693931Y-64797369D01*
X144680563Y-64808952D01*
X144622454Y-64852453D01*
X144622452Y-64852455D01*
X144536206Y-64967664D01*
X144536202Y-64967671D01*
X144485908Y-65102517D01*
X144479501Y-65162116D01*
X144479501Y-65162123D01*
X144479500Y-65162135D01*
X144479500Y-66257870D01*
X144479501Y-66257876D01*
X144485908Y-66317483D01*
X144536202Y-66452328D01*
X144536206Y-66452335D01*
X144622452Y-66567544D01*
X144622453Y-66567544D01*
X144622454Y-66567546D01*
X144644434Y-66584000D01*
X144680145Y-66610734D01*
X144722015Y-66666668D01*
X144726999Y-66736360D01*
X144693513Y-66797683D01*
X144680145Y-66809266D01*
X144622452Y-66852455D01*
X144536206Y-66967664D01*
X144536202Y-66967671D01*
X144485908Y-67102517D01*
X144482180Y-67137196D01*
X144479501Y-67162123D01*
X144479500Y-67162135D01*
X144479500Y-68257870D01*
X144479501Y-68257876D01*
X144485908Y-68317483D01*
X144536202Y-68452328D01*
X144536206Y-68452335D01*
X144622452Y-68567544D01*
X144622453Y-68567544D01*
X144622454Y-68567546D01*
X144651615Y-68589376D01*
X144680145Y-68610734D01*
X144722015Y-68666668D01*
X144726999Y-68736360D01*
X144693513Y-68797683D01*
X144680145Y-68809266D01*
X144622452Y-68852455D01*
X144536206Y-68967664D01*
X144536202Y-68967671D01*
X144485908Y-69102517D01*
X144479501Y-69162116D01*
X144479501Y-69162123D01*
X144479500Y-69162135D01*
X144479500Y-70257870D01*
X144479501Y-70257876D01*
X144485908Y-70317483D01*
X144536202Y-70452328D01*
X144536206Y-70452335D01*
X144622452Y-70567544D01*
X144622453Y-70567544D01*
X144622454Y-70567546D01*
X144651615Y-70589376D01*
X144680145Y-70610734D01*
X144722015Y-70666668D01*
X144726999Y-70736360D01*
X144693513Y-70797683D01*
X144680145Y-70809266D01*
X144622452Y-70852455D01*
X144536206Y-70967664D01*
X144536202Y-70967671D01*
X144485908Y-71102517D01*
X144481713Y-71141540D01*
X144479501Y-71162123D01*
X144479500Y-71162135D01*
X144479500Y-72257870D01*
X144479501Y-72257876D01*
X144485908Y-72317483D01*
X144536202Y-72452328D01*
X144536206Y-72452335D01*
X144600803Y-72538624D01*
X144622454Y-72567546D01*
X144676056Y-72607672D01*
X144717926Y-72663605D01*
X144722910Y-72733297D01*
X144689425Y-72794620D01*
X144674697Y-72806503D01*
X144674984Y-72806886D01*
X144621871Y-72846720D01*
X144556429Y-72871195D01*
X144488142Y-72856404D01*
X144459791Y-72835200D01*
X143841818Y-72217227D01*
X143808333Y-72155904D01*
X143805500Y-72129555D01*
X143805500Y-66521062D01*
X143823847Y-66456153D01*
X143945658Y-66257883D01*
X143974474Y-66210980D01*
X143992448Y-66188208D01*
X143992450Y-66188206D01*
X144010472Y-66170185D01*
X144098478Y-66024606D01*
X144149086Y-65862196D01*
X144155500Y-65791616D01*
X144155500Y-65278384D01*
X144149086Y-65207804D01*
X144098478Y-65045394D01*
X144010472Y-64899815D01*
X143963110Y-64852453D01*
X143908338Y-64797680D01*
X143874854Y-64736357D01*
X143879838Y-64666665D01*
X143908337Y-64622319D01*
X144010472Y-64520185D01*
X144098478Y-64374606D01*
X144149086Y-64212196D01*
X144155500Y-64141616D01*
X144155500Y-63628384D01*
X144149086Y-63557804D01*
X144098478Y-63395394D01*
X144010472Y-63249815D01*
X144010470Y-63249813D01*
X144010469Y-63249811D01*
X143890188Y-63129530D01*
X143845685Y-63102627D01*
X143744606Y-63041522D01*
X143582196Y-62990914D01*
X143582194Y-62990913D01*
X143582192Y-62990913D01*
X143532778Y-62986423D01*
X143511616Y-62984500D01*
X142848384Y-62984500D01*
X142829144Y-62986248D01*
X142777807Y-62990913D01*
X142777803Y-62990914D01*
X142777804Y-62990914D01*
X142615394Y-63041522D01*
X142615392Y-63041522D01*
X142615392Y-63041523D01*
X142615379Y-63041529D01*
X142614339Y-63042158D01*
X142597289Y-63050744D01*
X142595868Y-63051327D01*
X142202436Y-63246574D01*
X142147314Y-63259500D01*
X141960692Y-63259500D01*
X141893653Y-63239815D01*
X141847898Y-63187011D01*
X141837954Y-63117853D01*
X141853959Y-63072380D01*
X141881744Y-63025398D01*
X141927598Y-62867569D01*
X141930500Y-62830694D01*
X141930500Y-62399306D01*
X141927598Y-62362431D01*
X141914539Y-62317483D01*
X141881745Y-62204606D01*
X141881744Y-62204603D01*
X141881744Y-62204602D01*
X141798081Y-62063135D01*
X141798078Y-62063132D01*
X141793298Y-62056969D01*
X141795750Y-62055066D01*
X141769155Y-62006421D01*
X141772451Y-61960000D01*
X144480000Y-61960000D01*
X144480000Y-62257844D01*
X144486401Y-62317372D01*
X144486403Y-62317379D01*
X144536645Y-62452086D01*
X144536649Y-62452093D01*
X144622809Y-62567187D01*
X144680979Y-62610734D01*
X144722849Y-62666668D01*
X144727833Y-62736360D01*
X144694347Y-62797683D01*
X144680979Y-62809266D01*
X144622809Y-62852812D01*
X144536649Y-62967906D01*
X144536645Y-62967913D01*
X144486403Y-63102620D01*
X144486401Y-63102627D01*
X144480000Y-63162155D01*
X144480000Y-63460000D01*
X145980000Y-63460000D01*
X145980000Y-61960000D01*
X144480000Y-61960000D01*
X141772451Y-61960000D01*
X141774104Y-61936726D01*
X141794940Y-61904304D01*
X141793298Y-61903031D01*
X141798075Y-61896870D01*
X141798081Y-61896865D01*
X141881744Y-61755398D01*
X141927598Y-61597569D01*
X141930500Y-61560694D01*
X141930500Y-61460000D01*
X144480000Y-61460000D01*
X145980000Y-61460000D01*
X145980000Y-60710000D01*
X144932155Y-60710000D01*
X144872627Y-60716401D01*
X144872620Y-60716403D01*
X144737913Y-60766645D01*
X144737906Y-60766649D01*
X144622812Y-60852809D01*
X144622809Y-60852812D01*
X144536649Y-60967906D01*
X144536645Y-60967913D01*
X144486403Y-61102620D01*
X144486401Y-61102627D01*
X144480000Y-61162155D01*
X144480000Y-61460000D01*
X141930500Y-61460000D01*
X141930500Y-61129306D01*
X141927598Y-61092431D01*
X141881744Y-60934602D01*
X141798081Y-60793135D01*
X141798079Y-60793133D01*
X141798076Y-60793129D01*
X141681870Y-60676923D01*
X141681862Y-60676917D01*
X141540396Y-60593255D01*
X141540393Y-60593254D01*
X141382573Y-60547402D01*
X141382567Y-60547401D01*
X141345701Y-60544500D01*
X141345694Y-60544500D01*
X139864306Y-60544500D01*
X139864298Y-60544500D01*
X139827432Y-60547401D01*
X139827426Y-60547402D01*
X139669606Y-60593254D01*
X139669603Y-60593255D01*
X139528137Y-60676917D01*
X139528129Y-60676923D01*
X139411923Y-60793129D01*
X139411917Y-60793137D01*
X139328255Y-60934603D01*
X139328254Y-60934606D01*
X139282402Y-61092426D01*
X139282401Y-61092432D01*
X139279500Y-61129298D01*
X139279500Y-61560701D01*
X139282401Y-61597567D01*
X139282402Y-61597573D01*
X139328254Y-61755393D01*
X139328255Y-61755396D01*
X139411917Y-61896862D01*
X139416702Y-61903031D01*
X139414256Y-61904927D01*
X139440857Y-61953642D01*
X139435873Y-62023334D01*
X139415069Y-62055703D01*
X139416702Y-62056969D01*
X139411917Y-62063137D01*
X139328255Y-62204603D01*
X139328254Y-62204606D01*
X139282402Y-62362426D01*
X139282401Y-62362432D01*
X139279500Y-62399298D01*
X139279500Y-62830701D01*
X139282401Y-62867567D01*
X139282402Y-62867573D01*
X139328254Y-63025393D01*
X139328255Y-63025396D01*
X139411917Y-63166862D01*
X139416702Y-63173031D01*
X139414256Y-63174927D01*
X139440857Y-63223642D01*
X139435873Y-63293334D01*
X139415069Y-63325703D01*
X139416702Y-63326969D01*
X139411916Y-63333138D01*
X139338510Y-63457263D01*
X139287441Y-63504946D01*
X139218699Y-63517450D01*
X139156290Y-63492516D01*
X139140007Y-63480021D01*
X139133904Y-63474669D01*
X138511689Y-62852454D01*
X137880320Y-62221085D01*
X137874980Y-62214995D01*
X137853282Y-62186718D01*
X137727841Y-62090464D01*
X137581762Y-62029956D01*
X137581760Y-62029955D01*
X137464361Y-62014500D01*
X137425000Y-62009318D01*
X137389670Y-62013969D01*
X137381572Y-62014500D01*
X136695907Y-62014500D01*
X136628868Y-61994815D01*
X136583113Y-61942011D01*
X136573169Y-61872853D01*
X136589175Y-61827380D01*
X136610973Y-61790518D01*
X136631744Y-61755398D01*
X136677598Y-61597569D01*
X136680500Y-61560694D01*
X136680500Y-61129306D01*
X136677598Y-61092431D01*
X136631744Y-60934602D01*
X136548081Y-60793135D01*
X136548079Y-60793133D01*
X136548076Y-60793129D01*
X136519800Y-60764853D01*
X136486315Y-60703530D01*
X136491299Y-60633838D01*
X136533171Y-60577905D01*
X136598635Y-60553488D01*
X136620090Y-60553815D01*
X136631681Y-60554999D01*
X136655000Y-60554998D01*
X136655000Y-59830000D01*
X137155000Y-59830000D01*
X137155000Y-60554999D01*
X137178308Y-60554999D01*
X137178322Y-60554998D01*
X137277607Y-60544855D01*
X137438481Y-60491547D01*
X137438492Y-60491542D01*
X137582728Y-60402575D01*
X137582732Y-60402572D01*
X137702572Y-60282732D01*
X137702575Y-60282728D01*
X137791542Y-60138492D01*
X137791547Y-60138481D01*
X137844855Y-59977606D01*
X137854999Y-59878322D01*
X137855000Y-59878309D01*
X137855000Y-59830000D01*
X137155000Y-59830000D01*
X136655000Y-59830000D01*
X136655000Y-58605000D01*
X137155000Y-58605000D01*
X137155000Y-59330000D01*
X137854999Y-59330000D01*
X137854999Y-59281692D01*
X137854998Y-59281677D01*
X137844855Y-59182392D01*
X137791547Y-59021518D01*
X137791542Y-59021507D01*
X137702575Y-58877271D01*
X137702572Y-58877267D01*
X137582732Y-58757427D01*
X137582728Y-58757424D01*
X137438492Y-58668457D01*
X137438481Y-58668452D01*
X137277606Y-58615144D01*
X137178322Y-58605000D01*
X137155000Y-58605000D01*
X136655000Y-58605000D01*
X136655000Y-58604999D01*
X136631693Y-58605000D01*
X136631674Y-58605001D01*
X136532391Y-58615144D01*
X136431704Y-58648508D01*
X136361876Y-58650909D01*
X136301834Y-58615177D01*
X136270642Y-58552657D01*
X136269380Y-58517846D01*
X136275460Y-58460000D01*
X136255674Y-58271744D01*
X136197179Y-58091716D01*
X136102533Y-57927784D01*
X135975871Y-57787112D01*
X135970605Y-57783286D01*
X135822734Y-57675851D01*
X135822729Y-57675848D01*
X135649807Y-57598857D01*
X135649802Y-57598855D01*
X135504000Y-57567865D01*
X135464646Y-57559500D01*
X135275354Y-57559500D01*
X135242897Y-57566398D01*
X135090197Y-57598855D01*
X135090192Y-57598857D01*
X134917270Y-57675848D01*
X134917265Y-57675851D01*
X134764129Y-57787111D01*
X134637466Y-57927785D01*
X134542821Y-58091715D01*
X134542818Y-58091722D01*
X134503644Y-58212289D01*
X134484326Y-58271744D01*
X134480131Y-58311662D01*
X134464540Y-58460000D01*
X134473353Y-58543861D01*
X134473673Y-58548793D01*
X134473904Y-58558027D01*
X134473905Y-58558045D01*
X134476050Y-58570704D01*
X134476580Y-58574574D01*
X134484326Y-58648257D01*
X134484327Y-58648262D01*
X134491669Y-58670861D01*
X134495995Y-58688465D01*
X134515508Y-58803659D01*
X134511672Y-58861142D01*
X134441766Y-59086259D01*
X134441765Y-59086263D01*
X134435584Y-59117575D01*
X134433609Y-59125076D01*
X134414651Y-59182288D01*
X134404500Y-59281647D01*
X134404500Y-59878337D01*
X134404501Y-59878355D01*
X134414651Y-59977709D01*
X134434233Y-60036806D01*
X134438976Y-60056258D01*
X134441767Y-60073744D01*
X134550454Y-60423743D01*
X134551536Y-60493605D01*
X134514677Y-60552961D01*
X134466628Y-60579593D01*
X134419604Y-60593254D01*
X134419603Y-60593255D01*
X134278137Y-60676917D01*
X134278129Y-60676923D01*
X134161923Y-60793129D01*
X134161917Y-60793137D01*
X134078255Y-60934603D01*
X134078254Y-60934606D01*
X134032402Y-61092426D01*
X134032401Y-61092432D01*
X134029500Y-61129298D01*
X134029500Y-61560701D01*
X134032401Y-61597567D01*
X134032402Y-61597573D01*
X134078254Y-61755393D01*
X134078255Y-61755396D01*
X134161917Y-61896862D01*
X134166702Y-61903031D01*
X134164256Y-61904927D01*
X134190857Y-61953642D01*
X134185873Y-62023334D01*
X134165069Y-62055703D01*
X134166702Y-62056969D01*
X134161917Y-62063137D01*
X134078255Y-62204603D01*
X134078254Y-62204606D01*
X134032402Y-62362426D01*
X134032401Y-62362432D01*
X134029500Y-62399298D01*
X134029500Y-62830701D01*
X134032401Y-62867567D01*
X134032402Y-62867573D01*
X134078254Y-63025393D01*
X134078255Y-63025396D01*
X134161917Y-63166862D01*
X134166702Y-63173031D01*
X134164248Y-63174933D01*
X134190844Y-63223578D01*
X134185895Y-63293273D01*
X134165074Y-63325706D01*
X134166702Y-63326969D01*
X134161917Y-63333137D01*
X134078255Y-63474603D01*
X134078254Y-63474606D01*
X134032402Y-63632426D01*
X134032401Y-63632432D01*
X134029500Y-63669298D01*
X134029500Y-64100701D01*
X134032401Y-64137567D01*
X134032402Y-64137573D01*
X134078254Y-64295393D01*
X134078254Y-64295394D01*
X134078255Y-64295396D01*
X134078256Y-64295398D01*
X134095939Y-64325298D01*
X134108998Y-64347380D01*
X134126180Y-64415104D01*
X134104019Y-64481366D01*
X134049553Y-64525129D01*
X134002265Y-64534500D01*
X133589189Y-64534500D01*
X133531740Y-64520389D01*
X133078960Y-64283677D01*
X133067007Y-64277559D01*
X133067154Y-64277270D01*
X133060381Y-64273782D01*
X133058697Y-64272997D01*
X132897709Y-64219651D01*
X132798346Y-64209500D01*
X132201662Y-64209500D01*
X132201644Y-64209501D01*
X132102292Y-64219650D01*
X132102288Y-64219651D01*
X131941303Y-64272996D01*
X131941295Y-64273000D01*
X131938559Y-64274688D01*
X131922951Y-64282845D01*
X131921044Y-64283674D01*
X131727273Y-64384977D01*
X131658743Y-64398592D01*
X131614703Y-64386163D01*
X131494131Y-64326328D01*
X131494121Y-64326324D01*
X131491677Y-64325298D01*
X131475539Y-64317086D01*
X131474606Y-64316522D01*
X131391734Y-64290698D01*
X131389846Y-64290076D01*
X131374035Y-64284579D01*
X131374024Y-64284576D01*
X131370845Y-64283904D01*
X131365227Y-64282438D01*
X131312197Y-64265914D01*
X131294550Y-64264310D01*
X131241616Y-64259500D01*
X130578384Y-64259500D01*
X130507804Y-64265914D01*
X130463559Y-64279701D01*
X130404724Y-64298034D01*
X130334864Y-64299184D01*
X130275472Y-64262382D01*
X130250129Y-64218652D01*
X130224358Y-64140880D01*
X130224356Y-64140875D01*
X130132315Y-63991654D01*
X130008345Y-63867684D01*
X129859124Y-63775643D01*
X129859119Y-63775641D01*
X129692697Y-63720494D01*
X129692690Y-63720493D01*
X129589986Y-63710000D01*
X129339999Y-63710000D01*
X129340000Y-64936000D01*
X129320315Y-65003039D01*
X129267512Y-65048794D01*
X129216000Y-65060000D01*
X128964000Y-65060000D01*
X128896961Y-65040315D01*
X128851206Y-64987511D01*
X128840000Y-64936000D01*
X128840000Y-63710000D01*
X128590029Y-63710000D01*
X128590012Y-63710001D01*
X128536602Y-63715458D01*
X128467909Y-63702688D01*
X128417025Y-63654808D01*
X128400000Y-63592100D01*
X128400000Y-35624500D01*
X128419685Y-35557461D01*
X128472489Y-35511706D01*
X128524000Y-35500500D01*
X164875500Y-35500500D01*
X164942539Y-35520185D01*
G37*
%TD.AperFunction*%
%TA.AperFunction,Conductor*%
G36*
X134141727Y-65794524D02*
G01*
X134428945Y-65910541D01*
X134428975Y-65910551D01*
X134428979Y-65910553D01*
X134473662Y-65926208D01*
X134473663Y-65926208D01*
X134473674Y-65926212D01*
X134495947Y-65929516D01*
X134504154Y-65931308D01*
X134577431Y-65952598D01*
X134614306Y-65955500D01*
X134614314Y-65955500D01*
X136095686Y-65955500D01*
X136095694Y-65955500D01*
X136132569Y-65952598D01*
X136132571Y-65952597D01*
X136132573Y-65952597D01*
X136174191Y-65940505D01*
X136290398Y-65906744D01*
X136412378Y-65834605D01*
X136480103Y-65817422D01*
X136546366Y-65839582D01*
X136590129Y-65894048D01*
X136599500Y-65941337D01*
X136599500Y-66100783D01*
X136581525Y-66165084D01*
X136497305Y-66303953D01*
X136445710Y-66351067D01*
X136376834Y-66362808D01*
X136324501Y-66344134D01*
X136308919Y-66334175D01*
X136308904Y-66334166D01*
X136308875Y-66334147D01*
X136306646Y-66332741D01*
X136303441Y-66330721D01*
X136292628Y-66325980D01*
X136285441Y-66322253D01*
X136234606Y-66291522D01*
X136170692Y-66271606D01*
X136072196Y-66240914D01*
X136072194Y-66240913D01*
X136072192Y-66240913D01*
X136022778Y-66236423D01*
X136001616Y-66234500D01*
X135338384Y-66234500D01*
X135319144Y-66236248D01*
X135267807Y-66240913D01*
X135105393Y-66291522D01*
X134959811Y-66379530D01*
X134839530Y-66499811D01*
X134751522Y-66645393D01*
X134700913Y-66807807D01*
X134694500Y-66878386D01*
X134694500Y-67391613D01*
X134700913Y-67462192D01*
X134700913Y-67462194D01*
X134700914Y-67462196D01*
X134751522Y-67624606D01*
X134763667Y-67644697D01*
X134839530Y-67770188D01*
X134942015Y-67872673D01*
X134975500Y-67933996D01*
X134970516Y-68003688D01*
X134942015Y-68048035D01*
X134839928Y-68150121D01*
X134839927Y-68150122D01*
X134751980Y-68295604D01*
X134701409Y-68457893D01*
X134695000Y-68528427D01*
X134695000Y-68535000D01*
X136185000Y-68535000D01*
X136198681Y-68521319D01*
X136260004Y-68487834D01*
X136286362Y-68485000D01*
X138866000Y-68485000D01*
X138933039Y-68504685D01*
X138978794Y-68557489D01*
X138990000Y-68609000D01*
X138990000Y-68861000D01*
X138970315Y-68928039D01*
X138917511Y-68973794D01*
X138866000Y-68985000D01*
X137450000Y-68985000D01*
X137450000Y-69601000D01*
X137430315Y-69668039D01*
X137377511Y-69713794D01*
X137326000Y-69725000D01*
X137220000Y-69725000D01*
X137220000Y-70606000D01*
X137200315Y-70673039D01*
X137147511Y-70718794D01*
X137096000Y-70730000D01*
X136844000Y-70730000D01*
X136776961Y-70710315D01*
X136731206Y-70657511D01*
X136720000Y-70606000D01*
X136720000Y-69364000D01*
X136739685Y-69296961D01*
X136792489Y-69251206D01*
X136844000Y-69240000D01*
X136950000Y-69240000D01*
X136950000Y-68985000D01*
X136685000Y-68985000D01*
X136671319Y-68998681D01*
X136609996Y-69032166D01*
X136583638Y-69035000D01*
X134695001Y-69035000D01*
X134695001Y-69041582D01*
X134701408Y-69112102D01*
X134701409Y-69112110D01*
X134709823Y-69139110D01*
X134710975Y-69208970D01*
X134674174Y-69268362D01*
X134611105Y-69298430D01*
X134591438Y-69300000D01*
X128524000Y-69300000D01*
X128456961Y-69280315D01*
X128411206Y-69227511D01*
X128400000Y-69176000D01*
X128400000Y-68028403D01*
X128419685Y-67961364D01*
X128472489Y-67915609D01*
X128536600Y-67905045D01*
X128589991Y-67910500D01*
X129590008Y-67910499D01*
X129590016Y-67910498D01*
X129590019Y-67910498D01*
X129613896Y-67908058D01*
X129692797Y-67899999D01*
X129758570Y-67878203D01*
X129765469Y-67876352D01*
X129772789Y-67874834D01*
X129784987Y-67869663D01*
X129789665Y-67867898D01*
X129859334Y-67844814D01*
X129885839Y-67828464D01*
X129902552Y-67819832D01*
X129905261Y-67818685D01*
X129905262Y-67818683D01*
X129905265Y-67818683D01*
X130050469Y-67730911D01*
X130195614Y-67643174D01*
X130263168Y-67625341D01*
X130314882Y-67638220D01*
X130325852Y-67643664D01*
X130325857Y-67643666D01*
X130325867Y-67643671D01*
X130325876Y-67643674D01*
X130328312Y-67644697D01*
X130344460Y-67652913D01*
X130345394Y-67653478D01*
X130345397Y-67653479D01*
X130345396Y-67653479D01*
X130428066Y-67679240D01*
X130429970Y-67679867D01*
X130445904Y-67685407D01*
X130449165Y-67686097D01*
X130454762Y-67687557D01*
X130507804Y-67704086D01*
X130578384Y-67710500D01*
X130578387Y-67710500D01*
X131241613Y-67710500D01*
X131241616Y-67710500D01*
X131312196Y-67704086D01*
X131474606Y-67653478D01*
X131620185Y-67565472D01*
X131654222Y-67531435D01*
X131715544Y-67497949D01*
X131785236Y-67502933D01*
X131807001Y-67513577D01*
X131941507Y-67596542D01*
X131941518Y-67596547D01*
X132102393Y-67649855D01*
X132201683Y-67659999D01*
X132249999Y-67659998D01*
X132250000Y-67659998D01*
X132250000Y-66960000D01*
X132750000Y-66960000D01*
X132750000Y-67659999D01*
X132798308Y-67659999D01*
X132798322Y-67659998D01*
X132897607Y-67649855D01*
X133058481Y-67596547D01*
X133058492Y-67596542D01*
X133202728Y-67507575D01*
X133202732Y-67507572D01*
X133322572Y-67387732D01*
X133322575Y-67387728D01*
X133411542Y-67243492D01*
X133411547Y-67243481D01*
X133464855Y-67082606D01*
X133474999Y-66983322D01*
X133475000Y-66983309D01*
X133475000Y-66960000D01*
X132750000Y-66960000D01*
X132250000Y-66960000D01*
X132250000Y-66584000D01*
X132269685Y-66516961D01*
X132322489Y-66471206D01*
X132374000Y-66460000D01*
X133474999Y-66460000D01*
X133474999Y-66436692D01*
X133474998Y-66436677D01*
X133464855Y-66337392D01*
X133411547Y-66176518D01*
X133411544Y-66176511D01*
X133334950Y-66052335D01*
X133316509Y-65984942D01*
X133337431Y-65918279D01*
X133383036Y-65877350D01*
X133531736Y-65799610D01*
X133589184Y-65785500D01*
X134095286Y-65785500D01*
X134141727Y-65794524D01*
G37*
%TD.AperFunction*%
%TD*%
%TA.AperFunction,Conductor*%
%TO.N,Net-(U2-EN)*%
G36*
X159921367Y-70769820D02*
G01*
X161543147Y-71207019D01*
X161550243Y-71212481D01*
X161551462Y-71221118D01*
X161433087Y-71701057D01*
X161427778Y-71708269D01*
X161420799Y-71709918D01*
X160185675Y-71611632D01*
X160177700Y-71607560D01*
X160176853Y-71606436D01*
X159915570Y-71212481D01*
X159743346Y-70952807D01*
X159741630Y-70944020D01*
X159744822Y-70938071D01*
X159910050Y-70772843D01*
X159918322Y-70769417D01*
X159921367Y-70769820D01*
G37*
%TD.AperFunction*%
%TD*%
%TA.AperFunction,Conductor*%
%TO.N,Net-(U2-~{RST})*%
G36*
X159921334Y-74779772D02*
G01*
X161541791Y-75207071D01*
X161548917Y-75212494D01*
X161550174Y-75221158D01*
X161433057Y-75701076D01*
X161427767Y-75708301D01*
X161420822Y-75709970D01*
X160185696Y-75617943D01*
X160177700Y-75613911D01*
X160176831Y-75612767D01*
X160111476Y-75514768D01*
X159743380Y-74962814D01*
X159741642Y-74954031D01*
X159744840Y-74948053D01*
X159910081Y-74782812D01*
X159918353Y-74779386D01*
X159921334Y-74779772D01*
G37*
%TD.AperFunction*%
%TD*%
%TA.AperFunction,Conductor*%
%TO.N,Net-(U2-~{RST})*%
G36*
X159107747Y-58640844D02*
G01*
X159492628Y-58980880D01*
X159496559Y-58988926D01*
X159494850Y-58995773D01*
X159228425Y-59429425D01*
X159221174Y-59434680D01*
X159218456Y-59435000D01*
X158981544Y-59435000D01*
X158973271Y-59431573D01*
X158971575Y-59429425D01*
X158705149Y-58995773D01*
X158703738Y-58986930D01*
X158707369Y-58980881D01*
X159092253Y-58640843D01*
X159100722Y-58637934D01*
X159107747Y-58640844D01*
G37*
%TD.AperFunction*%
%TD*%
%TA.AperFunction,Conductor*%
%TO.N,Net-(L1-Pad4)*%
G36*
X131810847Y-77529380D02*
G01*
X131812772Y-77530935D01*
X131977639Y-77695802D01*
X131980198Y-77699653D01*
X132434706Y-78813081D01*
X132434660Y-78822036D01*
X132428357Y-78828310D01*
X131703780Y-79128845D01*
X131694825Y-79128850D01*
X131694807Y-79128842D01*
X130973837Y-78829231D01*
X130967512Y-78822892D01*
X130967523Y-78813937D01*
X130968494Y-78812088D01*
X131794672Y-77532858D01*
X131802038Y-77527770D01*
X131810847Y-77529380D01*
G37*
%TD.AperFunction*%
%TD*%
%TA.AperFunction,Conductor*%
%TO.N,Net-(L1-Pad4)*%
G36*
X138380927Y-70244624D02*
G01*
X138686945Y-70366386D01*
X138965010Y-70477026D01*
X138971430Y-70483269D01*
X138972085Y-70485268D01*
X139130046Y-71170161D01*
X139128566Y-71178992D01*
X139122913Y-71183684D01*
X138094448Y-71586663D01*
X138085495Y-71586490D01*
X138081907Y-71584042D01*
X137915957Y-71418092D01*
X137912530Y-71409819D01*
X137913336Y-71405553D01*
X138365709Y-70251224D01*
X138371917Y-70244774D01*
X138380870Y-70244602D01*
X138380927Y-70244624D01*
G37*
%TD.AperFunction*%
%TD*%
%TA.AperFunction,Conductor*%
%TO.N,Net-(L1-Pad4)*%
G36*
X140276893Y-68793646D02*
G01*
X140529831Y-69176075D01*
X140531536Y-69184865D01*
X140527370Y-69191674D01*
X140078721Y-69549707D01*
X140070117Y-69552189D01*
X140063150Y-69548835D01*
X139896007Y-69381692D01*
X139892965Y-69376394D01*
X139812451Y-69070012D01*
X139813663Y-69061140D01*
X139817730Y-69057017D01*
X140261100Y-68790076D01*
X140269954Y-68788745D01*
X140276893Y-68793646D01*
G37*
%TD.AperFunction*%
%TD*%
%TA.AperFunction,Conductor*%
%TO.N,Net-(L1-Pad4)*%
G36*
X139874661Y-69403454D02*
G01*
X139877961Y-69405772D01*
X140043943Y-69571754D01*
X140047370Y-69580027D01*
X140046471Y-69584525D01*
X139574483Y-70717762D01*
X139568138Y-70724082D01*
X139559220Y-70724080D01*
X138975003Y-70483062D01*
X138968662Y-70476739D01*
X138968018Y-70474666D01*
X138823573Y-69789960D01*
X138825218Y-69781160D01*
X138831045Y-69776544D01*
X139865716Y-69403040D01*
X139874661Y-69403454D01*
G37*
%TD.AperFunction*%
%TD*%
%TA.AperFunction,Conductor*%
%TO.N,+5V*%
G36*
X152585759Y-52500898D02*
G01*
X152589046Y-52507364D01*
X152836216Y-54088779D01*
X152834107Y-54097482D01*
X152830167Y-54100907D01*
X151843011Y-54628057D01*
X151834099Y-54628931D01*
X151831989Y-54628057D01*
X150844832Y-54100907D01*
X150839148Y-54093987D01*
X150838783Y-54088781D01*
X151085953Y-52507364D01*
X151090618Y-52499720D01*
X151097514Y-52497471D01*
X152577486Y-52497471D01*
X152585759Y-52500898D01*
G37*
%TD.AperFunction*%
%TD*%
%TA.AperFunction,Conductor*%
%TO.N,+5V*%
G36*
X152675107Y-52004985D02*
G01*
X152683375Y-52008422D01*
X152686792Y-52016699D01*
X152686772Y-52017372D01*
X152588148Y-53693987D01*
X152584241Y-53702045D01*
X152576468Y-53705000D01*
X151098532Y-53705000D01*
X151090259Y-53701573D01*
X151086852Y-53693987D01*
X150988227Y-52017370D01*
X150991162Y-52008912D01*
X150999220Y-52005005D01*
X150999878Y-52004985D01*
X151837500Y-52004000D01*
X152675107Y-52004985D01*
G37*
%TD.AperFunction*%
%TD*%
%TA.AperFunction,Conductor*%
%TO.N,+5V*%
G36*
X135372171Y-58459905D02*
G01*
X135697706Y-58595626D01*
X135730622Y-58609350D01*
X135736940Y-58615697D01*
X135737573Y-58622542D01*
X135607037Y-59247270D01*
X135606945Y-59247709D01*
X135601898Y-59255106D01*
X135595492Y-59257016D01*
X135114885Y-59257016D01*
X135106612Y-59253589D01*
X135103349Y-59247270D01*
X134972306Y-58473616D01*
X134974303Y-58464890D01*
X134981888Y-58460129D01*
X134983807Y-58459965D01*
X135367648Y-58459005D01*
X135372171Y-58459905D01*
G37*
%TD.AperFunction*%
%TD*%
%TA.AperFunction,Conductor*%
%TO.N,+5V*%
G36*
X135604655Y-58658427D02*
G01*
X135607556Y-58663230D01*
X135785472Y-59236167D01*
X135784652Y-59245084D01*
X135781487Y-59248868D01*
X135362189Y-59575401D01*
X135353556Y-59577781D01*
X135347811Y-59575401D01*
X134928512Y-59248868D01*
X134924090Y-59241081D01*
X134924527Y-59236167D01*
X135102444Y-58663230D01*
X135108171Y-58656346D01*
X135113618Y-58655000D01*
X135596382Y-58655000D01*
X135604655Y-58658427D01*
G37*
%TD.AperFunction*%
%TD*%
%TA.AperFunction,Conductor*%
%TO.N,+5V*%
G36*
X135603362Y-60748427D02*
G01*
X135606630Y-60754777D01*
X135654012Y-61039073D01*
X135651992Y-61047797D01*
X135650758Y-61049255D01*
X135363287Y-61337685D01*
X135355019Y-61341126D01*
X135346741Y-61337713D01*
X135346713Y-61337685D01*
X135059241Y-61049255D01*
X135055828Y-61040977D01*
X135055986Y-61039083D01*
X135103370Y-60754775D01*
X135108111Y-60747179D01*
X135114911Y-60745000D01*
X135595089Y-60745000D01*
X135603362Y-60748427D01*
G37*
%TD.AperFunction*%
%TD*%
%TA.AperFunction,Conductor*%
%TO.N,+5V*%
G36*
X135362187Y-59584597D02*
G01*
X135680857Y-59832764D01*
X135781487Y-59911131D01*
X135785909Y-59918918D01*
X135785472Y-59923832D01*
X135607556Y-60496770D01*
X135601829Y-60503654D01*
X135596382Y-60505000D01*
X135113618Y-60505000D01*
X135105345Y-60501573D01*
X135102444Y-60496770D01*
X134924527Y-59923832D01*
X134925347Y-59914915D01*
X134928510Y-59911132D01*
X135347811Y-59584597D01*
X135356444Y-59582218D01*
X135362187Y-59584597D01*
G37*
%TD.AperFunction*%
%TD*%
%TA.AperFunction,Conductor*%
%TO.N,+5V*%
G36*
X151849845Y-51155726D02*
G01*
X153526487Y-51254352D01*
X153534545Y-51258259D01*
X153537500Y-51266032D01*
X153537500Y-52743967D01*
X153534073Y-52752240D01*
X153526487Y-52755647D01*
X151849872Y-52854272D01*
X151841412Y-52851337D01*
X151837505Y-52843279D01*
X151837485Y-52842606D01*
X151836500Y-52005014D01*
X151837369Y-51266032D01*
X151837485Y-51167391D01*
X151840922Y-51159124D01*
X151849199Y-51155707D01*
X151849845Y-51155726D01*
G37*
%TD.AperFunction*%
%TD*%
%TA.AperFunction,Conductor*%
%TO.N,+3V3*%
G36*
X160324407Y-56606712D02*
G01*
X160663758Y-56977096D01*
X160666820Y-56985511D01*
X160663758Y-56992904D01*
X160324407Y-57363287D01*
X160316291Y-57367072D01*
X160310579Y-57365863D01*
X159801499Y-57113225D01*
X159795612Y-57106478D01*
X159795000Y-57102745D01*
X159795000Y-56867254D01*
X159798427Y-56858981D01*
X159801495Y-56856776D01*
X160310580Y-56604135D01*
X160319513Y-56603528D01*
X160324407Y-56606712D01*
G37*
%TD.AperFunction*%
%TD*%
%TA.AperFunction,Conductor*%
%TO.N,+3V3*%
G36*
X159459419Y-56604135D02*
G01*
X159968502Y-56856775D01*
X159974388Y-56863521D01*
X159975000Y-56867254D01*
X159975000Y-57102745D01*
X159971573Y-57111018D01*
X159968501Y-57113225D01*
X159459420Y-57365863D01*
X159450486Y-57366471D01*
X159445592Y-57363287D01*
X159214459Y-57111018D01*
X159106240Y-56992902D01*
X159103179Y-56984489D01*
X159106240Y-56977097D01*
X159445593Y-56606711D01*
X159453708Y-56602927D01*
X159459419Y-56604135D01*
G37*
%TD.AperFunction*%
%TD*%
%TA.AperFunction,Conductor*%
%TO.N,+3V3*%
G36*
X162647579Y-58589968D02*
G01*
X162655842Y-58593416D01*
X162659248Y-58601697D01*
X162659225Y-58602398D01*
X162610686Y-59379030D01*
X162606750Y-59387073D01*
X162599009Y-59390000D01*
X161920991Y-59390000D01*
X161912718Y-59386573D01*
X161909314Y-59379030D01*
X161860774Y-58602395D01*
X161863678Y-58593927D01*
X161871721Y-58589991D01*
X161872390Y-58589969D01*
X162260000Y-58589000D01*
X162647579Y-58589968D01*
G37*
%TD.AperFunction*%
%TD*%
%TA.AperFunction,Conductor*%
%TO.N,+3V3*%
G36*
X162246951Y-58588765D02*
G01*
X162691034Y-58893178D01*
X162695920Y-58900682D01*
X162695993Y-58904543D01*
X162611479Y-59475015D01*
X162606876Y-59482696D01*
X162599905Y-59485000D01*
X161919601Y-59485000D01*
X161911328Y-59481573D01*
X161908126Y-59475584D01*
X161798753Y-58926035D01*
X161800499Y-58917252D01*
X161803168Y-58914421D01*
X162233279Y-58589083D01*
X162241943Y-58586826D01*
X162246951Y-58588765D01*
G37*
%TD.AperFunction*%
%TD*%
%TA.AperFunction,Conductor*%
%TO.N,+3V3*%
G36*
X161799122Y-57933390D02*
G01*
X162126480Y-58086449D01*
X162402960Y-58215720D01*
X162409003Y-58222329D01*
X162408824Y-58230771D01*
X162262563Y-58586195D01*
X162256245Y-58592542D01*
X162256195Y-58592563D01*
X161901072Y-58738700D01*
X161892118Y-58738679D01*
X161885883Y-58732529D01*
X161822525Y-58586195D01*
X161618076Y-58113991D01*
X161617935Y-58105039D01*
X161620539Y-58101073D01*
X161785896Y-57935716D01*
X161794168Y-57932290D01*
X161799122Y-57933390D01*
G37*
%TD.AperFunction*%
%TD*%
%TA.AperFunction,Conductor*%
%TO.N,+3V3*%
G36*
X161144366Y-56897920D02*
G01*
X161148609Y-56903170D01*
X161409759Y-57543720D01*
X161409709Y-57552675D01*
X161407198Y-57556410D01*
X161241719Y-57721889D01*
X161233446Y-57725316D01*
X161228483Y-57724211D01*
X160514418Y-57389732D01*
X160508380Y-57383120D01*
X160508561Y-57374684D01*
X160666879Y-56990154D01*
X160673197Y-56983810D01*
X160675517Y-56983115D01*
X161135602Y-56896091D01*
X161144366Y-56897920D01*
G37*
%TD.AperFunction*%
%TD*%
%TA.AperFunction,Conductor*%
%TO.N,+3V3*%
G36*
X161641442Y-57775639D02*
G01*
X162380429Y-58111549D01*
X162421633Y-58130279D01*
X162427746Y-58136822D01*
X162427561Y-58145502D01*
X162242792Y-58580792D01*
X162236405Y-58587068D01*
X162235626Y-58587351D01*
X161775502Y-58736341D01*
X161766576Y-58735629D01*
X161760996Y-58729454D01*
X161460054Y-57956177D01*
X161460247Y-57947226D01*
X161462681Y-57943665D01*
X161628329Y-57778017D01*
X161636601Y-57774591D01*
X161641442Y-57775639D01*
G37*
%TD.AperFunction*%
%TD*%
%TA.AperFunction,Conductor*%
%TO.N,+3V3*%
G36*
X157889419Y-56604135D02*
G01*
X158398502Y-56856775D01*
X158404388Y-56863521D01*
X158405000Y-56867254D01*
X158405000Y-57102745D01*
X158401573Y-57111018D01*
X158398501Y-57113225D01*
X157889420Y-57365863D01*
X157880486Y-57366471D01*
X157875592Y-57363287D01*
X157644459Y-57111018D01*
X157536240Y-56992902D01*
X157533179Y-56984489D01*
X157536240Y-56977097D01*
X157875593Y-56606711D01*
X157883708Y-56602927D01*
X157889419Y-56604135D01*
G37*
%TD.AperFunction*%
%TD*%
%TA.AperFunction,Conductor*%
%TO.N,+3V3*%
G36*
X158754407Y-56606712D02*
G01*
X159093758Y-56977096D01*
X159096820Y-56985511D01*
X159093758Y-56992904D01*
X158754407Y-57363287D01*
X158746291Y-57367072D01*
X158740579Y-57365863D01*
X158231499Y-57113225D01*
X158225612Y-57106478D01*
X158225000Y-57102745D01*
X158225000Y-56867254D01*
X158228427Y-56858981D01*
X158231495Y-56856776D01*
X158740580Y-56604135D01*
X158749513Y-56603528D01*
X158754407Y-56606712D01*
G37*
%TD.AperFunction*%
%TD*%
%TA.AperFunction,Conductor*%
%TO.N,/HLW8032/IN*%
G36*
X136091606Y-63598445D02*
G01*
X136091976Y-63598614D01*
X136473366Y-63781813D01*
X136479340Y-63788484D01*
X136480000Y-63792359D01*
X136480000Y-63977640D01*
X136476573Y-63985913D01*
X136473366Y-63988186D01*
X136092003Y-64171372D01*
X136083062Y-64171866D01*
X136082653Y-64171713D01*
X135381667Y-63895886D01*
X135375224Y-63889669D01*
X135375065Y-63880716D01*
X135381283Y-63874272D01*
X135381668Y-63874113D01*
X136082655Y-63598286D01*
X136091606Y-63598445D01*
G37*
%TD.AperFunction*%
%TD*%
%TA.AperFunction,Conductor*%
%TO.N,/HLW8032/IN*%
G36*
X137301685Y-66288427D02*
G01*
X137303416Y-66290633D01*
X137644392Y-66852866D01*
X137645752Y-66861717D01*
X137641223Y-66868429D01*
X137206835Y-67181080D01*
X137198118Y-67183132D01*
X137193165Y-67181080D01*
X136758776Y-66868429D01*
X136754063Y-66860815D01*
X136755606Y-66852868D01*
X137096583Y-66290633D01*
X137103804Y-66285336D01*
X137106588Y-66285000D01*
X137293412Y-66285000D01*
X137301685Y-66288427D01*
G37*
%TD.AperFunction*%
%TD*%
%TA.AperFunction,Conductor*%
%TO.N,/HLW8032/IN*%
G36*
X136870095Y-66760088D02*
G01*
X137035772Y-66972832D01*
X137195401Y-67177811D01*
X137197781Y-67186444D01*
X137195401Y-67192189D01*
X136870097Y-67609910D01*
X136862310Y-67614332D01*
X136855109Y-67612906D01*
X136280943Y-67288359D01*
X136275427Y-67281305D01*
X136275000Y-67278174D01*
X136275000Y-67091825D01*
X136278427Y-67083552D01*
X136280939Y-67081642D01*
X136855110Y-66757092D01*
X136863997Y-66756005D01*
X136870095Y-66760088D01*
G37*
%TD.AperFunction*%
%TD*%
%TA.AperFunction,Conductor*%
%TO.N,/HLW8032/IN*%
G36*
X136036639Y-66760078D02*
G01*
X136539601Y-67081549D01*
X136544726Y-67088892D01*
X136545000Y-67091407D01*
X136545000Y-67277425D01*
X136541573Y-67285698D01*
X136538088Y-67288100D01*
X136029245Y-67516318D01*
X136020294Y-67516577D01*
X136015830Y-67513547D01*
X135809272Y-67288100D01*
X135676356Y-67143029D01*
X135673295Y-67134615D01*
X135676483Y-67127087D01*
X135710225Y-67091407D01*
X136021838Y-66761896D01*
X136030012Y-66758241D01*
X136036639Y-66760078D01*
G37*
%TD.AperFunction*%
%TD*%
%TA.AperFunction,Conductor*%
%TO.N,/HLW8032/IP*%
G36*
X136091606Y-62328445D02*
G01*
X136091976Y-62328614D01*
X136473366Y-62511813D01*
X136479340Y-62518484D01*
X136480000Y-62522359D01*
X136480000Y-62707640D01*
X136476573Y-62715913D01*
X136473366Y-62718186D01*
X136092003Y-62901372D01*
X136083062Y-62901866D01*
X136082653Y-62901713D01*
X135381667Y-62625886D01*
X135375224Y-62619669D01*
X135375065Y-62610716D01*
X135381283Y-62604272D01*
X135381668Y-62604113D01*
X136082655Y-62328286D01*
X136091606Y-62328445D01*
G37*
%TD.AperFunction*%
%TD*%
%TA.AperFunction,Conductor*%
%TO.N,/HLW8032/IP*%
G36*
X138841685Y-66288427D02*
G01*
X138843416Y-66290633D01*
X139184392Y-66852866D01*
X139185752Y-66861717D01*
X139181223Y-66868429D01*
X138746835Y-67181080D01*
X138738118Y-67183132D01*
X138733165Y-67181080D01*
X138298776Y-66868429D01*
X138294063Y-66860815D01*
X138295606Y-66852868D01*
X138636583Y-66290633D01*
X138643804Y-66285336D01*
X138646588Y-66285000D01*
X138833412Y-66285000D01*
X138841685Y-66288427D01*
G37*
%TD.AperFunction*%
%TD*%
%TA.AperFunction,Conductor*%
%TO.N,/HLW8032/IP*%
G36*
X139084889Y-66757092D02*
G01*
X139659058Y-67081641D01*
X139664573Y-67088694D01*
X139665000Y-67091825D01*
X139665000Y-67278174D01*
X139661573Y-67286447D01*
X139659057Y-67288359D01*
X139084890Y-67612906D01*
X139076002Y-67613994D01*
X139069903Y-67609911D01*
X138744597Y-67192188D01*
X138742218Y-67183556D01*
X138744597Y-67177812D01*
X139069904Y-66760087D01*
X139077689Y-66755667D01*
X139084889Y-66757092D01*
G37*
%TD.AperFunction*%
%TD*%
%TA.AperFunction,Conductor*%
%TO.N,/HLW8032/IP*%
G36*
X139918161Y-66761897D02*
G01*
X140263516Y-67127087D01*
X140266710Y-67135452D01*
X140263642Y-67143030D01*
X139924169Y-67513547D01*
X139916053Y-67517332D01*
X139910754Y-67516318D01*
X139401912Y-67288100D01*
X139395766Y-67281588D01*
X139395000Y-67277425D01*
X139395000Y-67091407D01*
X139398427Y-67083134D01*
X139400399Y-67081549D01*
X139903360Y-66760077D01*
X139912175Y-66758510D01*
X139918161Y-66761897D01*
G37*
%TD.AperFunction*%
%TD*%
%TA.AperFunction,Conductor*%
%TO.N,/HLW8032/VP*%
G36*
X132169895Y-64734830D02*
G01*
X132495401Y-65152811D01*
X132497781Y-65161444D01*
X132495401Y-65167189D01*
X132169895Y-65585169D01*
X132162108Y-65589591D01*
X132155243Y-65588349D01*
X131581278Y-65288282D01*
X131575534Y-65281412D01*
X131575000Y-65277919D01*
X131575000Y-65042083D01*
X131578426Y-65033813D01*
X131581273Y-65031720D01*
X132155244Y-64731649D01*
X132164163Y-64730854D01*
X132169895Y-64734830D01*
G37*
%TD.AperFunction*%
%TD*%
%TA.AperFunction,Conductor*%
%TO.N,/HLW8032/VP*%
G36*
X131269419Y-64779135D02*
G01*
X131778502Y-65031775D01*
X131784388Y-65038521D01*
X131785000Y-65042254D01*
X131785000Y-65277745D01*
X131781573Y-65286018D01*
X131778501Y-65288225D01*
X131269420Y-65540863D01*
X131260486Y-65541471D01*
X131255592Y-65538287D01*
X130916241Y-65167903D01*
X130913179Y-65159488D01*
X130916239Y-65152098D01*
X131255593Y-64781711D01*
X131263708Y-64777927D01*
X131269419Y-64779135D01*
G37*
%TD.AperFunction*%
%TD*%
%TA.AperFunction,Conductor*%
%TO.N,/HLW8032/VP*%
G36*
X132844755Y-64731649D02*
G01*
X133418721Y-65031717D01*
X133424465Y-65038587D01*
X133425000Y-65042086D01*
X133425000Y-65277913D01*
X133421573Y-65286186D01*
X133418721Y-65288282D01*
X132844756Y-65588349D01*
X132835836Y-65589145D01*
X132830104Y-65585169D01*
X132504598Y-65167188D01*
X132502218Y-65158555D01*
X132504596Y-65152813D01*
X132830106Y-64734828D01*
X132837891Y-64730408D01*
X132844755Y-64731649D01*
G37*
%TD.AperFunction*%
%TD*%
%TA.AperFunction,Conductor*%
%TO.N,/HLW8032/VP*%
G36*
X135328331Y-65144113D02*
G01*
X135334775Y-65150331D01*
X135334934Y-65159284D01*
X135328716Y-65165728D01*
X135328331Y-65165887D01*
X134626937Y-65441873D01*
X134618271Y-65441834D01*
X134237318Y-65287955D01*
X134230930Y-65281679D01*
X134230000Y-65277107D01*
X134230000Y-65042709D01*
X134233427Y-65034436D01*
X134237084Y-65031958D01*
X134618176Y-64868315D01*
X134627075Y-64868180D01*
X135328331Y-65144113D01*
G37*
%TD.AperFunction*%
%TD*%
%TA.AperFunction,Conductor*%
%TO.N,/L*%
G36*
X119016645Y-54595927D02*
G01*
X119020072Y-54604128D01*
X119024972Y-55400474D01*
X119021975Y-55408366D01*
X118474450Y-56017700D01*
X118466371Y-56021563D01*
X118457927Y-56018583D01*
X118455097Y-56014724D01*
X118074124Y-55177108D01*
X118073818Y-55168158D01*
X118075530Y-55165092D01*
X118516486Y-54597026D01*
X118524267Y-54592592D01*
X118525729Y-54592500D01*
X119008372Y-54592500D01*
X119016645Y-54595927D01*
G37*
%TD.AperFunction*%
%TD*%
%TA.AperFunction,Conductor*%
%TO.N,/L*%
G36*
X118909161Y-44429986D02*
G01*
X118917428Y-44433423D01*
X118920812Y-44440809D01*
X119019055Y-45748184D01*
X119016258Y-45756691D01*
X119008265Y-45760728D01*
X119007388Y-45760761D01*
X118524074Y-45760761D01*
X118516808Y-45758232D01*
X117564600Y-45003833D01*
X117560244Y-44996009D01*
X117562695Y-44987396D01*
X117563572Y-44986410D01*
X118116566Y-44432439D01*
X118124834Y-44429006D01*
X118909161Y-44429986D01*
G37*
%TD.AperFunction*%
%TD*%
%TA.AperFunction,Conductor*%
%TO.N,Net-(J3-Pin_2)*%
G36*
X147747512Y-74770976D02*
G01*
X147749950Y-74772844D01*
X147915175Y-74938069D01*
X147918602Y-74946342D01*
X147916652Y-74952809D01*
X147483146Y-75606436D01*
X147475718Y-75611436D01*
X147474324Y-75611632D01*
X146239200Y-75709918D01*
X146230681Y-75707158D01*
X146226913Y-75701059D01*
X146108537Y-75221117D01*
X146109883Y-75212265D01*
X146116851Y-75207019D01*
X147738632Y-74769820D01*
X147747512Y-74770976D01*
G37*
%TD.AperFunction*%
%TD*%
%TA.AperFunction,Conductor*%
%TO.N,Net-(J3-Pin_2)*%
G36*
X151516623Y-48690773D02*
G01*
X151517573Y-48692590D01*
X151836344Y-49459809D01*
X151836353Y-49468764D01*
X151836346Y-49468780D01*
X151516722Y-50239438D01*
X151510388Y-50245767D01*
X151501433Y-50245763D01*
X151501381Y-50245742D01*
X150306353Y-49743428D01*
X150302614Y-49740915D01*
X150137748Y-49576049D01*
X150134321Y-49567776D01*
X150137748Y-49559503D01*
X150139715Y-49557921D01*
X150293047Y-49459809D01*
X151500463Y-48687223D01*
X151509278Y-48685651D01*
X151516623Y-48690773D01*
G37*
%TD.AperFunction*%
%TD*%
%TA.AperFunction,Conductor*%
%TO.N,/TX*%
G36*
X147747562Y-72790980D02*
G01*
X147749889Y-72792783D01*
X147915140Y-72958034D01*
X147918567Y-72966307D01*
X147916584Y-72972823D01*
X147483191Y-73619110D01*
X147475737Y-73624073D01*
X147474284Y-73624266D01*
X146239155Y-73710022D01*
X146230665Y-73707176D01*
X146226973Y-73701098D01*
X146111118Y-73221197D01*
X146112507Y-73212353D01*
X146119569Y-73207124D01*
X147738697Y-72789726D01*
X147747562Y-72790980D01*
G37*
%TD.AperFunction*%
%TD*%
%TA.AperFunction,Conductor*%
%TO.N,/TX*%
G36*
X143187747Y-65540844D02*
G01*
X143572628Y-65880880D01*
X143576559Y-65888926D01*
X143574850Y-65895773D01*
X143308425Y-66329425D01*
X143301174Y-66334680D01*
X143298456Y-66335000D01*
X143061544Y-66335000D01*
X143053271Y-66331573D01*
X143051575Y-66329425D01*
X142785149Y-65895773D01*
X142783738Y-65886930D01*
X142787369Y-65880881D01*
X143172253Y-65540843D01*
X143180722Y-65537934D01*
X143187747Y-65540844D01*
G37*
%TD.AperFunction*%
%TD*%
%TA.AperFunction,Conductor*%
%TO.N,/TX*%
G36*
X151062188Y-46603842D02*
G01*
X151683747Y-46860510D01*
X151830966Y-46921303D01*
X151837305Y-46927628D01*
X151838200Y-46932127D01*
X151837507Y-47765406D01*
X151834073Y-47773676D01*
X151828089Y-47776871D01*
X150600765Y-48020925D01*
X150591982Y-48019178D01*
X150590210Y-48017723D01*
X150423864Y-47851377D01*
X150420437Y-47843104D01*
X150421710Y-47837797D01*
X151047298Y-46609347D01*
X151054106Y-46603530D01*
X151062188Y-46603842D01*
G37*
%TD.AperFunction*%
%TD*%
%TA.AperFunction,Conductor*%
%TO.N,/TX*%
G36*
X156075188Y-58833427D02*
G01*
X156077859Y-58837563D01*
X156315551Y-59466344D01*
X156315271Y-59475294D01*
X156309109Y-59481280D01*
X155954502Y-59629123D01*
X155945548Y-59629144D01*
X155945498Y-59629123D01*
X155590890Y-59481280D01*
X155584572Y-59474933D01*
X155584448Y-59466345D01*
X155822141Y-58837562D01*
X155828272Y-58831036D01*
X155833085Y-58830000D01*
X156066915Y-58830000D01*
X156075188Y-58833427D01*
G37*
%TD.AperFunction*%
%TD*%
%TA.AperFunction,Conductor*%
%TO.N,/TX*%
G36*
X155957747Y-58640844D02*
G01*
X156342628Y-58980880D01*
X156346559Y-58988926D01*
X156344850Y-58995773D01*
X156078425Y-59429425D01*
X156071174Y-59434680D01*
X156068456Y-59435000D01*
X155831544Y-59435000D01*
X155823271Y-59431573D01*
X155821575Y-59429425D01*
X155555149Y-58995773D01*
X155553738Y-58986930D01*
X155557369Y-58980881D01*
X155942253Y-58640843D01*
X155950722Y-58637934D01*
X155957747Y-58640844D01*
G37*
%TD.AperFunction*%
%TD*%
%TA.AperFunction,Conductor*%
%TO.N,/TX*%
G36*
X144986101Y-73212438D02*
G01*
X145833327Y-73551058D01*
X146203818Y-73699136D01*
X146210229Y-73705388D01*
X146210340Y-73714342D01*
X146204088Y-73720753D01*
X146203818Y-73720864D01*
X144986103Y-74207560D01*
X144977149Y-74207449D01*
X144974741Y-74206056D01*
X144484680Y-73838510D01*
X144480118Y-73830805D01*
X144480000Y-73829150D01*
X144480000Y-73590849D01*
X144483427Y-73582576D01*
X144484671Y-73581496D01*
X144974743Y-73213942D01*
X144983416Y-73211721D01*
X144986101Y-73212438D01*
G37*
%TD.AperFunction*%
%TD*%
%TA.AperFunction,Conductor*%
%TO.N,Net-(L3-Pad2)*%
G36*
X115544538Y-56039102D02*
G01*
X115546846Y-56041410D01*
X116076967Y-56745356D01*
X116079207Y-56754026D01*
X116078449Y-56756827D01*
X115790475Y-57460233D01*
X115784169Y-57466591D01*
X115779647Y-57467500D01*
X115295353Y-57467500D01*
X115287080Y-57464073D01*
X115284525Y-57460233D01*
X114996550Y-56756827D01*
X114996587Y-56747872D01*
X114998030Y-56745359D01*
X115528154Y-56041409D01*
X115535868Y-56036862D01*
X115544538Y-56039102D01*
G37*
%TD.AperFunction*%
%TD*%
%TA.AperFunction,Conductor*%
%TO.N,Net-(L3-Pad2)*%
G36*
X110639179Y-65211998D02*
G01*
X110642952Y-65214525D01*
X110985474Y-65557047D01*
X110988901Y-65565320D01*
X110988020Y-65569775D01*
X110328340Y-67171851D01*
X110322021Y-67178196D01*
X110313066Y-67178215D01*
X110313054Y-67178210D01*
X109403784Y-66802562D01*
X109397446Y-66796235D01*
X109397437Y-66796215D01*
X109021789Y-65886945D01*
X109021798Y-65877991D01*
X109028134Y-65871665D01*
X110630226Y-65211979D01*
X110639179Y-65211998D01*
G37*
%TD.AperFunction*%
%TD*%
%TA.AperFunction,Conductor*%
%TO.N,Net-(L3-Pad4)*%
G36*
X130564407Y-66431712D02*
G01*
X130903758Y-66802096D01*
X130906820Y-66810511D01*
X130903758Y-66817904D01*
X130564407Y-67188287D01*
X130556291Y-67192072D01*
X130550579Y-67190863D01*
X130041499Y-66938225D01*
X130035612Y-66931478D01*
X130035000Y-66927745D01*
X130035000Y-66692254D01*
X130038427Y-66683981D01*
X130041495Y-66681776D01*
X130550580Y-66429135D01*
X130559513Y-66428528D01*
X130564407Y-66431712D01*
G37*
%TD.AperFunction*%
%TD*%
%TA.AperFunction,Conductor*%
%TO.N,Net-(L3-Pad4)*%
G36*
X129643761Y-66233920D02*
G01*
X130384353Y-66681586D01*
X130389660Y-66688798D01*
X130390000Y-66691598D01*
X130390000Y-66928401D01*
X130386573Y-66936674D01*
X130384352Y-66938414D01*
X129643763Y-67386078D01*
X129634911Y-67387425D01*
X129629191Y-67384083D01*
X129096543Y-66818016D01*
X129093370Y-66809644D01*
X129096543Y-66801983D01*
X129629192Y-66235914D01*
X129637355Y-66232239D01*
X129643761Y-66233920D01*
G37*
%TD.AperFunction*%
%TD*%
%TA.AperFunction,Conductor*%
%TO.N,Net-(L3-Pad4)*%
G36*
X126293185Y-65881335D02*
G01*
X126293860Y-65881641D01*
X127893482Y-66671780D01*
X127899382Y-66678516D01*
X127900000Y-66682270D01*
X127900000Y-66917729D01*
X127896573Y-66926002D01*
X127893482Y-66928219D01*
X126293880Y-67718349D01*
X126284944Y-67718941D01*
X126278208Y-67713041D01*
X126277893Y-67712346D01*
X125900863Y-66804486D01*
X125900854Y-66795535D01*
X126277893Y-65887652D01*
X126284231Y-65881326D01*
X126293185Y-65881335D01*
G37*
%TD.AperFunction*%
%TD*%
%TA.AperFunction,Conductor*%
%TO.N,Net-(L3-Pad4)*%
G36*
X128550744Y-66235847D02*
G01*
X129083455Y-66801982D01*
X129086629Y-66810356D01*
X129083455Y-66818018D01*
X128550873Y-67384014D01*
X128542708Y-67387691D01*
X128536203Y-67385950D01*
X127795551Y-66928429D01*
X127790314Y-66921166D01*
X127790000Y-66918475D01*
X127790000Y-66681673D01*
X127793427Y-66673400D01*
X127795741Y-66671605D01*
X128536271Y-66233793D01*
X128545134Y-66232533D01*
X128550744Y-66235847D01*
G37*
%TD.AperFunction*%
%TD*%
%TA.AperFunction,Conductor*%
%TO.N,Net-(U2-EN)*%
G36*
X160664476Y-58633114D02*
G01*
X160671969Y-58638019D01*
X160673121Y-58640156D01*
X160831438Y-59024683D01*
X160831419Y-59033637D01*
X160825582Y-59039732D01*
X160111516Y-59374211D01*
X160102570Y-59374617D01*
X160098280Y-59371889D01*
X159932801Y-59206410D01*
X159929374Y-59198137D01*
X159930239Y-59193723D01*
X160191389Y-58553170D01*
X160197685Y-58546804D01*
X160204395Y-58546092D01*
X160664476Y-58633114D01*
G37*
%TD.AperFunction*%
%TD*%
%TA.AperFunction,Conductor*%
%TO.N,Net-(U3-TX)*%
G36*
X142834407Y-63506712D02*
G01*
X143173758Y-63877096D01*
X143176820Y-63885511D01*
X143173758Y-63892904D01*
X142834407Y-64263287D01*
X142826291Y-64267072D01*
X142820579Y-64265863D01*
X142311499Y-64013225D01*
X142305612Y-64006478D01*
X142305000Y-64002745D01*
X142305000Y-63767254D01*
X142308427Y-63758981D01*
X142311495Y-63756776D01*
X142820580Y-63504135D01*
X142829513Y-63503528D01*
X142834407Y-63506712D01*
G37*
%TD.AperFunction*%
%TD*%
%TA.AperFunction,Conductor*%
%TO.N,Net-(U3-TX)*%
G36*
X141341776Y-63598240D02*
G01*
X141722800Y-63757000D01*
X141729119Y-63763345D01*
X141730000Y-63767800D01*
X141730000Y-64002199D01*
X141726573Y-64010472D01*
X141722800Y-64012999D01*
X141341776Y-64171759D01*
X141332992Y-64171846D01*
X140631668Y-63895886D01*
X140625224Y-63889668D01*
X140625065Y-63880715D01*
X140631283Y-63874271D01*
X140631611Y-63874135D01*
X141332993Y-63598153D01*
X141341776Y-63598240D01*
G37*
%TD.AperFunction*%
%TD*%
%TA.AperFunction,Conductor*%
%TO.N,Net-(J3-Pin_4)*%
G36*
X151841622Y-44387717D02*
G01*
X151841639Y-44387734D01*
X152428976Y-44976453D01*
X152432393Y-44984730D01*
X152428956Y-44992999D01*
X152427666Y-44994111D01*
X151214097Y-45894770D01*
X151205411Y-45896949D01*
X151198851Y-45893648D01*
X151032489Y-45727286D01*
X151029068Y-45719378D01*
X150987875Y-44397051D01*
X150991042Y-44388677D01*
X150999205Y-44384995D01*
X150999498Y-44384990D01*
X151833346Y-44384297D01*
X151841622Y-44387717D01*
G37*
%TD.AperFunction*%
%TD*%
%TA.AperFunction,Conductor*%
%TO.N,Net-(J3-Pin_4)*%
G36*
X157655188Y-58833427D02*
G01*
X157657859Y-58837563D01*
X157895551Y-59466344D01*
X157895271Y-59475294D01*
X157889109Y-59481280D01*
X157534502Y-59629123D01*
X157525548Y-59629144D01*
X157525498Y-59629123D01*
X157170890Y-59481280D01*
X157164572Y-59474933D01*
X157164448Y-59466345D01*
X157402141Y-58837562D01*
X157408272Y-58831036D01*
X157413085Y-58830000D01*
X157646915Y-58830000D01*
X157655188Y-58833427D01*
G37*
%TD.AperFunction*%
%TD*%
%TA.AperFunction,Conductor*%
%TO.N,Net-(J3-Pin_4)*%
G36*
X157537747Y-58640844D02*
G01*
X157922628Y-58980880D01*
X157926559Y-58988926D01*
X157924850Y-58995773D01*
X157658425Y-59429425D01*
X157651174Y-59434680D01*
X157648456Y-59435000D01*
X157411544Y-59435000D01*
X157403271Y-59431573D01*
X157401575Y-59429425D01*
X157135149Y-58995773D01*
X157133738Y-58986930D01*
X157137369Y-58980881D01*
X157522253Y-58640843D01*
X157530722Y-58637934D01*
X157537747Y-58640844D01*
G37*
%TD.AperFunction*%
%TD*%
%TA.AperFunction,Conductor*%
%TO.N,Net-(J3-Pin_4)*%
G36*
X147747512Y-66770976D02*
G01*
X147749950Y-66772844D01*
X147915175Y-66938069D01*
X147918602Y-66946342D01*
X147916652Y-66952809D01*
X147483146Y-67606436D01*
X147475718Y-67611436D01*
X147474324Y-67611632D01*
X146239200Y-67709918D01*
X146230681Y-67707158D01*
X146226913Y-67701059D01*
X146108537Y-67221117D01*
X146109883Y-67212265D01*
X146116851Y-67207019D01*
X147738632Y-66769820D01*
X147747512Y-66770976D01*
G37*
%TD.AperFunction*%
%TD*%
M02*
